<svg width="48" height="49" viewBox="0 0 48 49" fill="none" xmlns="http://www.w3.org/2000/svg">
<rect y="0.398926" width="48" height="48" rx="8" fill="#F5F7FA"/>
<g clip-path="url(#clip0_3_2156)">
<path d="M43.9963 13.8104C43.9963 13.8442 43.9963 13.8865 43.9875 13.9119C43.9434 14.2416 43.9434 14.5712 43.9698 14.9094C43.9875 14.9939 44.0051 15.0785 44.0756 15.1461C44.19 15.2729 44.3662 15.2475 44.4367 15.0954C44.4719 15.0193 44.4719 14.9432 44.4543 14.8671C44.3662 14.5459 44.3486 14.2077 44.3398 13.8781C44.3398 13.8612 44.3398 13.8358 44.3398 13.8104C44.4367 13.802 44.5248 13.7935 44.604 13.7935C44.6657 13.7851 44.7185 13.7766 44.7626 13.7513C44.8946 13.6836 44.8946 13.5399 44.7537 13.4723C44.7009 13.4469 44.6304 13.4385 44.5688 13.4385C44.3486 13.4469 44.1284 13.4469 43.9082 13.4469C43.829 13.4469 43.7497 13.4554 43.6704 13.4638C43.6263 13.4723 43.5735 13.4723 43.5383 13.4977C43.4766 13.523 43.4414 13.5653 43.4414 13.6245C43.4502 13.6836 43.4766 13.7174 43.5383 13.7428C43.5735 13.7682 43.6175 13.7766 43.6616 13.7766C43.7672 13.7851 43.8818 13.802 43.9963 13.8104ZM46.4184 14.1993C46.4184 14.2077 46.4272 14.2162 46.4272 14.2162C46.4624 14.4444 46.4977 14.6642 46.5241 14.884C46.5329 14.9601 46.5417 15.0277 46.5946 15.0869C46.709 15.2306 46.8852 15.2137 46.9645 15.0615C46.9997 14.9855 47.0085 14.9094 46.9909 14.8248C46.9381 14.5712 46.9116 14.3176 46.8588 14.0725C46.8235 13.9203 46.7795 13.7766 46.7355 13.6414C46.709 13.5568 46.6474 13.4976 46.5417 13.4892C46.436 13.4723 46.3567 13.523 46.3127 13.5991C46.2599 13.6667 46.2158 13.7343 46.1806 13.8104C46.1189 13.9457 46.0661 14.0809 45.9957 14.2077C45.9868 14.2416 45.978 14.2669 45.9604 14.2923C45.9516 14.2754 45.9428 14.2669 45.9428 14.2669C45.8283 14.0556 45.7226 13.8442 45.6081 13.6414C45.5904 13.6245 45.5817 13.6075 45.5729 13.5906C45.52 13.5146 45.4584 13.4723 45.3615 13.4723C45.2734 13.4807 45.2029 13.5315 45.1589 13.6075C45.1413 13.6414 45.1413 13.6667 45.1325 13.7005C45.0972 13.971 45.0532 14.2416 45.018 14.5121C45.0003 14.6642 44.9915 14.8164 44.9915 14.9686C44.9827 15.0024 44.9915 15.0446 45.0091 15.0785C45.0268 15.1461 45.0796 15.1883 45.1501 15.1968C45.2381 15.2053 45.2998 15.1799 45.3262 15.1123C45.3526 15.0615 45.3615 15.0193 45.3703 14.977C45.4055 14.8248 45.4319 14.6811 45.4584 14.5374C45.476 14.4529 45.4848 14.3853 45.5112 14.2923C45.5288 14.3261 45.5464 14.3515 45.5641 14.3768C45.6433 14.4783 45.7226 14.5797 45.8195 14.6642C45.9164 14.7319 45.9957 14.7234 46.0749 14.6473C46.0925 14.6304 46.1013 14.622 46.1189 14.6051C46.1982 14.4867 46.2951 14.3684 46.3743 14.25C46.392 14.2331 46.4008 14.2162 46.4184 14.1993Z" fill="#3A3B7B"/>
<path d="M26.1247 13.977C26.0634 14.1377 26.0518 14.2534 26.08 14.3496C26.1113 14.4804 26.1923 14.5233 26.3023 14.49C27.3368 14.2445 29.6054 14.9414 30.4453 15.1356C30.6433 15.1764 30.8045 14.931 30.6693 14.711C30.472 14.4979 28.2045 13.5856 27.3393 13.5358C27.0002 13.5174 26.3939 13.434 26.1247 13.977Z" fill="#3A3B7B"/>
<path d="M34.9906 11.0233C35.1008 11.0844 35.1625 11.1426 35.1929 11.2077C35.2382 11.2931 35.2143 11.3522 35.1382 11.3823C34.4543 11.7027 33.5443 13.0818 33.177 13.5574C33.088 13.6668 32.8826 13.6032 32.8516 13.4233C32.8579 13.2198 33.6646 11.7232 34.1148 11.3156C34.2917 11.1564 34.584 10.8442 34.9906 11.0233Z" fill="#3A3B7B"/>
<path d="M29.5445 10.3443C29.6769 10.2485 29.8146 10.2149 29.8849 10.2772C30.9167 11.1241 31.4638 12.4652 31.8026 13.693C31.8154 13.7216 31.8162 13.7627 31.806 13.8055C31.8017 13.8421 31.7739 13.8808 31.7296 13.9107C31.6824 13.9437 31.6417 13.9538 31.6225 13.9253C31.1703 13.335 28.5875 11.0381 29.5445 10.3443Z" fill="#3A3B7B"/>
<path d="M7.69524 25.0274C7.94253 24.8507 8.21137 24.7036 8.49586 24.5894C8.7935 24.5078 9.11075 24.5213 9.39967 24.6281C9.68851 24.7348 9.93338 24.9289 10.0971 25.1811C10.2435 25.4326 10.3008 25.723 10.2604 26.0085C10.2199 26.294 10.084 26.5591 9.87289 26.764C9.70926 26.9301 9.52348 27.0748 9.3205 27.1944C8.41582 27.7553 7.50308 28.2855 6.59039 28.8464C6.40363 28.9868 6.20551 29.1128 5.99793 29.223C5.68217 29.3741 5.32132 29.4146 4.97776 29.3374C4.6342 29.2603 4.32955 29.0703 4.11648 28.8004C3.95719 28.6092 3.82277 28.4002 3.71616 28.1779C2.8515 26.4336 1.95481 24.697 1.12217 22.9219C0.737866 22.1536 0.425627 21.2699 0.121393 20.4169C-0.010233 20.1691 -0.0359366 19.8818 0.0497553 19.6161C0.135447 19.3503 0.325774 19.1272 0.580249 18.994C0.834727 18.8609 1.13327 18.8283 1.4124 18.9032C1.69152 18.9781 1.92921 19.1545 2.0749 19.3949C2.52271 19.9661 2.91911 20.5728 3.25981 21.2084C4.12448 22.7452 4.94912 24.282 5.78176 25.7728C5.83024 25.8552 5.8837 25.9346 5.94188 26.011C6.56859 25.7581 7.15803 25.4274 7.69524 25.0274Z" fill="#3A3B7B"/>
<path d="M16.6357 24.4915C14.6582 26.7122 11.3437 26.1512 9.67838 23.2928C8.49344 21.2642 8.2853 17.9139 10.8633 15.8007C11.4138 15.3583 12.0721 15.057 12.7768 14.9247C13.6407 14.8059 14.5218 14.9521 15.2939 15.3427C16.0661 15.7333 16.6898 16.3481 17.0761 17.0994C18.4852 19.5583 18.285 22.6934 16.6357 24.4915ZM15.8351 19.3124C15.625 18.7081 15.2036 18.1923 14.6422 17.8524C14.3245 17.6351 13.9385 17.5294 13.5492 17.5532C13.1599 17.577 12.791 17.7288 12.5046 17.983C11.3597 18.9589 11.1195 21.2719 11.9521 22.6473C12.0583 22.8716 12.2141 23.0709 12.4089 23.2313C12.6037 23.3918 12.8326 23.5094 13.0797 23.576C13.3268 23.6426 13.586 23.6566 13.8394 23.617C14.0927 23.5773 14.3339 23.485 14.5462 23.3466C15.1668 22.8847 15.6221 22.2488 15.8487 21.5273C16.0755 20.8056 16.0623 20.0342 15.8111 19.3201L15.8351 19.3124Z" fill="#3A3B7B"/>
<path d="M24.7055 20.2804C24.5031 20.3222 24.294 20.3247 24.0904 20.2877C23.887 20.2507 23.6932 20.1751 23.5207 20.0653C23.3697 19.9824 23.2397 19.8684 23.14 19.7315C23.0405 19.5946 22.9737 19.4383 22.9446 19.2736C22.9155 19.1091 22.9248 18.9403 22.9718 18.7796C23.0188 18.6188 23.1024 18.4701 23.2164 18.344C23.4152 18.0906 23.6973 17.9093 24.0171 17.8292C24.8518 17.5967 25.7112 17.4549 26.579 17.4066C26.7697 17.3853 26.9629 17.4008 27.1472 17.4521C27.3316 17.5035 27.5033 17.5897 27.6525 17.7057C27.8016 17.8216 27.9252 17.965 28.0158 18.1274C28.1064 18.2898 28.1623 18.468 28.1802 18.6514C28.4304 19.5524 28.4578 20.497 28.2603 21.41C27.5398 24.3607 25.0578 25.375 22.2717 24.4298C21.4896 24.1771 20.8039 23.7063 20.3022 23.0775C19.633 22.3202 19.1586 21.4227 18.9171 20.4572C18.7214 19.5974 18.7428 18.7052 18.9797 17.8551C19.2164 17.0049 19.6616 16.2214 20.2781 15.57C20.8632 14.8621 21.6226 14.3049 22.4879 13.9487C23.0346 13.6594 23.6744 13.5772 24.2813 13.7182C24.4189 13.7547 24.5439 13.826 24.6432 13.9245C24.7425 14.0231 24.8125 14.1453 24.846 14.2786C24.8795 14.4119 24.8752 14.5513 24.8336 14.6825C24.792 14.8136 24.7147 14.9317 24.6095 15.0245C24.4096 15.1982 24.1924 15.3526 23.961 15.4855C23.2492 15.9206 22.6298 16.4812 22.1356 17.1376C21.8116 17.5624 21.5885 18.0502 21.482 18.5666C21.3755 19.083 21.3881 19.6155 21.5191 20.1268C21.7007 20.8238 22.1036 21.4495 22.672 21.9171C24.4333 23.454 26.7231 21.9709 26.3228 19.8732C25.7384 20.0115 25.226 20.1575 24.7055 20.2804Z" fill="#3A3B7B"/>
<path d="M35.4656 24.6143C32.8637 26.1511 29.9014 24.6143 29.2528 21.3869C28.7805 19.0817 29.6772 15.8544 32.8156 14.6249C33.4834 14.3689 34.2077 14.2791 34.9212 14.3636C35.7786 14.5143 36.5651 14.9194 37.1698 15.5218C37.7745 16.1243 38.167 16.8937 38.2918 17.7216C38.8202 20.4648 37.6193 23.3925 35.4656 24.6143ZM36.3704 19.4428C36.3696 18.8045 36.1343 18.1868 35.7059 17.6985C35.4769 17.3965 35.1458 17.1802 34.7691 17.0862C34.3924 16.9924 33.9935 17.0268 33.6402 17.1837C32.2312 17.7677 31.2384 19.8885 31.5987 21.4484C31.6262 21.6932 31.7091 21.9293 31.8415 22.1402C31.974 22.351 32.1529 22.5315 32.3657 22.6691C32.5784 22.8067 32.8199 22.898 33.0732 22.9367C33.3266 22.9754 33.5857 22.9605 33.8324 22.893C34.5772 22.6433 35.2221 22.1766 35.6771 21.558C36.1321 20.9395 36.3745 20.2 36.3704 19.4428Z" fill="#3A3B7B"/>
<path d="M40.9237 25.2596C40.8844 25.5408 40.7304 25.7956 40.4954 25.9678C40.2604 26.1399 39.9637 26.2155 39.6707 26.1778C39.3777 26.1401 39.1123 25.9922 38.9329 25.7667C38.7534 25.5412 38.6747 25.2565 38.714 24.9753C38.7533 24.694 38.9074 24.4393 39.1423 24.2671C39.3773 24.0949 39.6739 24.0193 39.9669 24.057C40.26 24.0947 40.5254 24.2426 40.7048 24.4681C40.8842 24.6936 40.963 24.9784 40.9237 25.2596ZM40.2271 14.8937C40.3794 14.6705 40.6028 14.5005 40.864 14.4091C41.1251 14.3177 41.41 14.3098 41.6763 14.3865C41.9469 14.4515 42.186 14.6038 42.3537 14.8178C42.5213 15.0318 42.6071 15.2946 42.597 15.5622C42.5617 15.9914 42.4948 16.4176 42.3968 16.8377C42.1326 18.2593 41.8764 19.6809 41.5962 21.0871C41.4681 21.648 41.3 22.1859 41.1158 22.7545C41.0518 22.9323 40.9447 23.0929 40.8036 23.2233C40.7159 23.3213 40.6038 23.3965 40.4777 23.442C40.3516 23.4874 40.2156 23.5016 40.0824 23.4832C39.9491 23.4648 39.8227 23.4145 39.7151 23.3368C39.6075 23.2591 39.522 23.1566 39.4666 23.0389C39.3714 22.8276 39.3197 22.6005 39.3144 22.3703C39.3144 21.4175 39.3144 20.457 39.3785 19.4964C39.4873 18.1257 39.7014 16.7644 40.019 15.4239C40.0564 15.2443 40.1268 15.0725 40.2271 14.9167V14.8937Z" fill="#3A3B7B"/>
<path fill-rule="evenodd" clip-rule="evenodd" d="M4.31239 31.4346C4.21786 31.6371 4.19193 31.8629 4.23813 32.0802C4.26886 32.3666 4.33636 32.6484 4.43909 32.919C4.56734 33.2504 4.71086 33.5781 4.88782 33.982C4.92852 34.0749 4.97105 34.172 5.01555 34.274C5.25419 34.8212 5.55362 35.5205 5.95302 36.5326C6.06607 36.82 6.16645 37.1099 6.26754 37.4018C6.30838 37.5197 6.34936 37.638 6.39131 37.7565C6.54169 38.1781 6.80043 38.5568 7.14339 38.857C7.28903 39.0219 7.4822 39.1422 7.6988 39.2023C7.91963 39.2636 8.1545 39.2597 8.37298 39.1911C8.59146 39.1225 8.78336 38.9924 8.92375 38.8177C9.0614 38.6464 9.14324 38.44 9.15916 38.2243C9.24846 37.8042 9.21797 37.3686 9.0708 36.9636C8.83721 36.2911 8.57112 35.6177 8.26428 34.959L8.26287 34.9561C7.75809 33.9255 7.24498 32.9021 6.7076 31.8782L6.70357 31.8711C6.54626 31.6043 6.34181 31.3659 6.09943 31.1664C5.94207 30.9884 5.72502 30.8683 5.48532 30.8269C5.24051 30.7847 4.98803 30.8273 4.77294 30.9472C4.56947 31.0587 4.40818 31.2293 4.31239 31.4346Z" fill="#3A3B7B"/>
<path fill-rule="evenodd" clip-rule="evenodd" d="M12.0224 28.8969C11.2309 28.7002 10.4043 28.6715 9.60018 28.813C8.97737 28.8718 8.36482 29.0097 7.93947 29.2828C7.72314 29.4218 7.54823 29.6003 7.45094 29.8272C7.35311 30.0553 7.34063 30.3161 7.42079 30.6068C7.56717 31.1392 7.75725 31.6569 7.94666 32.1729L7.97734 32.2564L7.97808 32.2583C8.54839 33.7573 9.12414 35.2513 9.70513 36.7401C9.77288 36.9747 9.86869 37.2011 9.99062 37.4146L9.9929 37.4185C10.154 37.6837 10.3606 37.9209 10.604 38.1202C10.7257 38.2297 10.8762 38.3055 11.0395 38.3394C11.2043 38.3735 11.3757 38.3636 11.535 38.3107C11.6944 38.2577 11.8356 38.1638 11.9431 38.0391C12.049 37.9165 12.1182 37.7687 12.1437 37.6114C12.2487 37.1842 12.2151 36.7364 12.0472 36.328C11.9948 36.1906 11.9537 36.0501 11.9104 35.9023C11.896 35.853 11.8814 35.8028 11.8659 35.7517C13.1958 35.2528 14.6109 34.5819 15.1085 33.0212C15.3033 32.4819 15.3195 31.8978 15.1549 31.3492C14.9901 30.8 14.6521 30.3132 14.1873 29.9558C13.5548 29.4556 12.8159 29.0941 12.0224 28.8969ZM9.82847 30.8113C9.85466 30.804 9.88104 30.7973 9.9075 30.791C10.7733 30.6604 11.6591 30.8345 12.4019 31.2811C12.7292 31.4995 12.8633 31.7423 12.8863 31.9759C12.9101 32.2164 12.8189 32.477 12.6359 32.7275C12.2901 33.2007 11.6589 33.5795 11.0888 33.6501C10.6732 32.7315 10.2511 31.7756 9.82847 30.8113Z" fill="#3A3B7B"/>
<path d="M17.2989 27.2155C18.2414 26.7977 19.409 26.7255 20.3226 27.0193C20.5527 27.0836 20.7523 27.2227 20.8873 27.4129C21.0215 27.6018 21.0834 27.8296 21.0627 28.0572C21.0613 28.205 21.0235 28.3504 20.9524 28.4815C20.8801 28.6151 20.7752 28.7299 20.6469 28.8163C20.5185 28.9027 20.3703 28.9583 20.2149 28.9781C20.0594 28.9981 19.9012 28.9817 19.7537 28.9305L19.7425 28.9266L19.732 28.9213C19.6565 28.8834 19.5763 28.8548 19.4934 28.8362L19.4882 28.8351C18.8455 28.6713 18.2393 28.9428 18.0178 29.2763C17.9122 29.4354 17.8991 29.5959 17.9871 29.742C18.0813 29.8984 18.3123 30.0739 18.7798 30.199C18.9084 30.2329 19.0402 30.2656 19.1739 30.2988C19.5436 30.3906 19.9278 30.4861 20.2993 30.6184L20.3007 30.6189C22.0146 31.2448 22.6528 32.541 22.4343 33.7602C22.2181 34.9659 21.169 36.0631 19.5914 36.3219C19.0173 36.4441 18.4199 36.4203 17.8582 36.2529C17.2952 36.0851 16.7876 35.7788 16.386 35.3643L16.3756 35.3535C16.2488 35.1974 16.1635 35.014 16.1257 34.8193C16.091 34.6437 16.1093 34.4622 16.1784 34.2962C16.2472 34.1311 16.3635 33.9883 16.5136 33.8842C16.6721 33.7662 16.8632 33.6955 17.0632 33.6807C17.2625 33.666 17.462 33.7076 17.6371 33.8003C17.8119 33.8813 17.9745 33.9847 18.1205 34.1077L18.1232 34.11C18.3815 34.3366 18.6939 34.3957 18.9935 34.341C19.2974 34.2855 19.5833 34.1129 19.7671 33.8838C19.9497 33.6562 20.023 33.3859 19.936 33.1234C19.8485 32.8591 19.5852 32.5629 19.0068 32.3153C18.8556 32.2536 18.6988 32.2039 18.5357 32.1556C18.4917 32.1425 18.447 32.1295 18.4017 32.1163C18.2812 32.0812 18.1571 32.045 18.0354 32.0052C17.9516 31.9777 17.8685 31.9518 17.7862 31.926C17.5612 31.8557 17.3418 31.7871 17.1307 31.6952C16.6713 31.545 16.2743 31.2568 15.999 30.873C15.7225 30.4877 15.5834 30.0269 15.6023 29.5595C15.6038 28.4204 16.3513 27.6356 17.2989 27.2155Z" fill="#3A3B7B"/>
<path d="M29.2489 27.0942C29.0661 27.0085 28.864 26.9679 28.6608 26.9758C28.4576 26.9839 28.2597 27.0403 28.0849 27.1401C27.9112 27.2393 27.7658 27.3781 27.6616 27.5442C27.566 27.6842 27.4999 27.8406 27.4669 28.0049C27.4339 28.1691 27.4347 28.3378 27.4692 28.5016C27.5032 28.7121 27.541 28.9169 27.5782 29.1187C27.6399 29.4528 27.7 29.7794 27.7396 30.1124L27.741 30.1208C27.8312 30.643 27.8784 31.1711 27.8827 31.7004L27.8831 31.7079C27.9139 32.2795 27.711 32.8399 27.3178 33.2703L27.3116 33.2779C27.1837 33.4353 27.0127 33.5553 26.8176 33.6247C26.6226 33.6941 26.4114 33.7101 26.2075 33.6708C26.0036 33.6315 25.8151 33.5386 25.6631 33.4024C25.5111 33.2661 25.4015 33.0915 25.3467 32.899C25.2299 32.4932 25.1623 32.0757 25.1451 31.6551L25.3447 28.606C25.3476 28.5662 25.351 28.5253 25.3544 28.484C25.362 28.3914 25.3698 28.2971 25.373 28.2091C25.3777 28.0797 25.3737 27.9465 25.3422 27.8205C25.3101 27.6917 25.2489 27.5692 25.1404 27.4649C25.033 27.3616 24.8879 27.2854 24.7055 27.2335C24.3754 27.1419 24.0964 27.1448 23.8639 27.2395C23.6312 27.3342 23.4718 27.51 23.359 27.7132C23.2471 27.9146 23.1752 28.153 23.1208 28.3919C23.0805 28.5691 23.048 28.7552 23.0172 28.9323C23.0065 28.9933 22.9961 29.0532 22.9856 29.1114L22.9853 29.1131C22.8204 30.0844 22.7713 31.0705 22.839 32.0524C22.8516 32.5831 22.9669 33.1068 23.1791 33.597C23.4185 34.2295 23.852 34.7774 24.4225 35.1686C24.9942 35.5606 25.6765 35.7765 26.3789 35.7879C27.0814 35.7993 27.7709 35.6056 28.3561 35.2325C28.9404 34.8599 29.3932 34.326 29.6546 33.7012C30.0203 32.9053 30.1921 32.0398 30.1566 31.1706C30.1352 30.536 30.0992 29.8966 30.0634 29.2604C30.0458 28.9483 30.0283 28.6369 30.0126 28.3274C30.0046 28.017 29.898 27.7164 29.7069 27.4659C29.5887 27.3075 29.4313 27.1798 29.2489 27.0942Z" fill="#3A3B7B"/>
<path d="M35.7175 31.8754C35.699 31.898 35.6794 31.9214 35.659 31.9458C35.5104 31.1227 35.3726 30.2999 35.2346 29.4758C35.1851 29.1801 35.1354 28.8832 35.0853 28.5872L35.0797 28.5541L35.0614 28.5256C35.027 28.4719 35.0236 28.4192 35.0236 28.3069V28.2939L35.0215 28.2811C34.9842 28.0491 34.8748 27.8333 34.7079 27.6618C34.5413 27.4908 34.3251 27.3717 34.0872 27.3201C33.8497 27.2638 33.6001 27.2762 33.3699 27.3557C33.1403 27.435 32.9401 27.5775 32.7944 27.7653C32.6733 27.9095 32.574 28.0694 32.4996 28.2402C32.3307 28.6082 32.1604 28.9772 31.9896 29.3472L31.9866 29.3535C31.5602 30.2771 31.1309 31.2069 30.7141 32.144L30.7128 32.147C30.4569 32.7547 30.2457 33.3949 30.0352 34.0332C29.9932 34.1606 29.9511 34.2879 29.9088 34.4149C29.8328 34.6163 29.7995 34.8303 29.8109 35.0441C29.7971 35.2356 29.8448 35.4266 29.9478 35.5913C30.0528 35.7594 30.2102 35.8916 30.3976 35.9694C30.5962 36.053 30.8182 36.0707 31.0286 36.0199C31.2385 35.969 31.4248 35.8528 31.5584 35.6893C31.7289 35.488 31.8756 35.2684 31.9953 35.0357C32.3484 34.3425 32.6859 33.6408 33.0218 32.9422C33.1518 32.6719 33.2781 32.4299 33.4217 32.1664C33.4316 32.1988 33.4417 32.2305 33.4521 32.2623C33.6027 32.8987 33.8569 33.5082 34.2053 34.0686C34.2712 34.1873 34.3631 34.291 34.4745 34.3727C34.5873 34.4553 34.7175 34.5133 34.856 34.5428C34.9946 34.5722 35.1381 34.5724 35.2767 34.5432C35.4151 34.514 35.5457 34.456 35.6585 34.3737L35.8819 34.2132L37.6158 32.8115L37.5132 33.4387C37.3725 34.3007 37.2328 35.1555 37.0845 36.0106C36.9874 36.3895 36.9875 36.7854 37.0849 37.1642C37.127 37.3775 37.2344 37.5737 37.3934 37.7281C37.5538 37.8837 37.7591 37.9894 37.9828 38.0316C38.2065 38.0737 38.4383 38.0504 38.648 37.9645C38.8547 37.8799 39.0305 37.7385 39.1533 37.5582C39.4392 37.2178 39.6171 36.8057 39.666 36.3709C39.7396 35.7569 39.8227 35.1345 39.9059 34.5123C40.0017 33.7952 40.0976 33.0782 40.1785 32.375L40.1787 32.3728C40.2566 31.6031 40.2943 30.8302 40.2917 30.0568C40.3087 29.8124 40.2453 29.5689 40.1102 29.3609C39.9747 29.1521 39.7739 28.9897 39.5366 28.8969C39.2898 28.7892 39.0135 28.7604 38.7484 28.8148C38.485 28.8689 38.2466 29.0021 38.0677 29.1952C37.7479 29.479 37.4479 29.7828 37.1696 30.1045L37.1677 30.1067C36.8639 30.47 36.5621 30.8405 36.2624 31.2086C36.0801 31.4324 35.8983 31.6556 35.7175 31.8754Z" fill="#3A3B7B"/>
</g>
<defs>
<clipPath id="clip0_3_2156">
<rect width="47" height="29" fill="white" transform="translate(0 10.2456)"/>
</clipPath>
</defs>
</svg>
