<svg width="55" height="49" viewBox="0 0 55 49" fill="none" xmlns="http://www.w3.org/2000/svg">
<rect y="0.398926" width="48" height="48" rx="8" fill="#F5F7FA"/>
<g clip-path="url(#clip0_3_2152)">
<path d="M54.9957 19.9153C55.0014 19.8736 55.0014 19.8314 54.9957 19.7897C55.0011 19.7557 55.0011 19.7211 54.9957 19.687L54.5883 16.7544C54.5295 16.4035 54.3723 16.0756 54.1344 15.8073L54.0645 15.7274L53.9365 15.6019L46.8829 9.64528L47.0808 9.83928C46.9189 9.6494 46.7157 9.49752 46.4861 9.39483C46.2564 9.29214 46.0062 9.24124 45.7539 9.2459H43.6122C43.2639 9.23914 42.9236 9.34769 42.6461 9.55401C42.3547 9.34893 42.0038 9.24094 41.6451 9.2459H39.5034C39.2225 9.24144 38.9454 9.30978 38.7001 9.44403C38.4549 9.57829 38.2501 9.77369 38.1067 10.0104C37.8854 10.3486 37.8023 10.756 37.8738 11.1516L38.1416 13.0001C37.9642 12.9016 37.7635 12.8504 37.5596 12.8518H27.1887C26.8166 12.8541 26.4531 12.961 26.1411 13.1599C25.8395 13.345 25.5973 13.6101 25.4428 13.9244L24.6396 13.2512C24.3235 12.9645 23.9063 12.809 23.4757 12.8176H7.20353C6.83012 12.8242 6.46501 12.9265 6.14436 13.1143C5.70569 13.366 5.38421 13.7753 5.24809 14.2554L0.0801166 31.2008C-0.0164452 31.48 -0.0259442 31.7812 0.0528362 32.0657C0.131617 32.3502 0.295109 32.6053 0.522426 32.7984C0.581658 32.8476 0.643851 32.8933 0.708663 32.9353C0.708663 32.9353 0.603891 32.8668 0.545692 32.8098L7.59931 38.7778C7.89769 39.0471 8.28781 39.1976 8.69336 39.1999H25.0936C25.4681 39.1904 25.8335 39.0841 26.1528 38.8918C26.3334 38.7951 26.4949 38.6676 26.63 38.5153L26.6882 38.4354L26.7813 38.3213L26.8512 38.1958L27.6194 38.8462C27.9135 39.1048 28.2951 39.2471 28.6902 39.2456H45.1253C45.4994 39.2334 45.8641 39.1273 46.1845 38.9375C46.361 38.8348 46.5217 38.708 46.6618 38.5609L46.7199 38.4811L46.813 38.367C46.8625 38.2948 46.9054 38.2184 46.941 38.1387C46.9791 38.0695 47.0103 37.9969 47.0342 37.9219L51.7482 22.4485V22.3116C51.754 22.2585 51.754 22.2049 51.7482 22.1518V22.0492C51.7539 22.0151 51.7539 21.9805 51.7482 21.9464C51.7535 21.8743 51.7535 21.8018 51.7482 21.7296H53.2614C53.393 21.7414 53.5255 21.7414 53.6571 21.7296H53.7619C53.8471 21.7047 53.9291 21.6702 54.0063 21.6269H54.1227L54.3322 21.4672L54.4253 21.3987L54.5883 21.1933V21.1249L54.7047 20.9308C54.6982 20.8931 54.6982 20.8545 54.7047 20.8168C54.6985 20.7982 54.6985 20.7782 54.7047 20.7597C54.7294 20.6928 54.7489 20.6241 54.7629 20.5543C54.7575 20.5318 54.7575 20.5083 54.7629 20.4858C54.7572 20.4518 54.7572 20.4171 54.7629 20.3831C54.7629 20.3831 54.9957 19.9381 54.9957 19.9153Z" fill="black"/>
<path d="M23.9527 14.1183C24.0145 14.173 24.0576 14.2451 24.0764 14.3247C24.0951 14.4042 24.0885 14.4875 24.0575 14.5633L18.9012 31.4973C18.8362 31.6822 18.7034 31.8368 18.5287 31.931C18.3865 32.0242 18.222 32.0792 18.0514 32.0907H1.66292C1.52296 32.0841 1.39036 32.0273 1.29045 31.931C1.23101 31.877 1.18929 31.807 1.17063 31.7298C1.15197 31.6526 1.15722 31.5716 1.18569 31.4973L6.35367 14.5633C6.41322 14.3761 6.54188 14.2174 6.71449 14.1183C6.859 14.0317 7.02275 13.9808 7.19172 13.9699H23.5802C23.7191 13.9712 23.8522 14.0243 23.9527 14.1183ZM15.3976 28.0854L18.4821 17.9752H9.84557L6.77268 28.0854H15.3976ZM39.5963 14.2894C39.6522 14.3531 39.7221 14.4037 39.8007 14.4372C39.8793 14.4708 39.9646 14.4866 40.0503 14.4834H42.1803C42.2614 14.4842 42.3413 14.4647 42.4127 14.4268C42.4839 14.3888 42.5441 14.3337 42.5877 14.2666C42.6255 14.2142 42.6522 14.1549 42.6662 14.0921C42.6802 14.0294 42.6812 13.9646 42.6691 13.9015L42.2501 10.8889C42.2102 10.7495 42.1386 10.6208 42.0407 10.5124C41.9847 10.4487 41.9148 10.3981 41.8362 10.3646C41.7576 10.331 41.6723 10.3152 41.5867 10.3184H39.4566C39.3755 10.3176 39.2955 10.3371 39.2243 10.375C39.153 10.413 39.0927 10.4681 39.0493 10.5352C38.9678 10.6949 38.9328 10.7976 38.9678 10.8889L39.3984 13.9015C39.4205 14.0481 39.4899 14.1841 39.5963 14.2894ZM46.3589 10.8661C46.319 10.7267 46.2473 10.5979 46.1494 10.4895C46.0958 10.4261 46.028 10.3756 45.9513 10.3419C45.8746 10.3083 45.791 10.2924 45.7071 10.2956H43.5654C43.4856 10.2933 43.4067 10.3123 43.3371 10.3505C43.2674 10.3886 43.2096 10.4446 43.1697 10.5124C43.0922 10.6136 43.0587 10.7408 43.0766 10.8661L43.5072 13.8786C43.5342 14.0238 43.6028 14.1583 43.7051 14.2666C43.762 14.3291 43.8321 14.3787 43.9104 14.4122C43.9888 14.4457 44.0735 14.4622 44.159 14.4606H46.3007C46.3803 14.4616 46.4587 14.4421 46.5281 14.4041C46.5976 14.366 46.6557 14.3108 46.6965 14.2438C46.737 14.1927 46.7652 14.1334 46.7794 14.0702C46.7935 14.0071 46.793 13.9416 46.7779 13.8786L46.3589 10.8661ZM37.7223 15.4305L37.5128 13.9471H27.1885C27.0264 13.9559 26.8696 14.0071 26.7345 14.0954C26.6488 14.1413 26.5742 14.2048 26.5159 14.2816C26.4577 14.3585 26.4171 14.4468 26.3971 14.5405L25.5357 17.3704C25.5013 17.4411 25.4896 17.5205 25.502 17.5979C25.5145 17.6753 25.5506 17.7471 25.6055 17.804C25.7037 17.8945 25.8318 17.9472 25.9664 17.9524H38.5139L35.4294 28.0626H22.9168C22.7554 28.0662 22.5983 28.1136 22.4629 28.1995C22.2983 28.302 22.178 28.4605 22.1253 28.6445L21.2523 31.4745C21.2238 31.5471 21.2164 31.626 21.2307 31.7025C21.2452 31.7791 21.2808 31.8502 21.3338 31.9081C21.4289 32.0046 21.558 32.0618 21.6946 32.0678H38.1297C38.2997 32.0535 38.4635 31.9987 38.6069 31.9081C38.7788 31.8134 38.9077 31.6586 38.9678 31.4745L43.6934 16.0011H38.3741C38.2897 16.0027 38.2059 15.9874 38.1279 15.956C38.0498 15.9246 37.9791 15.8778 37.9202 15.8185C37.824 15.715 37.7559 15.5894 37.7223 15.4534V15.4305Z" fill="white"/>
</g>
<defs>
<clipPath id="clip0_3_2152">
<rect width="55" height="30" fill="white" transform="translate(0 9.24561)"/>
</clipPath>
</defs>
</svg>
