<svg width="48" height="48" viewBox="0 0 48 48" fill="none" xmlns="http://www.w3.org/2000/svg">
<g clip-path="url(#clip0_3_1707)">
<path d="M42.437 11.6909C42.437 12.1569 42.8194 12.5347 43.2912 12.5347H44.1453C44.6171 12.5347 44.9995 12.1569 44.9995 11.6909C44.9995 11.2249 44.6171 10.8472 44.1453 10.8472H43.2912C42.8194 10.8472 42.437 11.2249 42.437 11.6909Z" fill="#212326"/>
<path d="M17.6662 37.8472H21.8156L20.6076 36.6539C20.2872 36.3375 19.8527 36.1597 19.3997 36.1597H17.6662C11.0618 36.1597 5.70785 30.871 5.70785 24.3472C5.70785 17.8233 11.0618 12.5347 17.6662 12.5347H31.3328C37.9373 12.5347 43.2912 17.8233 43.2912 24.3472C43.2912 30.871 37.9373 36.1597 31.3328 36.1597H26.2204C25.5408 36.1597 24.889 35.893 24.4084 35.4183L22.9932 34.0203C22.1923 33.2292 21.1059 32.7847 19.9732 32.7847H17.6662C12.9487 32.7847 9.12451 29.0071 9.12451 24.3472C9.12451 19.6872 12.9487 15.9097 17.6662 15.9097H31.3328C36.0503 15.9097 39.8745 19.6872 39.8745 24.3472C39.8745 29.0071 36.0503 32.7847 31.3328 32.7847H28.0502C27.3705 32.7847 26.7188 32.518 26.2382 32.0433L24.8229 30.6453C24.022 29.8542 22.9357 29.4097 21.803 29.4097H17.6662C14.8357 29.4097 12.5412 27.1431 12.5412 24.3472C12.5412 21.5512 14.8357 19.2847 17.6662 19.2847H31.3328C34.1633 19.2847 36.4578 21.5512 36.4578 24.3472C36.4578 27.109 34.2189 29.3543 31.4362 29.4087L31.4356 29.4097H30.1856C29.506 29.4097 28.8542 29.143 28.3736 28.6683L26.9584 27.2703C26.3012 26.6211 25.4519 26.2054 24.5424 26.0771L24.4995 26.0347H17.6662C16.7227 26.0347 15.9578 25.2791 15.9578 24.3472C15.9578 23.4152 16.7227 22.6597 17.6662 22.6597H31.3328C32.2763 22.6597 33.0412 23.4152 33.0412 24.3472C33.0412 25.2791 32.2763 26.0347 31.3328 26.0347H27.9162L29.1242 27.2279C29.4445 27.5444 29.8791 27.7222 30.3321 27.7222H31.3328C33.2198 27.7222 34.7495 26.2111 34.7495 24.3472C34.7495 22.4832 33.2198 20.9722 31.3328 20.9722H17.6662C15.7792 20.9722 14.2495 22.4832 14.2495 24.3472C14.2495 26.2111 15.7792 27.7222 17.6662 27.7222H23.9384C24.6181 27.7222 25.2698 27.9889 25.7504 28.4635L27.1657 29.8615C27.9666 30.6527 29.0529 31.0972 30.1856 31.0972H31.7599V31.0842C35.3349 30.8665 38.1662 27.9334 38.1662 24.3472C38.1662 20.6193 35.1068 17.5972 31.3328 17.5972H17.6662C13.8923 17.5972 10.8328 20.6193 10.8328 24.3472C10.8328 28.0751 13.8923 31.0972 17.6662 31.0972H21.803C22.4827 31.0972 23.1344 31.3639 23.615 31.8385L25.0303 33.2365C25.8312 34.0277 26.9175 34.4722 28.0502 34.4722H31.3328C36.9938 34.4722 41.5828 29.9391 41.5828 24.3472C41.5828 18.7553 36.9938 14.2222 31.3328 14.2222H17.6662C12.0052 14.2222 7.41618 18.7553 7.41618 24.3472C7.41618 29.9391 12.0052 34.4722 17.6662 34.4722H19.9732C20.6529 34.4722 21.3047 34.7389 21.7852 35.2135L23.2005 36.6115C24.0014 37.4027 25.0877 37.8472 26.2204 37.8472H31.3328C38.8807 37.8472 44.9995 31.803 44.9995 24.3472C44.9995 16.8913 38.8807 10.8472 31.3328 10.8472L17.6662 10.8472C10.1183 10.8472 3.99951 16.8913 3.99951 24.3472C3.99951 31.803 10.1183 37.8472 17.6662 37.8472Z" fill="#212326"/>
</g>
<defs>
<clipPath id="clip0_3_1707">
<rect width="41" height="27" fill="white" transform="translate(3.99951 10.8472)"/>
</clipPath>
</defs>
</svg>
