<svg width="48" height="49" viewBox="0 0 48 49" fill="none" xmlns="http://www.w3.org/2000/svg">
<rect y="0.398926" width="48" height="48" rx="8" fill="#E8F5E9"/>
<g clip-path="url(#clip0_3_2146)">
<path fill-rule="evenodd" clip-rule="evenodd" d="M14 4C19.5228 4 24 8.47715 24 14V4H34C39.5228 4 44 8.47715 44 14C44 19.5228 39.5228 24 34 24C39.5228 24 44 28.4772 44 34C44 36.7423 42.8961 39.2268 41.1085 41.0334L41.0711 41.0711L41.0379 41.1041C39.2309 42.8943 36.7446 44 34 44C31.2741 44 28.8029 42.9093 26.999 41.1405C26.9756 41.1175 26.9522 41.0943 26.9289 41.0711C26.907 41.0492 26.8852 41.0272 26.8635 41.0051C25.0924 39.2009 24 36.728 24 34C24 39.5228 19.5228 44 14 44C8.47715 44 4 39.5228 4 34V24H14C8.47715 24 4 19.5228 4 14C4 8.47715 8.47715 4 14 4ZM22 14C22 18.4183 18.4183 22 14 22V6C18.4183 6 22 9.58172 22 14ZM42 34C42 29.5817 38.4183 26 34 26C29.5817 26 26 29.5817 26 34H42ZM6 26V34C6 38.4183 9.58172 42 14 42C18.4183 42 22 38.4183 22 34V26H6ZM26 22V6H34C38.4183 6 42 9.58172 42 14C42 18.4183 38.4183 22 34 22H26Z" fill="#5417D7"/>
</g>
<defs>
<clipPath id="clip0_3_2146">
<rect width="40" height="40" fill="white" transform="translate(4 4)"/>
</clipPath>
</defs>
</svg>
