<svg width="48" height="48" viewBox="0 0 48 48" fill="none" xmlns="http://www.w3.org/2000/svg">
<g clip-path="url(#clip0_3_1684)">
<path fill-rule="evenodd" clip-rule="evenodd" d="M13.9858 13.9608L4 23.8462C5.99734 25.8235 8.27899 27.4899 10.7666 28.7936C11.4542 30.5992 12.532 32.2925 14 33.7457C19.5229 39.213 28.4772 39.213 34 33.7457C35.468 32.2925 36.5458 30.5992 37.2334 28.7935C39.721 27.4899 42.0027 25.8235 44 23.8462L34.0223 13.9688C34.0149 13.9615 34.0075 13.9541 34 13.9467C28.4772 8.47936 19.5229 8.47936 14 13.9467C13.9953 13.9514 13.9905 13.9561 13.9858 13.9608ZM33.0445 30.5771C30.1345 31.5493 27.0797 32.0472 24 32.0472C20.9203 32.0472 17.8656 31.5493 14.9556 30.5771C15.2709 30.9912 15.619 31.3886 16 31.7658C20.4183 36.1397 27.5817 36.1397 32 31.7658C32.381 31.3886 32.7292 30.9912 33.0445 30.5771ZM16.2051 15.7286C16.9554 16.2193 17.7532 16.6392 18.588 16.9815C20.3038 17.6851 22.1428 18.0472 24 18.0472C25.8572 18.0472 27.6962 17.6851 29.412 16.9815C30.2468 16.6392 31.0446 16.2193 31.795 15.7286C27.4318 11.6187 20.5682 11.6187 16.2051 15.7286Z" fill="#3B4158"/>
</g>
<defs>
<clipPath id="clip0_3_1684">
<rect width="40" height="28" fill="white" transform="translate(4 9.84619)"/>
</clipPath>
</defs>
</svg>
