<svg width="48" height="48" viewBox="0 0 48 48" fill="none" xmlns="http://www.w3.org/2000/svg">
<path d="M46.1456 38.6446L46.1457 38.6446C46.3342 38.5138 46.4949 38.3469 46.6184 38.1535C46.7419 37.9602 46.8257 37.7442 46.8649 37.5181C46.9042 37.292 46.8981 37.0604 46.8471 36.8367C46.796 36.613 46.701 36.4017 46.5676 36.215L46.5654 36.2119C44.6876 33.5427 42.129 31.4253 39.1557 30.0798L38.4306 29.7516L39.0409 29.2408C40.8508 27.7259 42.1498 25.69 42.7611 23.4103C43.3724 21.1307 43.2663 18.718 42.4572 16.5008C41.648 14.2836 40.1753 12.3696 38.2394 11.0195C36.3035 9.66934 33.9985 8.94863 31.6383 8.95548L31.636 8.95549C30.5856 8.95374 29.5402 9.09877 28.53 9.38638L28.521 9.38893L28.521 9.38885C28.2966 9.44823 28.0863 9.55165 27.9022 9.6931C27.7182 9.83454 27.5642 10.0112 27.449 10.2127C27.3339 10.4143 27.2601 10.6367 27.2318 10.8671C27.2034 11.0975 27.2212 11.3312 27.2841 11.5546C27.347 11.7781 27.4537 11.9868 27.598 12.1686C27.7423 12.3504 27.9213 12.5016 28.1246 12.6136C28.3279 12.7256 28.5515 12.7959 28.7823 12.8207C29.0131 12.8454 29.2465 12.8239 29.4689 12.7576L29.4747 12.7559L29.4747 12.7559C30.1781 12.5552 30.9062 12.4541 31.6378 12.4555M46.1456 38.6446L31.6368 12.9555M46.1456 38.6446L46.1398 38.6487C45.8479 38.8574 45.4979 38.969 45.1391 38.968C44.8585 38.9663 44.5823 38.8978 44.3334 38.7683C44.0843 38.6387 43.8697 38.4516 43.7072 38.2225M46.1456 38.6446L43.2993 38.5117M31.6378 12.4555L31.6368 12.9555M31.6378 12.4555C31.6375 12.4555 31.6371 12.4555 31.6368 12.4555V12.9555M31.6378 12.4555C33.7592 12.4557 35.7936 13.2986 37.2937 14.7986C38.794 16.2989 39.6368 18.3338 39.6368 20.4555C39.6368 22.5772 38.794 24.612 37.2937 26.1123C35.7934 27.6126 33.7586 28.4555 31.6368 28.4555C31.1727 28.4555 30.7276 28.6399 30.3994 28.9681C30.0712 29.2962 29.8868 29.7414 29.8868 30.2055C29.8868 30.6696 30.0712 31.1147 30.3994 31.4429C30.7276 31.7711 31.1727 31.9555 31.6368 31.9555H31.6374C34.0041 31.9581 36.3357 32.5287 38.4361 33.6195C40.5361 34.71 42.3438 36.2886 43.7072 38.2225M31.6368 12.9555C33.6259 12.9555 35.5336 13.7457 36.9401 15.1522C38.3467 16.5587 39.1368 18.4664 39.1368 20.4555C39.1368 22.4446 38.3467 24.3523 36.9401 25.7588C35.5336 27.1653 33.6259 27.9555 31.6368 27.9555C31.0401 27.9555 30.4678 28.1925 30.0458 28.6145C29.6239 29.0365 29.3868 29.6087 29.3868 30.2055C29.3868 30.8022 29.6239 31.3745 30.0458 31.7965C30.4678 32.2184 31.0401 32.4555 31.6368 32.4555C33.9236 32.458 36.1763 33.0093 38.2057 34.0632C40.2351 35.1171 41.9819 36.6426 43.2993 38.5117M43.7072 38.2225C43.7072 38.2225 43.7072 38.2225 43.7072 38.2225L43.2993 38.5117M43.7072 38.2225C43.7075 38.2229 43.7077 38.2233 43.708 38.2237L43.2993 38.5117M23.7587 29.2416L23.1514 29.7525L23.8744 30.0798C26.8477 31.4253 29.4063 33.5427 31.2841 36.2119L31.2913 36.2221L31.2989 36.2319C31.4448 36.4188 31.5512 36.6334 31.6116 36.8626C31.6721 37.0918 31.6853 37.331 31.6505 37.5655C31.6157 37.8 31.5336 38.025 31.4092 38.2268C31.2849 38.4287 31.1208 38.6031 30.9269 38.7396C30.7331 38.8761 30.5135 38.9718 30.2816 39.0208C30.0496 39.0699 29.8101 39.0713 29.5776 39.025C29.3451 38.9787 29.1244 38.8856 28.929 38.7514C28.7335 38.6172 28.5674 38.4447 28.4406 38.2444L28.4342 38.2342L28.4273 38.2244C27.0666 36.2864 25.2592 34.7044 23.158 33.6123C21.0569 32.5202 18.7236 31.9501 16.3556 31.9501C13.9875 31.9501 11.6543 32.5202 9.55311 33.6123C7.45194 34.7044 5.64459 36.2864 4.28386 38.2244L4.28275 38.226C4.12279 38.4557 3.90951 38.6433 3.6612 38.7725C3.41288 38.9017 3.13694 38.9688 2.85701 38.968L2.85395 38.968C2.49494 38.9692 2.14464 38.8575 1.85257 38.6487L1.85017 38.647C1.4716 38.3798 1.21447 37.9733 1.13519 37.5167C1.05591 37.0602 1.16094 36.5908 1.42725 36.2116C3.30506 33.5425 5.86355 31.4252 8.83672 30.0798L9.5598 29.7525L8.95245 29.2416C7.14742 27.7231 5.85298 25.6863 5.24463 23.4074C4.63627 21.1284 4.74344 18.7174 5.55158 16.5014C6.35973 14.2854 7.82977 12.3714 9.76241 11.0191C11.695 9.66674 13.9968 8.94141 16.3556 8.94141C18.7144 8.94141 21.0161 9.66674 22.9487 11.0191C24.8814 12.3714 26.3514 14.2854 27.1596 16.5014C27.9677 18.7174 28.0749 21.1284 27.4665 23.4074C26.8582 25.6863 25.5637 27.7231 23.7587 29.2416ZM9.70382 16.0109C8.82477 17.3265 8.35558 18.8732 8.35558 20.4555C8.35558 22.5772 9.19843 24.612 10.6987 26.1123C12.199 27.6126 14.2338 28.4555 16.3556 28.4555C17.9378 28.4555 19.4845 27.9863 20.8001 27.1072C22.1157 26.2282 23.1411 24.9788 23.7466 23.517C24.3521 22.0551 24.5105 20.4466 24.2019 18.8948C23.8932 17.3429 23.1313 15.9175 22.0124 14.7986C20.8936 13.6798 19.4681 12.9179 17.9163 12.6092C16.3644 12.3005 14.7559 12.4589 13.2941 13.0644C11.8323 13.67 10.5829 14.6953 9.70382 16.0109Z" fill="#4CAF4F" stroke="#4CAF4F"/>
</svg>
