<svg width="20" height="20" viewBox="0 0 20 20" fill="none" xmlns="http://www.w3.org/2000/svg">
<path fill-rule="evenodd" clip-rule="evenodd" d="M0.47352 0.473512C1.10488 -0.157837 2.12852 -0.157837 2.75987 0.473512L10.0002 7.71368L17.2401 0.473827C17.8715 -0.157523 18.8951 -0.157523 19.5265 0.473827C20.1578 1.10518 20.1578 2.1288 19.5265 2.76015L12.2865 10L19.5265 17.2399C20.1578 17.8712 20.1578 18.8948 19.5265 19.5262C18.8951 20.1575 17.8715 20.1575 17.2401 19.5262L10.0002 12.2863L2.75987 19.5265C2.12852 20.1578 1.10488 20.1578 0.47352 19.5265C-0.15784 18.8951 -0.15784 17.8715 0.47352 17.2402L7.7138 10L0.47352 2.75983C-0.15784 2.12848 -0.15784 1.10486 0.47352 0.473512Z" fill="black"/>
</svg>
