<svg width="18" height="18" viewBox="0 0 18 18" fill="none" xmlns="http://www.w3.org/2000/svg">
<g clip-path="url(#clip0_3_2311)">
<path fill-rule="evenodd" clip-rule="evenodd" d="M17.0303 0.969935C17.2341 1.17366 17.3031 1.47609 17.2079 1.74803L11.9579 16.748C11.8563 17.0383 11.5878 17.2371 11.2806 17.2496C10.9733 17.2622 10.6895 17.0859 10.5646 16.8049L7.6818 10.3185L1.1954 7.43562C0.91439 7.31073 0.738092 7.02695 0.750627 6.71969C0.763163 6.41243 0.961991 6.14396 1.25224 6.04237L16.2522 0.792371C16.5242 0.697192 16.8266 0.766207 17.0303 0.969935ZM9.14456 9.91636L11.1671 14.467L14.7064 4.35453L9.14456 9.91636ZM13.6457 3.29387L3.53331 6.83322L8.0839 8.8557L13.6457 3.29387Z" fill="white"/>
</g>
<defs>
<clipPath id="clip0_3_2311">
<rect width="18" height="18" fill="white" transform="translate(0 0.000244141)"/>
</clipPath>
</defs>
</svg>
