<svg width="32" height="33" viewBox="0 0 32 33" fill="none" xmlns="http://www.w3.org/2000/svg">
<path opacity="0.1" fill-rule="evenodd" clip-rule="evenodd" d="M0 16.672C0 7.83544 7.16344 0.671997 16 0.671997C24.8366 0.671997 32 7.83544 32 16.672C32 25.5086 24.8366 32.672 16 32.672C7.16344 32.672 0 25.5086 0 16.672Z" fill="white"/>
<path fill-rule="evenodd" clip-rule="evenodd" d="M24.5335 16.6602C24.5335 17.2373 24.4747 17.8136 24.3593 18.3753C24.2468 18.9237 24.0801 19.4621 23.8618 19.9768C23.6485 20.4824 23.3839 20.9696 23.0747 21.424C22.7701 21.8754 22.4192 22.299 22.0338 22.6851C21.6475 23.0696 21.2225 23.4195 20.7712 23.7254C20.3154 24.0324 19.8275 24.2966 19.3216 24.5109C18.8061 24.7281 18.2665 24.8945 17.7186 25.0069C17.1561 25.1226 16.5777 25.1816 15.9997 25.1816C15.4214 25.1816 14.843 25.1226 14.2813 25.0069C13.7326 24.8945 13.1929 24.7281 12.6779 24.5109C12.1721 24.2966 11.6837 24.0324 11.2278 23.7254C10.7766 23.4195 10.3516 23.0696 9.96611 22.6851C9.58027 22.299 9.2294 21.8754 8.92439 21.424C8.61687 20.9696 8.35184 20.4824 8.13768 19.9768C7.9193 19.4621 7.75224 18.9237 7.63931 18.3753C7.52515 17.8136 7.4668 17.2373 7.4668 16.6602C7.4668 16.0826 7.52511 15.5051 7.63934 14.9446C7.75227 14.3962 7.91934 13.857 8.13771 13.3431C8.35187 12.8372 8.6169 12.3495 8.92442 11.8951C9.22943 11.4433 9.5803 11.0205 9.96614 10.6339C10.3516 10.2495 10.7766 9.9004 11.2279 9.59499C11.6837 9.28665 12.1721 9.02247 12.6779 8.80775C13.193 8.59009 13.7326 8.42327 14.2814 8.31177C14.8431 8.19694 15.4214 8.13867 15.9998 8.13867C16.5777 8.13867 17.1561 8.19694 17.7186 8.31177C18.2665 8.4233 18.8061 8.59013 19.3216 8.80775C19.8275 9.02244 20.3154 9.28665 20.7713 9.59499C21.2225 9.9004 21.6476 10.2495 22.0338 10.6339C22.4193 11.0205 22.7701 11.4433 23.0747 11.8951C23.3839 12.3495 23.6485 12.8372 23.8618 13.3431C24.0801 13.857 24.2468 14.3962 24.3593 14.9446C24.4747 15.5051 24.5335 16.0826 24.5335 16.6602ZM12.8904 10.0781C10.8582 11.0363 9.34143 12.9062 8.86848 15.1597C9.0606 15.1614 12.0974 15.1997 15.5963 14.2714C14.335 12.0337 12.9875 10.2075 12.8904 10.0781ZM16.2001 15.392C12.4479 16.5137 8.84724 16.433 8.71808 16.428C8.71597 16.5062 8.71223 16.5819 8.71223 16.6602C8.71223 18.5296 9.41851 20.2339 10.5794 21.5226C10.5769 21.5188 12.5712 17.9858 16.5039 16.7159C16.5989 16.6843 16.6956 16.656 16.7914 16.6285C16.6085 16.215 16.4089 15.8005 16.2001 15.392ZM20.8125 11.1986C19.5295 10.0689 17.8448 9.38363 15.9997 9.38363C15.4076 9.38363 14.833 9.45521 14.2825 9.58752C14.3917 9.734 15.7605 11.5473 17.0068 13.8324C19.7566 12.803 20.7945 11.2252 20.8125 11.1986ZM17.2882 17.8344C17.2719 17.8397 17.2557 17.8444 17.2398 17.8502C12.9401 19.347 11.536 22.3634 11.5208 22.3964C12.7579 23.3571 14.3097 23.9367 15.9998 23.9367C17.009 23.9367 17.9703 23.7315 18.8449 23.36C18.737 22.7242 18.3136 20.4957 17.2882 17.8344ZM20.072 22.6951C21.7083 21.5925 22.8705 19.8416 23.1946 17.8135C23.0446 17.7653 21.0058 17.1207 18.6536 17.4973C19.6095 20.1204 19.9978 22.2566 20.072 22.6951ZM17.5678 14.9167C17.7369 15.2638 17.9007 15.617 18.0519 15.9719C18.1057 16.0993 18.1582 16.2241 18.2095 16.3489C20.7129 16.0343 23.1793 16.5636 23.2847 16.5852C23.2681 14.8602 22.6501 13.2769 21.6276 12.0374C21.6138 12.0569 20.445 13.7434 17.5678 14.9167Z" fill="white"/>
</svg>
