<svg width="32" height="33" viewBox="0 0 32 33" fill="none" xmlns="http://www.w3.org/2000/svg">
<path opacity="0.1" fill-rule="evenodd" clip-rule="evenodd" d="M0 16.672C0 7.83544 7.16344 0.671997 16 0.671997C24.8366 0.671997 32 7.83544 32 16.672C32 25.5086 24.8366 32.672 16 32.672C7.16344 32.672 0 25.5086 0 16.672Z" fill="white"/>
<path fill-rule="evenodd" clip-rule="evenodd" d="M16.0009 8.13867C13.6834 8.13867 13.3925 8.14881 12.4823 8.19023C11.5739 8.23183 10.9538 8.37565 10.4112 8.58668C9.84993 8.80463 9.37384 9.09619 8.89952 9.57069C8.42485 10.045 8.13329 10.5211 7.91462 11.0822C7.70307 11.6249 7.55906 12.2452 7.51818 13.1533C7.47746 14.0635 7.4668 14.3546 7.4668 16.6721C7.4668 18.9896 7.47711 19.2796 7.51835 20.1898C7.56013 21.0983 7.70395 21.7184 7.9148 22.261C8.13294 22.8222 8.4245 23.2983 8.89899 23.7726C9.37313 24.2473 9.84922 24.5396 10.4101 24.7575C10.9531 24.9685 11.5733 25.1124 12.4816 25.154C13.3918 25.1954 13.6825 25.2055 15.9999 25.2055C18.3176 25.2055 18.6075 25.1954 19.5178 25.154C20.4262 25.1124 21.047 24.9685 21.59 24.7575C22.151 24.5396 22.6264 24.2473 23.1006 23.7726C23.5752 23.2983 23.8668 22.8222 24.0855 22.2611C24.2952 21.7184 24.4392 21.0981 24.4819 20.19C24.5228 19.2798 24.5335 18.9896 24.5335 16.6721C24.5335 14.3546 24.5228 14.0637 24.4819 13.1535C24.4392 12.245 24.2952 11.6249 24.0855 11.0823C23.8668 10.5211 23.5752 10.045 23.1006 9.57069C22.6259 9.09602 22.1512 8.80446 21.5894 8.58668C21.0454 8.37565 20.425 8.23183 19.5165 8.19023C18.6063 8.14881 18.3165 8.13867 15.9983 8.13867H16.0009ZM15.2354 9.67644C15.4626 9.67609 15.7161 9.67644 16.0009 9.67644C18.2793 9.67644 18.5494 9.68462 19.4491 9.72551C20.2811 9.76355 20.7327 9.90258 21.0335 10.0194C21.4317 10.174 21.7156 10.3589 22.0141 10.6576C22.3128 10.9563 22.4977 11.2407 22.6527 11.639C22.7695 11.9394 22.9087 12.391 22.9466 13.223C22.9875 14.1225 22.9963 14.3928 22.9963 16.6701C22.9963 18.9475 22.9875 19.2177 22.9466 20.1173C22.9085 20.9493 22.7695 21.4008 22.6527 21.7013C22.498 22.0995 22.3128 22.3831 22.0141 22.6816C21.7154 22.9802 21.4319 23.1651 21.0335 23.3198C20.733 23.4371 20.2811 23.5758 19.4491 23.6138C18.5495 23.6547 18.2793 23.6636 16.0009 23.6636C13.7223 23.6636 13.4522 23.6547 12.5527 23.6138C11.7207 23.5754 11.2691 23.4364 10.9681 23.3196C10.5699 23.1649 10.2855 22.98 9.98679 22.6814C9.68812 22.3827 9.50323 22.099 9.3482 21.7006C9.2314 21.4001 9.0922 20.9486 9.05433 20.1166C9.01344 19.217 9.00527 18.9468 9.00527 16.668C9.00527 14.3892 9.01344 14.1204 9.05433 13.2208C9.09238 12.3888 9.2314 11.9373 9.3482 11.6365C9.50287 11.2382 9.68812 10.9538 9.98679 10.6551C10.2855 10.3564 10.5699 10.1716 10.9681 10.0165C11.2689 9.8992 11.7207 9.76053 12.5527 9.72231C13.3399 9.68675 13.645 9.67609 15.2354 9.67431V9.67644ZM20.556 11.0933C19.9906 11.0933 19.532 11.5515 19.532 12.117C19.532 12.6823 19.9906 13.141 20.556 13.141C21.1213 13.141 21.58 12.6823 21.58 12.117C21.58 11.5517 21.1213 11.0933 20.556 11.0933ZM16.0009 12.2898C13.5808 12.2898 11.6187 14.252 11.6187 16.6721C11.6187 19.0922 13.5808 21.0534 16.0009 21.0534C18.4211 21.0534 20.3825 19.0922 20.3825 16.6721C20.3825 14.252 18.4211 12.2898 16.0009 12.2898ZM16.0009 13.8276C17.5718 13.8276 18.8454 15.101 18.8454 16.6721C18.8454 18.2429 17.5718 19.5165 16.0009 19.5165C14.4299 19.5165 13.1564 18.2429 13.1564 16.6721C13.1564 15.101 14.4299 13.8276 16.0009 13.8276Z" fill="white"/>
</svg>
