<svg width="32" height="33" viewBox="0 0 32 33" fill="none" xmlns="http://www.w3.org/2000/svg">
<path opacity="0.1" fill-rule="evenodd" clip-rule="evenodd" d="M0 16.672C0 7.83544 7.16344 0.671997 16 0.671997C24.8366 0.671997 32 7.83544 32 16.672C32 25.5086 24.8366 32.672 16 32.672C7.16344 32.672 0 25.5086 0 16.672Z" fill="white"/>
<path fill-rule="evenodd" clip-rule="evenodd" d="M22.6679 11.1716C23.4022 11.3731 23.9805 11.9669 24.1768 12.7209C24.5335 14.0874 24.5335 16.9388 24.5335 16.9388C24.5335 16.9388 24.5335 19.79 24.1768 21.1566C23.9805 21.9106 23.4022 22.5044 22.6679 22.706C21.3371 23.0721 16.0001 23.0721 16.0001 23.0721C16.0001 23.0721 10.6632 23.0721 9.3323 22.706C8.59795 22.5044 8.01962 21.9106 7.82335 21.1566C7.4668 19.79 7.4668 16.9388 7.4668 16.9388C7.4668 16.9388 7.4668 14.0874 7.82335 12.7209C8.01962 11.9669 8.59795 11.3731 9.3323 11.1716C10.6632 10.8054 16.0001 10.8054 16.0001 10.8054C16.0001 10.8054 21.3371 10.8054 22.6679 11.1716ZM14.4001 14.5387V19.872L18.6668 17.2055L14.4001 14.5387Z" fill="white"/>
</svg>
