<svg width="48" height="49" viewBox="0 0 48 49" fill="none" xmlns="http://www.w3.org/2000/svg">
<rect y="0.398926" width="48" height="48" rx="8" fill="#E8F5E9"/>
<g clip-path="url(#clip0_3_2146)">
<path fill-rule="evenodd" clip-rule="evenodd" d="M10.3535 0.593506C15.8763 0.593506 20.3535 5.07066 20.3535 10.5935V0.593506H30.3535C35.8763 0.593506 40.3535 5.07066 40.3535 10.5935C40.3535 16.1163 35.8763 20.5935 30.3535 20.5935C35.8763 20.5935 40.3535 25.0707 40.3535 30.5935C40.3535 33.3358 39.2496 35.8203 37.462 37.6269L37.4246 37.6646L37.3914 37.6976C35.5844 39.4878 33.0981 40.5935 30.3535 40.5935C27.6276 40.5935 25.1564 39.5028 23.3525 37.734C23.3291 37.711 23.3057 37.6878 23.2824 37.6646C23.2605 37.6427 23.2387 37.6207 23.217 37.5986C21.4459 35.7944 20.3535 33.3215 20.3535 30.5935C20.3535 36.1163 15.8763 40.5935 10.3535 40.5935C4.83067 40.5935 0.353516 36.1163 0.353516 30.5935V20.5935H10.3535C4.83067 20.5935 0.353516 16.1163 0.353516 10.5935C0.353516 5.07066 4.83067 0.593506 10.3535 0.593506ZM18.3535 10.5935C18.3535 15.0118 14.7718 18.5935 10.3535 18.5935V2.59351C14.7718 2.59351 18.3535 6.17523 18.3535 10.5935ZM38.3535 30.5935C38.3535 26.1752 34.7718 22.5935 30.3535 22.5935C25.9352 22.5935 22.3535 26.1752 22.3535 30.5935H38.3535ZM2.35352 22.5935V30.5935C2.35352 35.0118 5.93524 38.5935 10.3535 38.5935C14.7718 38.5935 18.3535 35.0118 18.3535 30.5935V22.5935H2.35352ZM22.3535 18.5935V2.59351H30.3535C34.7718 2.59351 38.3535 6.17523 38.3535 10.5935C38.3535 15.0118 34.7718 18.5935 30.3535 18.5935H22.3535Z" fill="#5417D7"/>
</g>
<defs>
<clipPath id="clip0_3_2146">
<rect width="40" height="40" fill="white" transform="translate(0.353516 0.593506)"/>
</clipPath>
</defs>
</svg>
