<svg width="48" height="49" viewBox="0 0 48 49" fill="none" xmlns="http://www.w3.org/2000/svg">
<rect y="0.398926" width="48" height="48" rx="8" fill="#F5F7FA"/>
<g clip-path="url(#clip0_3_2149)">
<path fill-rule="evenodd" clip-rule="evenodd" d="M10.0986 14.3602L0.112793 24.2456C2.11013 26.2229 4.39178 27.8893 6.87943 29.193C7.56703 30.9986 8.64482 32.6919 10.1128 34.1451C15.6357 39.6124 24.59 39.6124 30.1128 34.1451C31.5808 32.6919 32.6586 30.9986 33.3462 29.1929C35.8338 27.8893 38.1155 26.2229 40.1128 24.2456L30.1351 14.3683C30.1277 14.3609 30.1203 14.3535 30.1128 14.3461C24.59 8.87877 15.6357 8.87877 10.1128 14.3461C10.1081 14.3508 10.1033 14.3555 10.0986 14.3602ZM29.1573 30.9765C26.2473 31.9487 23.1925 32.4466 20.1128 32.4466C17.0331 32.4466 13.9784 31.9487 11.0684 30.9765C11.3837 31.3906 11.7318 31.788 12.1128 32.1652C16.5311 36.5391 23.6945 36.5391 28.1128 32.1652C28.4938 31.788 28.842 31.3906 29.1573 30.9765ZM12.3179 16.128C13.0682 16.6187 13.866 17.0386 14.7008 17.381C16.4166 18.0845 18.2556 18.4466 20.1128 18.4466C21.97 18.4466 23.809 18.0845 25.5248 17.381C26.3596 17.0386 27.1574 16.6187 27.9078 16.128C23.5446 12.0181 16.681 12.0181 12.3179 16.128Z" fill="#3B4158"/>
</g>
<defs>
<clipPath id="clip0_3_2149">
<rect width="40" height="28" fill="white" transform="translate(0.112793 10.2456)"/>
</clipPath>
</defs>
</svg>
