<svg width="52" height="49" viewBox="0 0 52 49" fill="none" xmlns="http://www.w3.org/2000/svg">
<rect y="0.398926" width="48" height="48" rx="8" fill="#F5F7FA"/>
<g clip-path="url(#clip0_3_2176)">
<path d="M12.3431 14.2461C10.3124 14.2461 8.36487 15.0528 6.92893 16.4887L2.24264 21.175C0.8067 22.611 0 24.5585 0 26.5892C0 30.818 3.42809 34.2461 7.65687 34.2461C9.6876 34.2461 11.6351 33.4394 13.0711 32.0034L16.3126 28.7619C16.3127 28.762 16.3126 28.7618 16.3126 28.7619L25.7573 19.3172C26.4431 18.6314 27.3733 18.2461 28.3431 18.2461C29.9669 18.2461 31.3435 19.3044 31.8207 20.7688L34.8015 17.7881C33.4417 15.6583 31.0573 14.2461 28.3431 14.2461C26.3124 14.2461 24.3649 15.0528 22.9289 16.4887L10.2427 29.175C9.55687 29.8608 8.62673 30.2461 7.65687 30.2461C5.63723 30.2461 4 28.6089 4 26.5892C4 25.6194 4.38527 24.6892 5.07107 24.0034L9.75733 19.3172C10.4431 18.6314 11.3733 18.2461 12.3431 18.2461C13.9669 18.2461 15.3435 19.3044 15.8207 20.7689L18.8015 17.7881C17.4417 15.6584 15.0574 14.2461 12.3431 14.2461Z" fill="#394149"/>
<path d="M26.2431 29.175C25.5573 29.8608 24.6272 30.2461 23.6573 30.2461C22.0338 30.2461 20.6573 29.1881 20.1799 27.7239L17.1992 30.7046C18.5591 32.834 20.9433 34.2461 23.6573 34.2461C25.688 34.2461 27.6356 33.4394 29.0715 32.0034L41.7578 19.3172C42.4435 18.6314 43.3737 18.2461 44.3436 18.2461C46.3632 18.2461 48.0004 19.8833 48.0004 21.903C48.0004 22.8728 47.6151 23.803 46.9294 24.4888L42.2431 29.175C41.5573 29.8608 40.6271 30.2461 39.6573 30.2461C38.0336 30.2461 36.6571 29.1879 36.1798 27.7236L33.1991 30.7043C34.5589 32.834 36.9431 34.2461 39.6573 34.2461C41.688 34.2461 43.6355 33.4394 45.0715 32.0034L49.7577 27.3172C51.1937 25.8812 52.0004 23.9337 52.0004 21.903C52.0004 17.6742 48.5723 14.2461 44.3436 14.2461C42.3128 14.2461 40.3653 15.0528 38.9294 16.4887L26.2431 29.175Z" fill="#394149"/>
</g>
<defs>
<clipPath id="clip0_3_2176">
<rect width="52" height="20" fill="white" transform="translate(0 14.2461)"/>
</clipPath>
</defs>
</svg>
