<svg width="65" height="56" viewBox="0 0 65 56" fill="none" xmlns="http://www.w3.org/2000/svg">
<path d="M64.9995 38.0002C64.9995 47.9414 56.9406 56.0002 46.9995 56.0002L19.9995 56.0002C17.2381 56.0002 14.9995 53.7617 14.9995 51.0002L14.9995 17.0002C14.9995 11.4774 19.4767 7.00024 24.9995 7.00024L59.9995 7.00024C62.7609 7.00024 64.9995 9.23882 64.9995 12.0002L64.9995 38.0002Z" fill="#E8F5E9"/>
<path d="M23.99 10.001C20.4187 10.001 17.5114 12.9349 17.5114 16.5213C17.5114 18.7902 18.6765 20.7934 20.4358 21.9611C18.3109 22.6716 16.4723 23.9995 15.1238 25.7367C14.3782 25.1632 13.5451 24.702 12.647 24.3715C14.0089 23.3604 14.8989 21.7363 14.8989 19.911C14.8989 16.8692 12.4388 14.3792 9.41547 14.3792C6.39215 14.3792 3.93208 16.8692 3.93208 19.911C3.93208 21.7374 4.82277 23.3622 6.18579 24.3733C2.57721 25.7049 0 29.1912 0 33.2942V36.1764C0.000369347 36.3961 0.0882567 36.6066 0.244089 36.7613C0.39992 36.9164 0.610779 37.0029 0.830496 37.0021H13.4755C13.5061 37.0054 13.5368 37.0073 13.5674 37.0069H34.4133C34.4439 37.0073 34.4749 37.0054 34.5052 37.0021H47.1511C47.6057 37.0003 47.9739 36.6314 47.975 36.1764V33.2942C47.975 29.1912 45.4022 25.7049 41.7955 24.3729C43.1585 23.3622 44.0492 21.737 44.0492 19.9106C44.0492 16.8688 41.5892 14.3788 38.5658 14.3788C35.5426 14.3788 33.0824 16.8688 33.0824 19.9106C33.0824 21.7359 33.9728 23.3603 35.3346 24.3711C34.4347 24.7023 33.6013 25.165 32.8546 25.74C31.5067 24.0018 29.6707 22.672 27.5459 21.9611C29.3047 20.7934 30.4703 18.7902 30.4703 16.5213C30.4703 12.9349 27.5614 10.001 23.9902 10.001H23.99ZM23.99 11.6553C26.661 11.6553 28.8142 13.823 28.8142 16.5213C28.8142 19.1985 26.6945 21.3451 24.0531 21.3796C24.0321 21.3796 24.0114 21.3766 23.99 21.3766C23.9686 21.3766 23.9483 21.3796 23.9268 21.3796C21.2854 21.3456 19.1672 19.1986 19.1672 16.5213C19.1672 13.8226 21.3186 11.6553 23.9896 11.6553H23.99ZM9.41556 16.0334C11.5348 16.0334 13.2446 17.7535 13.2446 19.9109C13.2446 22.0538 11.557 23.7665 9.45763 23.7897C9.4436 23.7897 9.42994 23.7882 9.41553 23.7882C9.4015 23.7882 9.38784 23.7897 9.37344 23.7897C7.2741 23.7665 5.58647 22.0534 5.58647 19.9109C5.58647 17.7536 7.29622 16.0334 9.4155 16.0334H9.41556ZM38.5653 16.0334C40.6846 16.0334 42.3944 17.7535 42.3944 19.9109C42.3944 22.0538 40.7067 23.7665 38.6074 23.7897C38.5934 23.7897 38.5797 23.7882 38.5653 23.7882C38.5513 23.7882 38.5376 23.7897 38.5232 23.7897C36.4239 23.7665 34.7363 22.0534 34.7363 19.9109C34.7363 17.7536 36.446 16.0334 38.5653 16.0334H38.5653ZM23.9266 23.0338C23.9477 23.0342 23.9684 23.0368 23.9898 23.0368C24.0108 23.0368 24.0315 23.0338 24.0529 23.0338C29.3502 23.0678 33.5896 27.3437 33.5896 32.6962L33.5892 35.3521H14.3911V32.6962C14.3911 27.3432 18.6293 23.0678 23.9259 23.0338H23.9266ZM9.35223 25.446C9.37327 25.4463 9.39395 25.4489 9.41537 25.4489C9.43679 25.4489 9.4571 25.446 9.47852 25.446C11.2702 25.4604 12.9054 26.0782 14.2074 27.1118C13.2757 28.7603 12.7369 30.6631 12.7369 32.6967V35.3462H1.65369V33.2941C1.65369 28.944 5.07396 25.4799 9.35203 25.4456L9.35223 25.446ZM38.502 25.446C38.5234 25.4463 38.5437 25.4489 38.5652 25.4489C38.5866 25.4489 38.6069 25.446 38.6283 25.446C42.9064 25.4799 46.3266 28.9445 46.3266 33.2945V35.3462H35.2377L35.2373 32.6967C35.2373 30.6642 34.7 28.7628 33.7702 27.1147C35.0726 26.0796 36.7089 25.4603 38.5021 25.446H38.502Z" fill="#103E13"/>
</svg>
