<svg width="66" height="56" viewBox="0 0 66 56" fill="none" xmlns="http://www.w3.org/2000/svg">
<path d="M65.5005 38C65.5005 47.9411 57.4416 56 47.5005 56L20.5005 56C17.7391 56 15.5005 53.7614 15.5005 51L15.5005 17C15.5005 11.4771 19.9776 7 25.5005 7L60.5005 7C63.2619 7 65.5005 9.23858 65.5005 12L65.5005 38Z" fill="#E8F5E9"/>
<path d="M27.4172 19.0101C27.1052 19.0101 26.8516 18.7569 26.8516 18.4445V17.4832C26.8516 17.1711 27.1048 16.9175 27.4172 16.9175C27.7293 16.9175 27.9829 17.1707 27.9829 17.4832V18.4445C27.9829 18.7569 27.7293 19.0101 27.4172 19.0101Z" fill="#103E13"/>
<path d="M25.0383 19.0101C24.7263 19.0101 24.4727 18.7569 24.4727 18.4445V17.4832C24.4727 17.1711 24.7259 16.9175 25.0383 16.9175C25.3504 16.9175 25.604 17.1707 25.604 17.4832V18.4445C25.6036 18.7569 25.3508 19.0101 25.0383 19.0101Z" fill="#103E13"/>
<path d="M22.6604 19.0101C22.3484 19.0101 22.0947 18.7569 22.0947 18.4445V17.4832C22.0947 17.1711 22.348 16.9175 22.6604 16.9175C22.9724 16.9175 23.2261 17.1707 23.2261 17.4832V18.4445C23.2261 18.7569 22.9728 19.0101 22.6604 19.0101Z" fill="#103E13"/>
<path d="M27.4172 22.9419C27.1052 22.9419 26.8516 22.6886 26.8516 22.3762V21.4153C26.8516 21.1033 27.1048 20.8496 27.4172 20.8496C27.7293 20.8496 27.9829 21.1029 27.9829 21.4153V22.3762C27.9829 22.6886 27.7293 22.9419 27.4172 22.9419Z" fill="#103E13"/>
<path d="M25.0383 22.9419C24.7263 22.9419 24.4727 22.6886 24.4727 22.3762V21.4153C24.4727 21.1033 24.7259 20.8496 25.0383 20.8496C25.3504 20.8496 25.604 21.1029 25.604 21.4153V22.3762C25.6036 22.6886 25.3508 22.9419 25.0383 22.9419Z" fill="#103E13"/>
<path d="M22.6604 22.9419C22.3484 22.9419 22.0947 22.6886 22.0947 22.3762V21.4153C22.0947 21.1033 22.348 20.8496 22.6604 20.8496C22.9724 20.8496 23.2261 21.1029 23.2261 21.4153V22.3762C23.2261 22.6886 22.9728 22.9419 22.6604 22.9419Z" fill="#103E13"/>
<path d="M27.4172 26.8729C27.1052 26.8729 26.8516 26.6197 26.8516 26.3073V25.3459C26.8516 25.0339 27.1048 24.7803 27.4172 24.7803C27.7293 24.7803 27.9829 25.0335 27.9829 25.3459V26.3073C27.9829 26.6197 27.7293 26.8729 27.4172 26.8729Z" fill="#103E13"/>
<path d="M25.0383 26.8729C24.7263 26.8729 24.4727 26.6197 24.4727 26.3073V25.3459C24.4727 25.0339 24.7259 24.7803 25.0383 24.7803C25.3504 24.7803 25.604 25.0335 25.604 25.3459V26.3073C25.6036 26.6197 25.3508 26.8729 25.0383 26.8729Z" fill="#103E13"/>
<path d="M22.6604 26.8729C22.3484 26.8729 22.0947 26.6197 22.0947 26.3073V25.3459C22.0947 25.0339 22.348 24.7803 22.6604 24.7803C22.9724 24.7803 23.2261 25.0335 23.2261 25.3459V26.3073C23.2261 26.6197 22.9728 26.8729 22.6604 26.8729Z" fill="#103E13"/>
<path d="M27.4172 30.8036C27.1052 30.8036 26.8516 30.5504 26.8516 30.2379V29.2766C26.8516 28.9646 27.1048 28.7109 27.4172 28.7109C27.7293 28.7109 27.9829 28.9642 27.9829 29.2766V30.2379C27.9829 30.5504 27.7293 30.8036 27.4172 30.8036Z" fill="#103E13"/>
<path d="M25.0383 30.8036C24.7263 30.8036 24.4727 30.5504 24.4727 30.2379V29.2766C24.4727 28.9646 24.7259 28.7109 25.0383 28.7109C25.3504 28.7109 25.604 28.9642 25.604 29.2766V30.2379C25.6036 30.5504 25.3508 30.8036 25.0383 30.8036Z" fill="#103E13"/>
<path d="M22.6604 30.8036C22.3484 30.8036 22.0947 30.5504 22.0947 30.2379V29.2766C22.0947 28.9646 22.348 28.7109 22.6604 28.7109C22.9724 28.7109 23.2261 28.9642 23.2261 29.2766V30.2379C23.2261 30.5504 22.9728 30.8036 22.6604 30.8036Z" fill="#103E13"/>
<path d="M27.4172 34.7349C27.1052 34.7349 26.8516 34.4816 26.8516 34.1692V33.2083C26.8516 32.8962 27.1048 32.6426 27.4172 32.6426C27.7293 32.6426 27.9829 32.8958 27.9829 33.2083V34.1692C27.9829 34.4812 27.7293 34.7349 27.4172 34.7349Z" fill="#103E13"/>
<path d="M25.0383 34.7349C24.7263 34.7349 24.4727 34.4816 24.4727 34.1692V33.2083C24.4727 32.8962 24.7259 32.6426 25.0383 32.6426C25.3504 32.6426 25.604 32.8958 25.604 33.2083V34.1692C25.6036 34.4812 25.3508 34.7349 25.0383 34.7349Z" fill="#103E13"/>
<path d="M22.6604 34.7349C22.3484 34.7349 22.0947 34.4816 22.0947 34.1692L22.0951 33.2083C22.0951 32.8962 22.3484 32.6426 22.6608 32.6426C22.9728 32.6426 23.2265 32.8958 23.2265 33.2083V34.1692C23.2261 34.4812 22.9728 34.7349 22.6604 34.7349V34.7349Z" fill="#103E13"/>
<path d="M6.50096 38.6471C6.50096 38.9592 6.75421 39.2128 7.06664 39.2128H41.5144C41.8264 39.2128 42.0801 38.9596 42.0801 38.6471C42.0801 38.3351 41.8268 38.0815 41.5144 38.0815H40.4687V21.8402C40.4687 21.5281 40.2154 21.2745 39.903 21.2745L30.6673 21.2749V9.56576C30.6673 9.36774 30.564 9.18471 30.3951 9.08214C30.2267 8.97919 30.016 8.97287 29.8409 9.06399L19.3405 14.531C19.1532 14.6284 19.0364 14.8217 19.0364 15.0327V25.2604H8.87437C8.56234 25.2604 8.30869 25.5137 8.30869 25.8261V38.0816H7.06538C6.75335 38.0812 6.50049 38.3344 6.50049 38.6468L6.50096 38.6471ZM30.6675 29.8422H39.3379V38.0819L30.6675 38.0815V29.8422ZM30.6675 25.9113H39.3379V28.7113L30.6675 28.7109V25.9113ZM30.6675 22.4056H39.3379V24.7808H30.6675V22.4056ZM20.1672 15.3762L29.5358 10.4982V38.081H20.1672V15.3762ZM12.2364 33.5635C12.2364 32.3895 13.1665 31.4341 14.3101 31.4341C15.4536 31.4341 16.3842 32.3891 16.3842 33.5635V38.0817H12.2364V33.5635ZM9.44001 26.3916H19.0362V38.0815H17.5155V33.5633C17.5155 31.7657 16.0781 30.303 14.3101 30.303C12.5429 30.303 11.1054 31.7653 11.1054 33.5633V38.0815H9.44001V26.3916Z" fill="#103E13"/>
</svg>
