<svg width="65" height="56" viewBox="0 0 65 56" fill="none" xmlns="http://www.w3.org/2000/svg">
<path d="M65.0005 38.0002C65.0005 47.9414 56.9416 56.0002 47.0005 56.0002L20.0005 56.0002C17.2391 56.0002 15.0005 53.7617 15.0005 51.0002L15.0005 17.0002C15.0005 11.4774 19.4776 7.00024 25.0005 7.00024L60.0005 7.00024C62.7619 7.00024 65.0005 9.23882 65.0005 12.0002L65.0005 38.0002Z" fill="#E8F5E9"/>
<path d="M28.3121 23.6456C28.0714 23.6456 27.8478 23.5794 27.6492 23.4729V23.4757C27.6492 23.8546 27.5019 24.2104 27.2348 24.4768C26.9676 24.744 26.6121 24.8912 26.2337 24.8912C25.9894 24.8912 25.763 24.8234 25.5622 24.7141C25.542 25.0606 25.4034 25.3846 25.1563 25.632C24.8891 25.8991 24.5336 26.0464 24.155 26.0464C23.4027 26.0464 22.7918 25.455 22.7477 24.7138C22.515 24.8396 22.2518 24.9056 21.9804 24.8882C21.2403 24.8396 20.6608 24.2002 20.6608 23.4322V17.0655L19.9358 18.3215C19.6597 18.8018 19.1428 19.1001 18.5863 19.1001C18.3151 19.1001 18.0473 19.029 17.81 18.893C17.5146 18.7217 17.3033 18.4468 17.2154 18.1179C17.127 17.7887 17.1727 17.4445 17.3435 17.1495C17.3438 17.1495 19.7155 13.0423 19.8602 12.7901C19.8774 12.7521 19.9264 12.6421 19.9681 12.5483C20.008 12.4588 20.0421 12.3669 20.0749 12.2746C20.7901 10.2553 22.5611 9.00096 24.6971 9.00096C27.4707 9.00096 29.7273 11.4479 29.7273 14.4555L29.7275 22.2299C29.7275 22.6083 29.5805 22.9638 29.3136 23.2312C29.0464 23.4984 28.6909 23.6456 28.3121 23.6456L28.3121 23.6456ZM24.6971 9.7531C22.8618 9.7531 21.3989 10.7898 20.7838 12.5261C20.7445 12.6364 20.7035 12.7466 20.6556 12.8541C20.5169 13.1653 20.5169 13.1653 20.4778 13.21L20.4726 13.2056C20.2789 13.571 19.7036 14.5673 17.9948 17.526C17.9246 17.6473 17.906 17.7882 17.9418 17.923C17.9781 18.0577 18.065 18.1713 18.1854 18.2408C18.5591 18.4554 19.0708 18.3169 19.2838 17.9458L20.7113 15.4744C20.7965 15.3271 20.969 15.2548 21.1344 15.2996C21.2988 15.3436 21.4131 15.4927 21.4131 15.6628V23.4324C21.4131 23.799 21.6897 24.1154 22.0297 24.1377C22.2257 24.1481 22.4085 24.0824 22.5459 23.9453C22.6707 23.8204 22.7395 23.6541 22.7395 23.4762V18.3948C22.7395 18.187 22.908 18.0185 23.1158 18.0185C23.3236 18.0185 23.492 18.1868 23.492 18.3948L23.4918 24.6312C23.4918 24.9968 23.7894 25.2944 24.155 25.2944C24.3326 25.2944 24.4994 25.2256 24.6245 25.1007C24.7494 24.9756 24.8182 24.8088 24.8182 24.6312V18.3948C24.8182 18.187 24.9864 18.0185 25.1945 18.0185C25.4023 18.0185 25.5707 18.1868 25.5707 18.3948L25.5705 23.4177V23.4762C25.5705 23.8416 25.868 24.1391 26.2339 24.1391C26.4113 24.1391 26.5777 24.0701 26.7035 23.9447C26.8283 23.8201 26.8971 23.6538 26.8971 23.4759V18.3945C26.8971 18.1867 27.0653 18.0183 27.2734 18.0183C27.4812 18.0183 27.6496 18.1865 27.6496 18.3945L27.6492 22.2301C27.6492 22.596 27.9467 22.8935 28.3121 22.8935C28.49 22.8935 28.6563 22.8245 28.7812 22.6999C28.9065 22.5745 28.9751 22.4077 28.9751 22.2301L28.9753 14.4557C28.9753 11.863 27.0562 9.75318 24.6971 9.75318L24.6971 9.7531Z" fill="#103E13"/>
<path d="M13.5292 29.048L18.9889 25.7727C19.6472 25.3774 20.4942 25.5454 20.9164 26.1553C21.0704 26.3775 21.1491 26.6364 21.1614 26.9001C21.3649 26.7938 21.5864 26.7361 21.8119 26.7361C21.9273 26.7361 22.0432 26.7505 22.1577 26.779C22.5245 26.8706 22.8337 27.0999 23.028 27.424C23.2226 27.7487 23.2794 28.1291 23.1878 28.4955C23.1032 28.8346 22.897 29.1199 22.6103 29.3157C22.8108 29.4339 22.9837 29.5953 23.1067 29.8008C23.3013 30.1254 23.3581 30.5057 23.2667 30.8725C23.1751 31.2389 22.9458 31.548 22.6212 31.7429L22.6193 31.744C22.8162 31.8621 22.9861 32.0218 23.1077 32.2242C23.3025 32.5488 23.3593 32.9293 23.2676 33.2961C23.1758 33.6627 22.9465 33.9718 22.6224 34.1664L15.956 38.1657C14.7118 38.9119 13.2734 39.1694 11.9065 38.8902C10.5273 38.6084 9.38509 37.8157 8.69059 36.6579C7.5915 34.8261 7.75622 32.6619 9.11961 31.0101C9.18205 30.9347 9.24354 30.8579 9.29937 30.7783C9.35851 30.6942 9.42754 30.5952 9.4511 30.5613C9.59222 30.3092 11.895 26.1603 11.8947 26.1608C12.1273 25.7412 12.5631 25.5037 13.0126 25.5039C13.2223 25.5039 13.4351 25.5555 13.6313 25.6644C13.8683 25.7968 14.0674 25.9898 14.2067 26.2223C14.4929 26.6994 14.5031 27.2964 14.2335 27.7796L13.5292 29.048ZM13.562 26.6091C13.4889 26.4873 13.3886 26.3902 13.2658 26.3214C13.0121 26.181 12.6926 26.2724 12.5529 26.5252C10.9052 29.4937 10.3435 30.5054 10.1267 30.8654L10.1317 30.8666C10.1135 30.9269 10.1135 30.9269 9.91514 31.2103C9.84776 31.3062 9.77449 31.3983 9.69981 31.489C8.52744 32.9094 8.39132 34.6969 9.33534 36.2709C9.92009 37.2458 10.8865 37.9142 12.0567 38.1531C13.2396 38.3937 14.4864 38.1699 15.5686 37.5206L22.2356 33.5211C22.3878 33.4299 22.4952 33.285 22.5381 33.1133C22.581 32.9417 22.5543 32.7634 22.4629 32.6112C22.2749 32.2979 21.8666 32.1949 21.5533 32.3836L18.2644 34.3568C18.0862 34.4637 17.8549 34.4062 17.7482 34.2279C17.6412 34.0498 17.6989 33.8187 17.877 33.7117L21.1662 31.7386L22.2344 31.0977C22.3866 31.0063 22.4943 30.8614 22.5371 30.6901C22.58 30.5184 22.5534 30.3398 22.462 30.1879C22.2737 29.8743 21.8655 29.7723 21.5523 29.9603L17.195 32.5742C17.0164 32.6814 16.7857 32.6235 16.6788 32.4454C16.5718 32.2673 16.6298 32.0361 16.8076 31.9292L22.1555 28.7211C22.3077 28.6296 22.4151 28.485 22.458 28.3132C22.5009 28.1417 22.4742 27.9634 22.3831 27.8112C22.2919 27.6592 22.147 27.5518 21.9753 27.5089C21.8026 27.466 21.6249 27.4927 21.4732 27.5836L20.4832 28.1775C20.483 28.1775 20.483 28.1778 20.4827 28.1778H20.4825L16.1254 30.7917C15.9468 30.8992 15.7159 30.8412 15.6092 30.6629C15.5022 30.4848 15.5602 30.2536 15.738 30.1467L20.0954 27.5327C20.2476 27.4413 20.3553 27.2964 20.3982 27.1251C20.4453 26.9371 20.4095 26.7449 20.2978 26.5837C20.1041 26.3036 19.69 26.2291 19.3759 26.4179L12.7137 30.4146C12.5679 30.5017 12.3811 30.4805 12.2588 30.3625C12.1363 30.2442 12.1087 30.0583 12.1912 29.9097L13.5765 27.4137C13.7155 27.1642 13.7101 26.8561 13.5619 26.6092L13.562 26.6091Z" fill="#103E13"/>
<path d="M39.6183 36.6576C38.924 37.8156 37.7821 38.6081 36.4027 38.8899C35.0355 39.1686 33.5977 38.9116 32.3532 38.1655L25.6862 34.166C25.3618 33.9714 25.1323 33.6623 25.0404 33.2952C24.9493 32.9288 25.0063 32.5483 25.2006 32.2241C25.322 32.0215 25.4921 31.8618 25.6893 31.7437L25.6874 31.7426C25.363 31.548 25.1335 31.2389 25.0421 30.8723C24.9502 30.5057 25.0072 30.1249 25.2018 29.8003C25.3272 29.5918 25.4989 29.4288 25.6949 29.3131C25.4103 29.1173 25.2054 28.8329 25.121 28.4956C25.0291 28.1287 25.0862 27.7482 25.2808 27.424C25.4751 27.0996 25.7845 26.8704 26.1511 26.7787C26.2656 26.75 26.3817 26.7359 26.4967 26.7359C26.7224 26.7361 26.9439 26.7933 27.1474 26.8998C27.1599 26.6362 27.2384 26.3773 27.3924 26.1551C27.8149 25.5456 28.6611 25.3769 29.3203 25.7725L34.7799 29.0473L34.0762 27.7798C33.8062 27.2958 33.8161 26.6988 34.1023 26.2215C34.2418 25.9892 34.4411 25.7963 34.6793 25.6627C34.8751 25.5543 35.0871 25.5029 35.2963 25.5029C35.7456 25.5032 36.1819 25.7402 36.4142 26.1598C37.2237 27.6184 38.7513 30.3692 38.8587 30.5613C38.8816 30.5945 38.9506 30.6934 39.0098 30.7776C39.0661 30.8574 39.1268 30.9338 39.1898 31.0096C40.5529 32.6621 40.7174 34.8261 39.6183 36.6576L39.6183 36.6576ZM38.6093 31.4891C38.5344 31.3984 38.4609 31.3058 38.394 31.2104C38.1904 30.9215 38.1852 30.914 38.1699 30.8384C37.932 30.4447 37.3515 29.3996 35.7558 26.5248C35.6158 26.2725 35.2978 26.1803 35.0445 26.3203C34.9199 26.39 34.8197 26.4873 34.7467 26.6091C34.5987 26.8558 34.5931 27.164 34.7328 27.4142L36.1177 29.9094C36.2003 30.0583 36.1728 30.244 36.0505 30.3622C35.9285 30.4807 35.7419 30.5015 35.5953 30.4143L28.9331 26.4176C28.6191 26.2293 28.2052 26.3031 28.011 26.5834C27.8993 26.7446 27.8638 26.9368 27.9104 27.1246C27.9533 27.2961 28.061 27.4408 28.2134 27.5322C28.2139 27.5324 28.2141 27.5329 28.2146 27.5331L32.5706 30.1464C32.7487 30.2533 32.8064 30.4842 32.6994 30.6626C32.5925 30.8405 32.3618 30.8986 32.1832 30.7914L26.8354 27.5833C26.6837 27.4924 26.5051 27.4655 26.3336 27.5087C26.1616 27.5515 26.0169 27.659 25.9258 27.8114C25.8343 27.9634 25.808 28.1417 25.8504 28.3132C25.8932 28.4847 26.0009 28.6296 26.1531 28.721L27.1938 29.3452L31.5007 31.9292C31.6788 32.0362 31.7365 32.2671 31.6296 32.4454C31.5226 32.6233 31.292 32.6812 31.1134 32.5743L26.7565 29.9603C26.4431 29.7718 26.0351 29.8741 25.8466 30.1879C25.7552 30.3401 25.7288 30.5184 25.7712 30.6899C25.8141 30.8615 25.9218 31.0061 26.0742 31.0978L27.1424 31.7386L30.4311 33.7117C30.6092 33.8187 30.6669 34.0496 30.56 34.2279C30.453 34.4058 30.2223 34.4642 30.0438 34.3568L26.7551 32.3837C26.6033 32.2927 26.4255 32.2659 26.253 32.309C26.0815 32.3519 25.9364 32.4593 25.8452 32.6112C25.754 32.7634 25.7274 32.942 25.7698 33.1133C25.8127 33.2848 25.9204 33.4295 26.0728 33.5211L32.7398 37.5206C33.8217 38.1697 35.0694 38.3944 36.2516 38.1532C37.4216 37.9143 38.388 37.2459 38.9728 36.271C39.9178 34.6967 39.7818 32.909 38.6097 31.4891L38.6093 31.4891Z" fill="#103E13"/>
</svg>
