<svg width="48" height="48" viewBox="0 0 48 48" fill="none" xmlns="http://www.w3.org/2000/svg">
<g clip-path="url(#clip0_3_1691)">
<path d="M44.9973 13.411C44.9973 13.4448 44.9973 13.4871 44.9885 13.5125C44.9444 13.8421 44.9444 14.1718 44.9708 14.51C44.9885 14.5945 45.006 14.679 45.0765 14.7467C45.191 14.8735 45.3671 14.8481 45.4376 14.6959C45.4729 14.6199 45.4729 14.5438 45.4552 14.4677C45.3671 14.1465 45.3495 13.8083 45.3408 13.4786C45.3408 13.4617 45.3408 13.4364 45.3408 13.411C45.4376 13.4026 45.5257 13.3941 45.605 13.3941C45.6667 13.3857 45.7195 13.3772 45.7636 13.3518C45.8956 13.2842 45.8956 13.1405 45.7547 13.0729C45.7018 13.0475 45.6314 13.0391 45.5698 13.0391C45.3496 13.0475 45.1294 13.0475 44.9092 13.0475C44.8299 13.0475 44.7506 13.056 44.6713 13.0644C44.6273 13.0729 44.5745 13.0729 44.5393 13.0982C44.4776 13.1236 44.4424 13.1659 44.4424 13.225C44.4512 13.2842 44.4776 13.318 44.5393 13.3434C44.5745 13.3688 44.6185 13.3772 44.6625 13.3772C44.7682 13.3857 44.8828 13.4026 44.9973 13.411ZM47.4194 13.7999C47.4194 13.8083 47.4282 13.8168 47.4282 13.8168C47.4634 14.045 47.4987 14.2648 47.525 14.4846C47.5339 14.5607 47.5427 14.6283 47.5955 14.6875C47.71 14.8312 47.8862 14.8143 47.9654 14.6621C48.0007 14.586 48.0095 14.51 47.9919 14.4254C47.939 14.1718 47.9126 13.9182 47.8598 13.6731C47.8245 13.5209 47.7805 13.3772 47.7365 13.242C47.71 13.1574 47.6484 13.0982 47.5427 13.0898C47.437 13.0729 47.3577 13.1236 47.3137 13.1997C47.2608 13.2673 47.2168 13.3349 47.1815 13.411C47.1199 13.5463 47.0671 13.6815 46.9966 13.8083C46.9878 13.8421 46.979 13.8675 46.9614 13.8929C46.9526 13.876 46.9438 13.8675 46.9438 13.8675C46.8292 13.6562 46.7236 13.4448 46.6091 13.242C46.5914 13.225 46.5826 13.2081 46.5738 13.1912C46.521 13.1151 46.4594 13.0729 46.3625 13.0729C46.2744 13.0813 46.2039 13.1321 46.1599 13.2081C46.1422 13.242 46.1422 13.2673 46.1334 13.3011C46.0982 13.5716 46.0541 13.8421 46.019 14.1127C46.0013 14.2648 45.9925 14.417 45.9925 14.5691C45.9837 14.603 45.9925 14.6452 46.0101 14.679C46.0278 14.7467 46.0806 14.7889 46.151 14.7974C46.2391 14.8058 46.3008 14.7805 46.3272 14.7129C46.3536 14.6621 46.3625 14.6199 46.3713 14.5776C46.4065 14.4254 46.4329 14.2817 46.4594 14.138C46.4769 14.0535 46.4857 13.9859 46.5122 13.8929C46.5298 13.9267 46.5474 13.952 46.565 13.9774C46.6443 14.0788 46.7236 14.1803 46.8204 14.2648C46.9173 14.3324 46.9966 14.324 47.0759 14.2479C47.0935 14.231 47.1023 14.2226 47.1199 14.2056C47.1992 14.0873 47.2961 13.9689 47.3753 13.8506C47.393 13.8337 47.4018 13.8168 47.4194 13.7999Z" fill="#3A3B7B"/>
<path d="M27.1247 13.5774C27.0634 13.738 27.0518 13.8538 27.08 13.95C27.1113 14.0808 27.1923 14.1236 27.3023 14.0903C28.3368 13.8448 30.6054 14.5417 31.4453 14.736C31.6433 14.7767 31.8045 14.5313 31.6693 14.3113C31.472 14.0982 29.2045 13.1859 28.3393 13.1362C28.0002 13.1178 27.3939 13.0343 27.1247 13.5774Z" fill="#3A3B7B"/>
<path d="M35.9906 10.6246C36.1008 10.6857 36.1625 10.7439 36.1929 10.809C36.2382 10.8944 36.2143 10.9535 36.1382 10.9837C35.4543 11.304 34.5443 12.6831 34.177 13.1587C34.088 13.2681 33.8826 13.2045 33.8516 13.0246C33.8579 12.8212 34.6646 11.3245 35.1148 10.9169C35.2917 10.7578 35.584 10.4455 35.9906 10.6246Z" fill="#3A3B7B"/>
<path d="M30.5454 9.94492C30.6779 9.8491 30.8156 9.81553 30.8859 9.8778C31.9176 10.7247 32.4648 12.0658 32.8036 13.2936C32.8163 13.3222 32.8171 13.3633 32.8069 13.4061C32.8027 13.4427 32.7748 13.4813 32.7306 13.5113C32.6833 13.5443 32.6426 13.5543 32.6235 13.5259C32.1713 12.9356 29.5885 10.6387 30.5454 9.94492Z" fill="#3A3B7B"/>
<path d="M8.69573 24.6285C8.94302 24.4518 9.21186 24.3047 9.49634 24.1905C9.79399 24.1089 10.1112 24.1224 10.4002 24.2291C10.689 24.3359 10.9339 24.53 11.0976 24.7822C11.244 25.0337 11.3013 25.3241 11.2609 25.6096C11.2204 25.8951 11.0845 26.1602 10.8734 26.3651C10.7097 26.5312 10.524 26.6759 10.321 26.7954C9.41631 27.3564 8.50357 27.8866 7.59088 28.4475C7.40412 28.5879 7.206 28.7139 6.99841 28.8241C6.68266 28.9752 6.32181 29.0157 5.97825 28.9385C5.63469 28.8614 5.33003 28.6713 5.11696 28.4014C4.95768 28.2103 4.82325 28.0013 4.71665 27.779C3.85199 26.0347 2.9553 24.2981 2.12265 22.523C1.73835 21.7546 1.42612 20.8709 1.12188 20.018C0.990255 19.7702 0.964552 19.4829 1.05024 19.2171C1.13594 18.9514 1.32626 18.7282 1.58074 18.5951C1.83522 18.462 2.13376 18.4294 2.41289 18.5043C2.69201 18.5791 2.9297 18.7556 3.07538 18.996C3.52319 19.5672 3.9196 20.1739 4.2603 20.8095C5.12497 22.3463 5.94961 23.8831 6.78225 25.3738C6.83073 25.4562 6.88419 25.5357 6.94237 25.612C7.56907 25.3592 8.15852 25.0285 8.69573 24.6285Z" fill="#3A3B7B"/>
<path d="M17.6357 24.0924C15.6582 26.313 12.3437 25.7521 10.6784 22.8936C9.49344 20.865 9.2853 17.5147 11.8633 15.4016C12.4138 14.9592 13.0721 14.6578 13.7768 14.5256C14.6407 14.4067 15.5218 14.553 16.2939 14.9435C17.0661 15.3341 17.6898 15.9489 18.0761 16.7002C19.4852 19.1591 19.285 22.2942 17.6357 24.0924ZM16.8351 18.9132C16.625 18.309 16.2036 17.7931 15.6422 17.4532C15.3245 17.2359 14.9385 17.1302 14.5492 17.154C14.1599 17.1778 13.791 17.3296 13.5046 17.5838C12.3597 18.5597 12.1195 20.8727 12.9521 22.2482C13.0583 22.4724 13.2141 22.6717 13.4089 22.8322C13.6037 22.9926 13.8326 23.1102 14.0797 23.1768C14.3268 23.2434 14.586 23.2574 14.8394 23.2178C15.0927 23.1781 15.3339 23.0859 15.5462 22.9474C16.1668 22.4856 16.6221 21.8497 16.8487 21.1281C17.0755 20.4065 17.0623 19.635 16.8111 18.9209L16.8351 18.9132Z" fill="#3A3B7B"/>
<path d="M25.706 19.882C25.5036 19.9238 25.2944 19.9263 25.0909 19.8893C24.8875 19.8523 24.6937 19.7767 24.5212 19.6668C24.3702 19.5839 24.2402 19.47 24.1405 19.3331C24.041 19.1962 23.9742 19.0398 23.9451 18.8752C23.916 18.7106 23.9253 18.5419 23.9723 18.3811C24.0193 18.2204 24.1029 18.0716 24.2169 17.9456C24.4157 17.6922 24.6978 17.5108 25.0175 17.4307C25.8523 17.1982 26.7117 17.0564 27.5795 17.0081C27.7702 16.9868 27.9634 17.0023 28.1477 17.0537C28.332 17.1051 28.5038 17.1912 28.653 17.3072C28.8021 17.4232 28.9257 17.5666 29.0163 17.729C29.1069 17.8914 29.1628 18.0695 29.1807 18.253C29.4309 19.1539 29.4583 20.0986 29.2608 21.0116C28.5403 23.9623 26.0583 24.9765 23.2722 24.0314C22.4901 23.7787 21.8044 23.3079 21.3027 22.679C20.6335 21.9217 20.1591 21.0242 19.9176 20.0587C19.7219 19.1989 19.7433 18.3068 19.9801 17.4566C20.2169 16.6065 20.6621 15.823 21.2786 15.1716C21.8637 14.4636 22.6231 13.9065 23.4884 13.5503C24.0351 13.261 24.6749 13.1788 25.2818 13.3197C25.4194 13.3563 25.5443 13.4275 25.6436 13.5261C25.743 13.6246 25.813 13.7469 25.8465 13.8801C25.88 14.0134 25.8757 14.1529 25.8341 14.284C25.7925 14.4152 25.7152 14.5333 25.61 14.626C25.4101 14.7997 25.1929 14.9542 24.9615 15.0871C24.2497 15.5221 23.6303 16.0827 23.1361 16.7392C22.8121 17.1639 22.589 17.6517 22.4825 18.1681C22.3759 18.6845 22.3886 19.2171 22.5196 19.7283C22.7012 20.4254 23.1041 21.0511 23.6725 21.5187C25.4338 23.0556 27.7236 21.5725 27.3233 19.4747C26.7389 19.6131 26.2265 19.759 25.706 19.882Z" fill="#3A3B7B"/>
<path d="M36.4666 24.2156C33.8646 25.7524 30.9024 24.2156 30.2538 20.9883C29.7815 18.683 30.6782 15.4557 33.8166 14.2262C34.4844 13.9703 35.2086 13.8804 35.9222 13.9649C36.7796 14.1156 37.5661 14.5207 38.1708 15.1231C38.7755 15.7256 39.168 16.495 39.2928 17.3229C39.8212 20.0661 38.6203 22.9938 36.4666 24.2156ZM37.3714 19.0441C37.3706 18.4058 37.1353 17.7881 36.7069 17.2999C36.4778 16.9979 36.1468 16.7815 35.7701 16.6876C35.3933 16.5937 34.9944 16.6281 34.6412 16.785C33.2321 17.369 32.2394 19.4898 32.5997 21.0498C32.6272 21.2945 32.71 21.5306 32.8425 21.7415C32.975 21.9523 33.1539 22.1328 33.3666 22.2705C33.5793 22.408 33.8209 22.4994 34.0742 22.5381C34.3276 22.5767 34.5867 22.5618 34.8334 22.4944C35.5782 22.2446 36.2231 21.7779 36.6781 21.1594C37.1331 20.5408 37.3755 19.8013 37.3714 19.0441Z" fill="#3A3B7B"/>
<path d="M41.9242 24.8609C41.8849 25.1421 41.7308 25.3969 41.4958 25.5691C41.2608 25.7413 40.9642 25.8169 40.6712 25.7792C40.3782 25.7415 40.1128 25.5936 39.9334 25.368C39.7539 25.1425 39.6752 24.8578 39.7145 24.5766C39.7538 24.2953 39.9078 24.0406 40.1428 23.8684C40.3778 23.6962 40.6744 23.6206 40.9674 23.6583C41.2604 23.696 41.5259 23.8439 41.7053 24.0694C41.8847 24.295 41.9635 24.5797 41.9242 24.8609ZM41.2276 14.495C41.3799 14.2718 41.6033 14.1018 41.8645 14.0104C42.1256 13.919 42.4105 13.9111 42.6768 13.9878C42.9474 14.0528 43.1865 14.2051 43.3542 14.4191C43.5217 14.6331 43.6076 14.8959 43.5975 15.1635C43.5622 15.5927 43.4953 16.0189 43.3973 16.4391C43.1331 17.8606 42.8769 19.2822 42.5967 20.6884C42.4686 21.2494 42.3005 21.7872 42.1163 22.3558C42.0523 22.5336 41.9452 22.6942 41.8041 22.8246C41.7163 22.9227 41.6043 22.9979 41.4782 23.0433C41.3521 23.0888 41.2161 23.1029 41.0828 23.0845C40.9496 23.0661 40.8232 23.0158 40.7156 22.9381C40.6079 22.8604 40.5225 22.758 40.4671 22.6402C40.3719 22.4289 40.3202 22.2018 40.3149 21.9717C40.3149 21.0188 40.3149 20.0583 40.379 19.0978C40.4878 17.727 40.7019 16.3657 41.0195 15.0252C41.0569 14.8456 41.1273 14.6738 41.2276 14.518V14.495Z" fill="#3A3B7B"/>
<path fill-rule="evenodd" clip-rule="evenodd" d="M5.31288 31.0356C5.21835 31.2382 5.19242 31.464 5.23862 31.6813C5.26935 31.9677 5.33685 32.2495 5.43958 32.5201C5.56783 32.8515 5.71135 33.1792 5.88831 33.5831C5.92901 33.676 5.97154 33.773 6.01604 33.8751C6.25468 34.4223 6.55411 35.1216 6.95351 36.1336C7.06655 36.4211 7.16694 36.711 7.26803 37.0028C7.30887 37.1207 7.34985 37.2391 7.3918 37.3576C7.54217 37.7792 7.80092 38.1579 8.14388 38.458C8.28951 38.623 8.48268 38.7432 8.69929 38.8033C8.92012 38.8646 9.15499 38.8607 9.37347 38.7922C9.59195 38.7236 9.78385 38.5935 9.92424 38.4188C10.0619 38.2475 10.1437 38.041 10.1596 37.8254C10.2489 37.4053 10.2185 36.9697 10.0713 36.5647C9.83769 35.8922 9.57161 35.2187 9.26476 34.56L9.26335 34.5571C8.75857 33.5266 8.24547 32.5032 7.70808 31.4793L7.70406 31.4721C7.54675 31.2054 7.3423 30.9669 7.09992 30.7675C6.94256 30.5895 6.72551 30.4694 6.48581 30.428C6.241 30.3858 5.98852 30.4283 5.77343 30.5482C5.56996 30.6597 5.40867 30.8304 5.31288 31.0356Z" fill="#3A3B7B"/>
<path fill-rule="evenodd" clip-rule="evenodd" d="M13.0229 28.498C12.2314 28.3013 11.4048 28.2726 10.6007 28.414C9.97786 28.4729 9.36531 28.6108 8.93996 28.8839C8.72363 29.0229 8.54872 29.2014 8.45143 29.4282C8.3536 29.6564 8.34111 29.9172 8.42128 30.2079C8.56765 30.7403 8.75774 31.2579 8.94715 31.7739L8.97783 31.8575L8.97857 31.8594C9.54888 33.3584 10.1246 34.8524 10.7056 36.3412C10.7734 36.5758 10.8692 36.8022 10.9911 37.0156L10.9934 37.0196C11.1545 37.2848 11.3611 37.522 11.6045 37.7213C11.7262 37.8308 11.8767 37.9066 12.0399 37.9405C12.2048 37.9746 12.3762 37.9647 12.5355 37.9117C12.6949 37.8588 12.8361 37.7649 12.9436 37.6402C13.0494 37.5175 13.1187 37.3698 13.1442 37.2125C13.2492 36.7853 13.2156 36.3374 13.0477 35.9291C12.9953 35.7916 12.9542 35.6512 12.9109 35.5033C12.8965 35.454 12.8819 35.4039 12.8664 35.3528C14.1963 34.8539 15.6113 34.183 16.1089 32.6223C16.3038 32.0829 16.32 31.4989 16.1554 30.9503C15.9906 30.4011 15.6526 29.9143 15.1878 29.5569C14.5553 29.0566 13.8163 28.6952 13.0229 28.498ZM10.829 30.4123C10.8551 30.4051 10.8815 30.3984 10.908 30.3921C11.7738 30.2615 12.6596 30.4355 13.4023 30.8821C13.7297 31.1006 13.8637 31.3434 13.8868 31.5769C13.9105 31.8174 13.8194 32.0781 13.6364 32.3286C13.2906 32.8018 12.6594 33.1806 12.0893 33.2512C11.6737 32.3325 11.2516 31.3767 10.829 30.4123Z" fill="#3A3B7B"/>
<path d="M18.2993 26.8168C19.2419 26.399 20.4094 26.3268 21.3231 26.6206C21.5532 26.6849 21.7528 26.824 21.8878 27.0142C22.0219 27.2032 22.0839 27.4309 22.0632 27.6585C22.0618 27.8063 22.024 27.9517 21.9529 28.0828C21.8805 28.2164 21.7757 28.3312 21.6474 28.4177C21.519 28.5041 21.3708 28.5596 21.2154 28.5795C21.0599 28.5994 20.9017 28.583 20.7542 28.5318L20.743 28.5279L20.7325 28.5226C20.657 28.4847 20.5768 28.4562 20.4939 28.4376L20.4887 28.4364C19.846 28.2726 19.2397 28.5441 19.0183 28.8776C18.9127 29.0367 18.8996 29.1972 18.9876 29.3433C19.0818 29.4997 19.3128 29.6752 19.7803 29.8003C19.9089 29.8342 20.0407 29.8669 20.1744 29.9001C20.5441 29.992 20.9283 30.0874 21.2998 30.2197L21.3012 30.2202C23.0151 30.8461 23.6533 32.1423 23.4348 33.3615C23.2186 34.5672 22.1695 35.6644 20.5919 35.9233C20.0178 36.0454 19.4204 36.0216 18.8587 35.8542C18.2957 35.6864 17.7881 35.3801 17.3865 34.9657L17.3761 34.9549C17.2493 34.7987 17.164 34.6153 17.1262 34.4207C17.0914 34.245 17.1098 34.0635 17.1789 33.8975C17.2477 33.7324 17.364 33.5896 17.514 33.4855C17.6726 33.3676 17.8637 33.2968 18.0637 33.282C18.263 33.2673 18.4625 33.3089 18.6375 33.4016C18.8124 33.4826 18.975 33.5861 19.121 33.709L19.1237 33.7113C19.382 33.9379 19.6944 33.997 19.994 33.9423C20.2979 33.8868 20.5837 33.7142 20.7676 33.4851C20.9502 33.2576 21.0235 32.9872 20.9365 32.7248C20.849 32.4604 20.5857 32.1642 20.0073 31.9166C19.8561 31.855 19.6993 31.8053 19.5362 31.7569C19.4922 31.7438 19.4475 31.7308 19.4022 31.7177C19.2816 31.6825 19.1576 31.6463 19.0359 31.6065C18.9521 31.5791 18.869 31.5531 18.7867 31.5273C18.5617 31.457 18.3423 31.3884 18.1312 31.2965C17.6718 31.1464 17.2748 30.8581 16.9995 30.4743C16.723 30.089 16.5838 29.6282 16.6028 29.1608C16.6043 28.0217 17.3518 27.2369 18.2993 26.8168Z" fill="#3A3B7B"/>
<path d="M30.2489 26.6955C30.0661 26.6098 29.864 26.5692 29.6608 26.5772C29.4576 26.5852 29.2597 26.6416 29.0849 26.7415C28.9112 26.8406 28.7658 26.9794 28.6616 27.1456C28.566 27.2855 28.4999 27.4419 28.4669 27.6063C28.4339 27.7704 28.4347 27.9392 28.4692 28.103C28.5032 28.3135 28.541 28.5182 28.5782 28.7201C28.6399 29.0541 28.7 29.3807 28.7396 29.7137L28.741 29.7221C28.8312 30.2443 28.8784 30.7725 28.8827 31.3017L28.8831 31.3092C28.9139 31.8808 28.711 32.4412 28.3178 32.8716L28.3116 32.8793C28.1837 33.0366 28.0127 33.1567 27.8176 33.2261C27.6226 33.2955 27.4114 33.3114 27.2075 33.2721C27.0036 33.2329 26.8151 33.1399 26.6631 33.0037C26.5111 32.8675 26.4015 32.6928 26.3467 32.5003C26.2299 32.0945 26.1623 31.6771 26.1451 31.2564L26.3447 28.2073C26.3476 28.1675 26.351 28.1266 26.3544 28.0854C26.362 27.9927 26.3698 27.8984 26.373 27.8104C26.3777 27.681 26.3737 27.5479 26.3422 27.4218C26.3101 27.2931 26.2489 27.1705 26.1404 27.0662C26.033 26.9629 25.8879 26.8867 25.7055 26.8349C25.3754 26.7432 25.0964 26.7461 24.8639 26.8408C24.6312 26.9355 24.4718 27.1113 24.359 27.3145C24.2471 27.5159 24.1752 27.7544 24.1208 27.9932C24.0805 28.1704 24.048 28.3565 24.0172 28.5336C24.0065 28.5946 23.9961 28.6545 23.9856 28.7127L23.9853 28.7145C23.8204 29.6857 23.7713 30.6718 23.839 31.6537C23.8516 32.1844 23.9669 32.7082 24.1791 33.1983C24.4185 33.8308 24.852 34.3787 25.4225 34.7699C25.9942 35.1619 26.6765 35.3779 27.3789 35.3893C28.0814 35.4007 28.7709 35.207 29.3561 34.8338C29.9404 34.4613 30.3932 33.9273 30.6546 33.3025C31.0203 32.5067 31.1921 31.6411 31.1566 30.7719C31.1352 30.1374 31.0992 29.4979 31.0634 28.8617C31.0458 28.5496 31.0283 28.2382 31.0126 27.9287C31.0046 27.6183 30.898 27.3177 30.7069 27.0672C30.5887 26.9088 30.4313 26.7811 30.2489 26.6955Z" fill="#3A3B7B"/>
<path d="M36.718 31.4758C36.6994 31.4984 36.6799 31.5218 36.6595 31.5461C36.5108 30.723 36.3731 29.9002 36.2351 29.0762C36.1856 28.7805 36.1358 28.4836 36.0858 28.1875L36.0802 28.1545L36.0619 28.1259C36.0275 28.0722 36.0241 28.0196 36.0241 27.9073V27.8943L36.022 27.8814C35.9846 27.6495 35.8753 27.4336 35.7084 27.2621C35.5418 27.0911 35.3256 26.9721 35.0877 26.9204C34.8502 26.8642 34.6006 26.8766 34.3704 26.9561C34.1408 27.0353 33.9406 27.1778 33.7949 27.3657C33.6738 27.5098 33.5745 27.6697 33.5001 27.8406C33.3312 28.2086 33.1609 28.5775 32.9901 28.9475L32.9871 28.9539C32.5607 29.8775 32.1314 30.8073 31.7146 31.7443L31.7133 31.7474C31.4574 32.355 31.2462 32.9952 31.0357 33.6335C30.9936 33.7609 30.9516 33.8882 30.9092 34.0152C30.8332 34.2167 30.8 34.4306 30.8114 34.6445C30.7976 34.8359 30.8453 35.027 30.9483 35.1917C31.0533 35.3597 31.2107 35.4919 31.398 35.5698C31.5967 35.6534 31.8187 35.6711 32.0291 35.6202C32.2389 35.5694 32.4253 35.4531 32.5589 35.2897C32.7294 35.0883 32.8761 34.8687 32.9958 34.636C33.3489 33.9428 33.6863 33.2411 34.0223 32.5425C34.1522 32.2723 34.2785 32.0303 34.4222 31.7667C34.4321 31.7992 34.4422 31.8309 34.4526 31.8627C34.6032 32.499 34.8574 33.1085 35.2058 33.6689C35.2717 33.7876 35.3636 33.8913 35.475 33.973C35.5878 34.0557 35.718 34.1136 35.8565 34.1431C35.9951 34.1726 36.1386 34.1727 36.2772 34.1435C36.4156 34.1144 36.5462 34.0563 36.659 33.9741L36.8824 33.8136L38.6162 32.4119L38.5137 33.039C38.373 33.901 38.2333 34.7559 38.0849 35.6109C37.9878 35.9899 37.988 36.3857 38.0853 36.7646C38.1275 36.9778 38.2349 37.1741 38.3939 37.3284C38.5543 37.484 38.7596 37.5898 38.9833 37.6319C39.207 37.6741 39.4388 37.6507 39.6485 37.5648C39.8552 37.4803 40.0309 37.3388 40.1538 37.1586C40.4397 36.8182 40.6176 36.406 40.6665 35.9712C40.7401 35.3572 40.8232 34.7348 40.9064 34.1127C41.0022 33.3955 41.098 32.6785 41.1789 31.9754L41.1792 31.9732C41.2571 31.2034 41.2948 30.4305 41.2922 29.6571C41.3092 29.4128 41.2458 29.1693 41.1107 28.9612C40.9752 28.7524 40.7744 28.5901 40.5371 28.4972C40.2903 28.3895 40.014 28.3607 39.7489 28.4151C39.4855 28.4692 39.247 28.6025 39.0682 28.7955C38.7484 29.0794 38.4484 29.3832 38.1701 29.7049L38.1682 29.707C37.8644 30.0704 37.5626 30.4409 37.2628 30.809C37.0805 31.0327 36.8988 31.256 36.718 31.4758Z" fill="#3A3B7B"/>
</g>
<defs>
<clipPath id="clip0_3_1691">
<rect width="47" height="29" fill="white" transform="translate(1.00049 9.84619)"/>
</clipPath>
</defs>
</svg>
