<svg width="48" height="48" viewBox="0 0 48 48" fill="none" xmlns="http://www.w3.org/2000/svg">
<g clip-path="url(#clip0_3_1681)">
<path fill-rule="evenodd" clip-rule="evenodd" d="M14.0005 3.99951C19.5233 3.99951 24.0005 8.47666 24.0005 13.9995V3.99951H34.0005C39.5233 3.99951 44.0005 8.47666 44.0005 13.9995C44.0005 19.5223 39.5233 23.9995 34.0005 23.9995C39.5233 23.9995 44.0005 28.4767 44.0005 33.9995C44.0005 36.7418 42.8966 39.2263 41.109 41.0329L41.0716 41.0706L41.0384 41.1036C39.2314 42.8938 36.7451 43.9995 34.0005 43.9995C31.2746 43.9995 28.8034 42.9088 26.9995 41.14C26.9761 41.117 26.9527 41.0938 26.9294 41.0706C26.9075 41.0487 26.8857 41.0267 26.864 41.0046C25.0929 39.2004 24.0005 36.7275 24.0005 33.9995C24.0005 39.5223 19.5233 43.9995 14.0005 43.9995C8.47764 43.9995 4.00049 39.5223 4.00049 33.9995V23.9995H14.0005C8.47764 23.9995 4.00049 19.5223 4.00049 13.9995C4.00049 8.47666 8.47764 3.99951 14.0005 3.99951ZM22.0005 13.9995C22.0005 18.4178 18.4188 21.9995 14.0005 21.9995V5.99951C18.4188 5.99951 22.0005 9.58123 22.0005 13.9995ZM42.0005 33.9995C42.0005 29.5812 38.4188 25.9995 34.0005 25.9995C29.5822 25.9995 26.0005 29.5812 26.0005 33.9995H42.0005ZM6.00049 25.9995V33.9995C6.00049 38.4178 9.58221 41.9995 14.0005 41.9995C18.4188 41.9995 22.0005 38.4178 22.0005 33.9995V25.9995H6.00049ZM26.0005 21.9995V5.99951H34.0005C38.4188 5.99951 42.0005 9.58123 42.0005 13.9995C42.0005 18.4178 38.4188 21.9995 34.0005 21.9995H26.0005Z" fill="#263238"/>
</g>
<defs>
<clipPath id="clip0_3_1681">
<rect width="40" height="40" fill="white" transform="translate(4.00049 3.99951)"/>
</clipPath>
</defs>
</svg>
