<svg width="55" height="48" viewBox="0 0 55 48" fill="none" xmlns="http://www.w3.org/2000/svg">
<g clip-path="url(#clip0_3_1687)">
<path d="M54.9952 19.5163C55.001 19.4746 55.001 19.4325 54.9952 19.3908C55.0007 19.3568 55.0007 19.3222 54.9952 19.2881L54.5878 16.3555C54.529 16.0046 54.3718 15.6767 54.1339 15.4083L54.064 15.3285L53.936 15.2029L46.8824 9.24635L47.0803 9.44036C46.9184 9.25047 46.7152 9.09859 46.4856 8.9959C46.256 8.89321 46.0057 8.84232 45.7534 8.84698H43.6117C43.2634 8.84021 42.9231 8.94877 42.6456 9.15508C42.3542 8.95001 42.0033 8.84201 41.6446 8.84698H39.5029C39.222 8.84251 38.9449 8.91085 38.6996 9.04511C38.4544 9.17936 38.2496 9.37476 38.1062 9.61151C37.885 9.94967 37.8018 10.3571 37.8733 10.7526L38.1411 12.6012C37.9637 12.5026 37.763 12.4515 37.5591 12.4529H27.1882C26.8161 12.4552 26.4526 12.5621 26.1406 12.761C25.839 12.9461 25.5968 13.2111 25.4423 13.5255L24.6391 12.8523C24.323 12.5655 23.9058 12.4101 23.4752 12.4186H7.20304C6.82963 12.4253 6.46452 12.5276 6.14387 12.7153C5.7052 12.967 5.38372 13.3763 5.2476 13.8564L0.0796284 30.8019C-0.0169335 31.0811 -0.0264325 31.3822 0.0523479 31.6668C0.131128 31.9513 0.29462 32.2064 0.521938 32.3995C0.58117 32.4487 0.643363 32.4944 0.708175 32.5363C0.708175 32.5363 0.603403 32.4679 0.545204 32.4109L7.59882 38.3788C7.89721 38.6482 8.28732 38.7987 8.69287 38.801H25.0931C25.4676 38.7915 25.833 38.6852 26.1523 38.4929C26.3329 38.3962 26.4945 38.2687 26.6295 38.1163L26.6877 38.0365L26.7808 37.9224L26.8507 37.7968L27.6189 38.4473C27.913 38.7059 28.2946 38.8482 28.6897 38.8467H45.1248C45.4989 38.8345 45.8636 38.7284 46.184 38.5386C46.3605 38.4359 46.5212 38.3091 46.6613 38.162L46.7194 38.0821L46.8125 37.9681C46.862 37.8958 46.905 37.8195 46.9406 37.7398C46.9786 37.6706 47.0098 37.598 47.0337 37.523L51.7477 22.0496V21.9127C51.7535 21.8596 51.7535 21.806 51.7477 21.7529V21.6502C51.7534 21.6162 51.7534 21.5815 51.7477 21.5475C51.753 21.4753 51.753 21.4029 51.7477 21.3307H53.2609C53.3925 21.3425 53.525 21.3425 53.6566 21.3307H53.7614C53.8466 21.3058 53.9286 21.2713 54.0058 21.228H54.1223L54.3317 21.0682L54.4248 20.9998L54.5878 20.7943V20.7259L54.7042 20.5319C54.6977 20.4942 54.6977 20.4556 54.7042 20.4178C54.698 20.3993 54.698 20.3793 54.7042 20.3608C54.7289 20.2939 54.7484 20.2252 54.7624 20.1553C54.757 20.1328 54.757 20.1094 54.7624 20.0869C54.7567 20.0529 54.7567 20.0182 54.7624 19.9842C54.7624 19.9842 54.9952 19.5391 54.9952 19.5163Z" fill="black"/>
<path d="M23.9527 13.7201C24.0145 13.7749 24.0576 13.8469 24.0764 13.9265C24.0951 14.006 24.0885 14.0893 24.0575 14.1651L18.9012 31.0991C18.8362 31.284 18.7034 31.4386 18.5287 31.5328C18.3865 31.626 18.222 31.6811 18.0514 31.6925H1.66292C1.52296 31.6859 1.39036 31.6291 1.29045 31.5328C1.23101 31.4789 1.18929 31.4088 1.17063 31.3316C1.15197 31.2544 1.15722 31.1735 1.18569 31.0991L6.35367 14.1651C6.41322 13.9779 6.54188 13.8192 6.71449 13.7201C6.859 13.6335 7.02275 13.5826 7.19172 13.5717H23.5802C23.7191 13.573 23.8522 13.6261 23.9527 13.7201ZM15.3976 27.6872L18.4821 17.577H9.84557L6.77268 27.6872H15.3976ZM39.5963 13.8912C39.6522 13.9549 39.7221 14.0055 39.8007 14.039C39.8793 14.0726 39.9646 14.0884 40.0503 14.0852H42.1803C42.2614 14.086 42.3413 14.0665 42.4127 14.0286C42.4839 13.9906 42.5441 13.9355 42.5877 13.8684C42.6255 13.816 42.6522 13.7567 42.6662 13.6939C42.6802 13.6312 42.6812 13.5664 42.6691 13.5033L42.2501 10.4907C42.2102 10.3513 42.1386 10.2226 42.0407 10.1142C41.9847 10.0505 41.9148 9.99995 41.8362 9.96636C41.7576 9.93278 41.6723 9.917 41.5867 9.92019H39.4566C39.3755 9.91941 39.2955 9.93891 39.2243 9.97685C39.153 10.0148 39.0927 10.0699 39.0493 10.137C38.9678 10.2968 38.9328 10.3995 38.9678 10.4907L39.3984 13.5033C39.4205 13.65 39.4899 13.7859 39.5963 13.8912ZM46.3589 10.4679C46.319 10.3285 46.2473 10.1997 46.1494 10.0914C46.0958 10.0279 46.028 9.97737 45.9513 9.94373C45.8746 9.91009 45.791 9.89422 45.7071 9.89736H43.5654C43.4856 9.89514 43.4067 9.91411 43.3371 9.95228C43.2674 9.99045 43.2096 10.0464 43.1697 10.1142C43.0922 10.2154 43.0587 10.3426 43.0766 10.4679L43.5072 13.4804C43.5342 13.6256 43.6028 13.7602 43.7051 13.8684C43.762 13.9309 43.8321 13.9805 43.9104 14.014C43.9888 14.0475 44.0735 14.064 44.159 14.0624H46.3007C46.3803 14.0634 46.4587 14.0439 46.5281 14.0059C46.5976 13.9678 46.6557 13.9126 46.6965 13.8456C46.737 13.7945 46.7652 13.7352 46.7794 13.6721C46.7935 13.6089 46.793 13.5434 46.7779 13.4804L46.3589 10.4679ZM37.7223 15.0323L37.5128 13.5489H27.1885C27.0264 13.5577 26.8696 13.6089 26.7345 13.6972C26.6488 13.7431 26.5742 13.8066 26.5159 13.8834C26.4577 13.9603 26.4171 14.0486 26.3971 14.1423L25.5357 16.9722C25.5013 17.0429 25.4896 17.1223 25.502 17.1997C25.5145 17.2771 25.5506 17.3489 25.6055 17.4059C25.7037 17.4963 25.8318 17.549 25.9664 17.5542H38.5139L35.4294 27.6644H22.9168C22.7554 27.668 22.5983 27.7154 22.4629 27.8013C22.2983 27.9038 22.178 28.0623 22.1253 28.2464L21.2523 31.0763C21.2238 31.1489 21.2164 31.2278 21.2307 31.3043C21.2452 31.3809 21.2808 31.452 21.3338 31.5099C21.4289 31.6064 21.558 31.6636 21.6946 31.6697H38.1297C38.2997 31.6553 38.4635 31.6005 38.6069 31.5099C38.7788 31.4153 38.9077 31.2604 38.9678 31.0763L43.6934 15.6029H38.3741C38.2897 15.6045 38.2059 15.5892 38.1279 15.5578C38.0498 15.5264 37.9791 15.4796 37.9202 15.4203C37.824 15.3168 37.7559 15.1913 37.7223 15.0552V15.0323Z" fill="white"/>
</g>
<defs>
<clipPath id="clip0_3_1687">
<rect width="55" height="30" fill="white" transform="translate(-0.000488281 8.84668)"/>
</clipPath>
</defs>
</svg>
