<svg width="191" height="30" viewBox="0 0 191 30" fill="none" xmlns="http://www.w3.org/2000/svg">
<path d="M23.2261 16.2381L16.5611 27.653L9.89623 16.2381H23.2261ZM25.0116 15.2179H8.10352L16.5611 29.672L25.0116 15.2179Z" fill="white"/>
<path d="M34.8136 2.04065L41.4785 13.4555H28.1487L34.8136 2.04065ZM34.8136 0.000244141L26.356 14.4543H43.2712L34.8136 0.000244141Z" fill="white"/>
<path d="M0 0.000244141L7.09143 12.7849L14.8406 0.321269L0 0.000244141Z" fill="#4CAF4F"/>
<path d="M16.5612 1.12012L23.9997 13.8334H9.1084L16.5612 1.12012Z" fill="#4CAF4F"/>
<path d="M25.9151 16.6091L33.3607 29.6721H18.1152L25.6837 16.6091H25.9151Z" fill="#4CAF4F"/>
<path d="M27.5273 15.8171L34.8139 28.6802L42.2017 15.8171H27.5273Z" fill="#4CAF4F"/>
<path d="M74.22 2.0636V27.2396H69.6224L58.6694 11.394H58.485V27.2396H53.1621V2.0636H57.8334L68.7004 17.897H68.9217V2.0636H74.22Z" fill="white"/>
<path d="M87.1245 27.6084C85.1823 27.6084 83.5104 27.215 82.109 26.4283C80.7158 25.6333 79.6422 24.5106 78.8882 23.06C78.1343 21.6012 77.7573 19.8761 77.7573 17.8847C77.7573 15.9424 78.1343 14.2377 78.8882 12.7708C79.6422 11.3038 80.7035 10.1606 82.0721 9.34104C83.4489 8.52151 85.0634 8.11175 86.9156 8.11175C88.1613 8.11175 89.3209 8.31253 90.3945 8.7141C91.4763 9.10748 92.4187 9.70164 93.2219 10.4966C94.0332 11.2915 94.6642 12.2914 95.115 13.4961C95.5657 14.6926 95.7911 16.094 95.7911 17.7003V19.1385H79.8471V15.8932H90.8616C90.8616 15.1392 90.6977 14.4713 90.3699 13.8894C90.0421 13.3076 89.5872 12.8527 89.0054 12.5249C88.4317 12.1889 87.7638 12.0209 87.0016 12.0209C86.2067 12.0209 85.5019 12.2053 84.8872 12.5741C84.2808 12.9347 83.8054 13.4223 83.4612 14.037C83.117 14.6434 82.9408 15.3195 82.9326 16.0653V19.1508C82.9326 20.0851 83.1047 20.8923 83.4489 21.5726C83.8013 22.2528 84.2972 22.7773 84.9364 23.1461C85.5756 23.5149 86.3337 23.6992 87.2106 23.6992C87.7925 23.6992 88.3252 23.6173 88.8087 23.4534C89.2922 23.2895 89.7061 23.0436 90.0503 22.7158C90.3945 22.388 90.6567 21.9864 90.837 21.5111L95.6805 21.8307C95.4346 22.9944 94.9306 24.0107 94.1684 24.8794C93.4145 25.7399 92.4392 26.4119 91.2427 26.8954C90.0544 27.3707 88.6817 27.6084 87.1245 27.6084Z" fill="white"/>
<path d="M103.247 8.3576L106.713 14.9589L110.266 8.3576H115.638L110.168 17.7986L115.786 27.2396H110.438L106.713 20.7121L103.05 27.2396H97.6412L103.247 17.7986L97.8379 8.3576H103.247Z" fill="white"/>
<path d="M126.603 27.6084C124.669 27.6084 123.006 27.1986 121.613 26.3791C120.227 25.5514 119.162 24.404 118.416 22.9371C117.679 21.4701 117.31 19.7819 117.31 17.8724C117.31 15.9383 117.683 14.2418 118.429 12.7831C119.183 11.3161 120.252 10.1729 121.637 9.35334C123.022 8.52561 124.669 8.11175 126.579 8.11175C128.226 8.11175 129.668 8.41087 130.906 9.00913C132.143 9.60739 133.123 10.4474 133.844 11.5292C134.565 12.611 134.963 13.8813 135.036 15.34H130.095C129.955 14.3976 129.587 13.6395 128.988 13.0658C128.398 12.4839 127.624 12.193 126.665 12.193C125.854 12.193 125.145 12.4143 124.538 12.8568C123.94 13.2912 123.473 13.9263 123.137 14.7622C122.801 15.5982 122.633 16.6103 122.633 17.7986C122.633 19.0033 122.797 20.0277 123.125 20.8719C123.461 21.716 123.932 22.3593 124.538 22.8019C125.145 23.2444 125.854 23.4657 126.665 23.4657C127.263 23.4657 127.8 23.3427 128.275 23.0969C128.759 22.851 129.156 22.4945 129.468 22.0274C129.787 21.5521 129.996 20.9825 130.095 20.3187H135.036C134.954 21.7611 134.561 23.0313 133.856 24.1295C133.16 25.2195 132.197 26.0718 130.967 26.6864C129.738 27.3011 128.283 27.6084 126.603 27.6084Z" fill="white"/>
<path d="M146.994 27.6084C145.052 27.6084 143.38 27.215 141.979 26.4283C140.586 25.6333 139.512 24.5106 138.758 23.06C138.004 21.6012 137.627 19.8761 137.627 17.8847C137.627 15.9424 138.004 14.2377 138.758 12.7708C139.512 11.3038 140.573 10.1606 141.942 9.34104C143.319 8.52151 144.933 8.11175 146.785 8.11175C148.031 8.11175 149.191 8.31253 150.264 8.7141C151.346 9.10748 152.289 9.70164 153.092 10.4966C153.903 11.2915 154.534 12.2914 154.985 13.4961C155.436 14.6926 155.661 16.094 155.661 17.7003V19.1385H139.717V15.8932H150.731C150.731 15.1392 150.568 14.4713 150.24 13.8894C149.912 13.3076 149.457 12.8527 148.875 12.5249C148.302 12.1889 147.634 12.0209 146.872 12.0209C146.077 12.0209 145.372 12.2053 144.757 12.5741C144.151 12.9347 143.675 13.4223 143.331 14.037C142.987 14.6434 142.811 15.3195 142.803 16.0653V19.1508C142.803 20.0851 142.975 20.8923 143.319 21.5726C143.671 22.2528 144.167 22.7773 144.806 23.1461C145.446 23.5149 146.204 23.6992 147.08 23.6992C147.662 23.6992 148.195 23.6173 148.679 23.4534C149.162 23.2895 149.576 23.0436 149.92 22.7158C150.264 22.388 150.527 21.9864 150.707 21.5111L155.55 21.8307C155.304 22.9944 154.8 24.0107 154.038 24.8794C153.284 25.7399 152.309 26.4119 151.113 26.8954C149.924 27.3707 148.552 27.6084 146.994 27.6084Z" fill="white"/>
<path d="M164.315 16.3235V27.2396H159.078V8.3576H164.069V11.689H164.291C164.709 10.5908 165.409 9.72212 166.393 9.08289C167.376 8.43546 168.569 8.11175 169.97 8.11175C171.281 8.11175 172.425 8.39858 173.4 8.97225C174.375 9.54593 175.133 10.3655 175.674 11.4309C176.215 12.488 176.485 13.7501 176.485 15.2171V27.2396H171.248V16.1514C171.257 14.9958 170.962 14.0943 170.363 13.4469C169.765 12.7913 168.941 12.4635 167.892 12.4635C167.188 12.4635 166.565 12.6151 166.024 12.9183C165.491 13.2215 165.073 13.6641 164.77 14.2459C164.475 14.8196 164.323 15.5121 164.315 16.3235Z" fill="white"/>
<path d="M190.656 8.3576V12.2914H179.285V8.3576H190.656ZM181.867 3.83379H187.103V21.4373C187.103 21.9209 187.177 22.2978 187.325 22.5683C187.472 22.8305 187.677 23.0149 187.939 23.1215C188.21 23.228 188.521 23.2813 188.874 23.2813C189.119 23.2813 189.365 23.2608 189.611 23.2198C189.857 23.1706 190.045 23.1338 190.177 23.1092L191 27.0061C190.738 27.088 190.369 27.1823 189.894 27.2888C189.419 27.4035 188.841 27.4732 188.161 27.4978C186.898 27.5469 185.792 27.3789 184.841 26.9938C183.899 26.6086 183.165 26.0103 182.641 25.199C182.116 24.3877 181.858 23.3632 181.867 22.1257V3.83379Z" fill="white"/>
</svg>
