<svg width="24" height="20" viewBox="0 0 24 20" fill="none" xmlns="http://www.w3.org/2000/svg">
<path fill-rule="evenodd" clip-rule="evenodd" d="M0 1.66667C0 0.746192 0.767512 0 1.71429 0H22.2857C23.2325 0 24 0.746192 24 1.66667C24 2.58714 23.2325 3.33333 22.2857 3.33333H1.71429C0.767512 3.33333 0 2.58714 0 1.66667ZM0 10C0 9.07953 0.767512 8.33333 1.71429 8.33333H22.2857C23.2325 8.33333 24 9.07953 24 10C24 10.9205 23.2325 11.6667 22.2857 11.6667H1.71429C0.767512 11.6667 0 10.9205 0 10ZM0 18.3333C0 17.4129 0.767512 16.6667 1.71429 16.6667H22.2857C23.2325 16.6667 24 17.4129 24 18.3333C24 19.2538 23.2325 20 22.2857 20H1.71429C0.767512 20 0 19.2538 0 18.3333Z" fill="black"/>
</svg>
