<svg width="442" height="434" viewBox="0 0 442 434" fill="none" xmlns="http://www.w3.org/2000/svg">
<path d="M376.369 433.13C376.369 433.275 304.601 433.399 216.1 433.399C127.599 433.399 55.8003 433.275 55.8003 433.13C55.8003 432.986 127.558 432.862 216.1 432.862C304.642 432.862 376.369 432.996 376.369 433.13Z" fill="#263238"/>
<path d="M306.441 306.606C290.473 295.454 286.855 274.753 287.486 256.139C287.589 253.038 287.248 249.752 288.726 247.033C290.204 244.315 293.656 242.444 296.436 243.747C298.741 244.832 299.743 247.519 301.035 249.741C302.759 252.701 305.285 255.112 308.322 256.697C310.296 257.73 312.745 258.35 314.698 257.276C317.386 255.798 317.696 252.108 317.675 249.007C317.675 243.24 317.641 237.48 317.572 231.727C317.386 228.637 317.7 225.538 318.502 222.549C319.463 219.614 321.602 216.896 324.527 216.069C327.452 215.242 331.1 216.947 331.762 219.965C331.876 221.244 331.907 222.528 331.855 223.81C331.938 225.102 332.537 226.518 333.746 226.911C334.956 227.303 336.216 226.404 337.147 225.495C340.33 222.394 342.5 218.353 344.516 214.364C346.531 210.374 348.505 206.271 351.399 202.871C354.293 199.47 358.293 196.773 362.768 196.515C367.243 196.256 371.904 199.005 373.02 203.346C374.136 207.687 371.604 212.121 368.886 215.645C364.784 220.877 359.949 225.489 354.53 229.339C353.473 229.917 352.629 230.819 352.122 231.913C351.451 233.98 353.404 236.047 355.44 236.698C357.745 237.463 360.246 237.225 362.675 237.515C365.103 237.804 367.687 238.858 368.607 241.132C369.868 244.294 367.222 247.602 364.628 249.772C359.419 254.113 353.504 257.528 347.141 259.87C344.867 260.697 342.48 261.43 340.64 263.022C338.8 264.614 337.705 267.394 338.811 269.575C339.916 271.755 342.759 272.448 345.146 272.003C347.534 271.559 349.652 270.277 351.926 269.42C356.174 267.818 361.651 268.107 364.328 271.776C365.158 273.04 365.683 274.479 365.862 275.98C366.041 277.481 365.87 279.003 365.362 280.427C364.327 283.26 362.735 285.857 360.68 288.064C353.911 296.152 345.116 302.297 335.193 305.872C325.344 309.283 316.218 310.213 306.43 306.626" fill="#4CAF4F"/>
<path d="M368.473 199.067C368.473 199.067 368.38 199.17 368.173 199.357L367.253 200.173C366.447 200.896 365.259 201.951 363.76 203.346C359.511 207.291 355.566 211.551 351.957 216.089C349.652 218.952 347.265 222.197 344.722 225.722C342.18 229.246 339.555 233.049 336.95 237.091C334.174 241.352 331.631 245.761 329.333 250.299C328.134 252.666 327.08 255.136 325.995 257.658L322.791 265.358C318.568 275.056 314.89 284.983 311.774 295.092C309.264 303.363 307.534 311.851 306.606 320.444C306.005 326.244 305.908 332.085 306.317 337.901C306.482 339.968 306.637 341.549 306.782 342.624C306.844 343.141 306.885 343.554 306.926 343.854V344.278C306.882 344.143 306.851 344.005 306.833 343.864C306.782 343.564 306.72 343.161 306.637 342.645C306.451 341.611 306.255 339.978 306.069 337.911C305.57 332.084 305.604 326.224 306.172 320.403C307.042 311.773 308.734 303.246 311.226 294.937C314.316 284.8 317.984 274.848 322.212 265.13L325.499 257.461C326.584 254.95 327.649 252.459 328.858 250.082C331.171 245.531 333.735 241.111 336.537 236.843C339.183 232.708 341.849 228.967 344.361 225.474C346.872 221.98 349.301 218.714 351.595 215.862C355.24 211.336 359.239 207.105 363.553 203.212C365.083 201.837 366.302 200.803 367.129 200.111L368.09 199.336C368.208 199.233 368.336 199.143 368.473 199.067Z" fill="#263238"/>
<path d="M328.992 250.062C328.846 249.636 328.746 249.196 328.692 248.749C328.527 247.891 328.341 246.682 328.124 245.111C327.679 242.01 327.225 237.763 326.739 233.06C326.253 228.357 325.705 224.099 325.251 221.03C325.013 219.5 324.806 218.27 324.662 217.412C324.549 216.973 324.49 216.522 324.486 216.069C324.664 216.483 324.792 216.917 324.868 217.361C325.096 218.208 325.354 219.428 325.643 220.968C326.232 224.068 326.811 228.285 327.297 232.998C327.783 237.711 328.196 241.845 328.517 245.059C328.672 246.506 328.806 247.736 328.909 248.718C328.99 249.161 329.017 249.612 328.992 250.062Z" fill="#263238"/>
<path d="M368.762 242.641C368.259 242.75 367.747 242.813 367.232 242.827C366.199 242.92 364.731 243.044 362.912 243.251C359.274 243.643 354.272 244.367 348.784 245.4C343.296 246.434 338.366 247.602 334.821 248.501C333.054 248.956 331.628 249.369 330.687 249.648C330.185 249.827 329.665 249.951 329.137 250.02C329.614 249.78 330.112 249.583 330.625 249.431C331.596 249.09 333.002 248.615 334.759 248.108C338.283 247.075 343.213 245.845 348.722 244.791C353.388 243.898 358.097 243.243 362.83 242.827C364.659 242.672 366.137 242.61 367.17 242.589C367.701 242.553 368.235 242.57 368.762 242.641Z" fill="#263238"/>
<path d="M311.732 294.214C311.622 294.064 311.532 293.901 311.463 293.728L310.781 292.292C310.192 291.041 309.396 289.191 308.446 286.928C306.523 282.38 304.074 276.014 301.469 268.944C298.865 261.875 296.467 255.508 294.648 250.909C293.759 248.677 293.025 246.847 292.478 245.483L291.899 244.005C291.819 243.835 291.763 243.654 291.733 243.468C291.844 243.617 291.934 243.781 292.002 243.954L292.684 245.39C293.263 246.641 294.069 248.491 295.02 250.754C296.942 255.302 299.392 261.668 301.996 268.738C304.601 275.807 306.999 282.173 308.818 286.773C309.706 289.005 310.44 290.834 310.978 292.199C311.215 292.788 311.412 293.232 311.567 293.677C311.647 293.847 311.703 294.028 311.732 294.214Z" fill="#263238"/>
<path d="M364.525 277.191C364.36 277.286 364.182 277.359 363.998 277.408L362.468 277.925L356.815 279.755C352.04 281.305 345.446 283.517 338.211 285.956C330.977 288.395 324.352 290.565 319.546 292.012C317.148 292.746 315.195 293.304 313.841 293.676L312.28 294.079C312.099 294.137 311.912 294.175 311.722 294.193C311.888 294.098 312.065 294.025 312.249 293.976L313.779 293.459L319.432 291.63C324.207 290.079 330.801 287.868 338.036 285.429C345.27 282.989 351.885 280.819 356.691 279.372C359.099 278.638 361.042 278.08 362.406 277.708L363.967 277.305C364.148 277.247 364.335 277.209 364.525 277.191Z" fill="#263238"/>
<path d="M342.986 26.4894L337.663 28.3911L335.379 21.4355C331.183 8.60942 317.809 1.79848 305.521 6.12896C293.232 10.4594 286.69 24.5257 290.886 37.3518L293.17 44.3074L287.827 46.2195C285.789 47.0097 284.135 48.5548 283.207 50.5335C282.279 52.5122 282.15 54.7724 282.845 56.8441L297.656 102.102C297.963 103.128 298.473 104.081 299.157 104.906C299.84 105.73 300.682 106.409 301.632 106.901C302.583 107.394 303.623 107.691 304.69 107.773C305.758 107.856 306.831 107.724 307.846 107.384L363.005 87.6535C365.07 86.8646 366.748 85.3059 367.687 83.3051C368.625 81.3043 368.752 79.0175 368.039 76.9255L353.218 31.6674C352.903 30.6447 352.384 29.696 351.694 28.8779C351.004 28.0598 350.156 27.3892 349.201 26.9059C348.246 26.4226 347.204 26.1367 346.136 26.0652C345.068 25.9936 343.997 26.1379 342.986 26.4894ZM300.942 33.7241C299.811 30.3892 300.014 26.7457 301.509 23.5572C303.004 20.3686 305.675 17.8823 308.962 16.6193C310.586 16.0639 312.304 15.8412 314.015 15.9644C315.727 16.0876 317.395 16.5543 318.922 17.3366C320.449 18.1189 321.803 19.2007 322.903 20.5175C324.002 21.8344 324.826 23.3592 325.323 25.0012L327.597 31.9568L303.216 40.6798L300.942 33.7241ZM331.948 73.887L335.731 85.4418C335.8 85.6735 335.778 85.923 335.668 86.1386C335.558 86.3542 335.37 86.5192 335.142 86.5993L329.84 88.4907C329.629 88.5492 329.403 88.5238 329.21 88.4197C329.018 88.3157 328.873 88.1411 328.806 87.9326L324.992 76.4294C322.889 76.3149 320.872 75.5606 319.209 74.2676C317.547 72.9747 316.319 71.2047 315.691 69.1948C314.792 66.5375 314.956 63.6355 316.148 61.0964C317.341 58.5573 319.469 56.578 322.088 55.5729C323.381 55.1311 324.75 54.9541 326.113 55.0526C327.476 55.151 328.805 55.5228 330.021 56.1458C331.237 56.7689 332.316 57.6304 333.192 58.679C334.068 59.7276 334.724 60.9419 335.121 62.2495C335.786 64.2912 335.841 66.4826 335.279 68.5552C334.717 70.6277 333.563 72.4914 331.958 73.918L331.948 73.887Z" fill="#4CAF4F"/>
<path d="M337.426 28.2671C337.426 28.4118 327.555 32.1222 315.277 36.5353C302.999 40.9485 292.984 44.4935 292.932 44.3901C292.881 44.2868 302.803 40.5454 315.091 36.1219C327.38 31.6984 337.374 28.1327 337.426 28.2671Z" fill="#263238"/>
<path d="M349.146 30.1687C349.191 30.2584 349.229 30.3517 349.259 30.4477C349.342 30.6545 349.435 30.9232 349.559 31.2539C349.828 32.0084 350.2 33.0522 350.665 34.3545L354.634 45.9093C356.287 50.8082 358.261 56.6166 360.452 63.0658C361.486 66.3008 362.705 69.6701 363.842 73.2151C364.451 75.0419 364.714 76.9661 364.617 78.8891C364.53 79.8893 364.245 80.8622 363.78 81.752C363.284 82.6388 362.62 83.4214 361.827 84.0568C360.23 85.2223 358.458 86.126 356.577 86.7336L351.254 88.6456L341.177 92.2526L324.114 98.3298L312.59 102.381L309.489 103.415L308.662 103.683C308.574 103.723 308.48 103.747 308.383 103.756C308.383 103.756 308.466 103.756 308.642 103.632L309.448 103.311L312.548 102.143L324.01 97.9267L341.043 91.7255L351.099 88.0875L356.422 86.1652C358.249 85.5822 359.97 84.7061 361.517 83.571C362.255 82.9814 362.873 82.255 363.336 81.4316C363.774 80.6087 364.037 79.7046 364.111 78.7754C364.206 76.9225 363.954 75.0682 363.367 73.3081C362.251 69.7941 361.072 66.3938 360.008 63.1589C357.858 56.6993 355.874 50.8702 354.303 45.9713C352.732 41.0724 351.409 37.1347 350.5 34.3648C350.065 33.0109 349.735 31.9567 349.466 31.1919L349.218 30.3651C349.187 30.3024 349.162 30.2366 349.146 30.1687Z" fill="#263238"/>
<path d="M320.042 15.9164C320.042 15.9164 319.494 15.6477 318.481 15.2343C317.038 14.6796 315.511 14.3721 313.965 14.3248C311.674 14.2462 309.393 14.6769 307.288 15.5857C304.729 16.7174 302.54 18.5478 300.974 20.867C299.397 23.1796 298.55 25.9124 298.545 28.7115C298.566 31.0056 298.914 33.285 299.578 35.4811C300.116 37.3621 300.674 38.8607 301.046 39.9046C301.265 40.4348 301.445 40.9806 301.583 41.5375C301.29 41.0418 301.044 40.5192 300.849 39.9769C300.426 38.9434 299.816 37.4758 299.217 35.5844C298.481 33.3653 298.08 31.0488 298.028 28.7115C298 25.8067 298.866 22.9636 300.508 20.5673C302.13 18.1634 304.408 16.2763 307.071 15.1309C309.242 14.2171 311.593 13.814 313.944 13.9527C315.524 14.0332 317.075 14.401 318.523 15.0379C318.91 15.2165 319.283 15.4238 319.639 15.658C319.786 15.7226 319.922 15.8098 320.042 15.9164Z" fill="#263238"/>
<path d="M320.517 56.3586C320.682 56.2587 320.855 56.1722 321.034 56.1002C321.551 55.8668 322.087 55.6767 322.636 55.5318C323.507 55.2747 324.406 55.122 325.313 55.077C326.547 55.0107 327.781 55.1971 328.941 55.6248C331.586 56.555 334.015 59.2525 335.214 62.8595C335.789 64.7952 335.789 66.8562 335.214 68.7919C334.577 70.8929 333.434 72.8055 331.886 74.3626L331.948 74.0836C333.323 77.856 334.821 81.9487 336.372 86.2172L336.465 86.4756L336.206 86.5686L333.84 87.3541L328.672 89.0801L328.414 89.1628L328.331 88.9044C326.915 84.6256 325.365 80.6362 324.197 76.7191L324.424 76.8948C322.404 76.727 320.477 75.9686 318.884 74.714C317.443 73.6042 316.262 72.1934 315.422 70.5799C314.664 69.1491 314.287 67.5476 314.327 65.9291C314.374 64.2749 314.787 62.6517 315.536 61.1758C316.285 59.6999 317.35 58.4079 318.657 57.3921C319.195 56.9556 319.798 56.6068 320.445 56.3586C319.861 56.705 319.295 57.081 318.75 57.4852C317.315 58.6994 316.215 60.2616 315.556 62.0223C314.991 63.3501 314.726 64.7865 314.782 66.2285C314.837 67.6706 315.211 69.0825 315.877 70.3629C316.703 71.915 317.856 73.2692 319.256 74.3316C320.776 75.5241 322.613 76.243 324.538 76.3987H324.713L324.765 76.5537C325.902 80.3984 327.463 84.4189 328.899 88.7183L328.558 88.553L333.726 86.827L336.082 86.0312L335.917 86.3826C334.377 82.1141 332.889 78.011 331.524 74.2386V74.0836L331.648 73.9596C333.151 72.467 334.271 70.6341 334.914 68.6162C335.463 66.7646 335.463 64.7938 334.914 62.9422C333.788 59.4695 331.462 56.834 328.941 55.9039C327.824 55.4734 326.633 55.273 325.437 55.3148C324.544 55.3352 323.657 55.4566 322.791 55.6765C321.251 56.0589 320.528 56.4103 320.517 56.3586Z" fill="#263238"/>
<path d="M288.571 354.779L185.332 354.303C179.37 354.27 173.665 351.873 169.47 347.637C165.274 343.4 162.932 337.672 162.956 331.71L164.052 72.905C164.064 69.9513 164.658 67.0289 165.8 64.3049C166.943 61.5809 168.611 59.1087 170.709 57.0297C172.807 54.9507 175.294 53.3055 178.029 52.1884C180.763 51.0712 183.691 50.5039 186.645 50.5188L289.873 50.9943C295.835 51.0243 301.542 53.4195 305.739 57.6537C309.936 61.8878 312.281 67.6148 312.259 73.5768L311.164 332.372C311.152 335.327 310.558 338.25 309.416 340.975C308.274 343.7 306.606 346.174 304.508 348.254C302.41 350.335 299.923 351.982 297.188 353.102C294.454 354.221 291.526 354.791 288.571 354.779Z" fill="#455A64"/>
<path d="M289.718 59.8927H269.709C269.056 59.9048 268.412 60.0454 267.814 60.3065C267.215 60.5675 266.674 60.944 266.221 61.4143C265.768 61.8845 265.412 62.4395 265.174 63.0473C264.935 63.6552 264.819 64.3041 264.831 64.957V68.5847C264.843 69.237 264.727 69.8854 264.488 70.4927C264.25 71.1 263.894 71.6542 263.44 72.1237C262.987 72.5931 262.446 72.9686 261.847 73.2285C261.249 73.4885 260.605 73.6278 259.953 73.6386L220.947 73.4629C219.628 73.4277 218.376 72.8703 217.468 71.913C216.559 70.9557 216.067 69.6768 216.1 68.3573V64.7296C216.134 63.4118 215.643 62.1344 214.737 61.1774C213.83 60.2205 212.581 59.6618 211.263 59.624H204.225L186.707 59.5413C182.54 59.5165 178.533 61.1438 175.564 64.0668C172.594 66.9899 170.904 70.9706 170.863 75.1372L169.829 327.752C169.82 329.819 170.217 331.868 171 333.781C171.782 335.694 172.933 337.435 174.388 338.903C175.843 340.372 177.573 341.539 179.479 342.339C181.385 343.139 183.43 343.555 185.498 343.565L288.519 344.04C290.588 344.05 292.638 343.652 294.553 342.869C296.467 342.086 298.209 340.934 299.678 339.478C301.148 338.022 302.316 336.291 303.116 334.384C303.916 332.476 304.333 330.43 304.343 328.362L305.376 75.747C305.401 71.5686 303.766 67.5514 300.829 64.5784C297.893 61.6054 293.897 59.92 289.718 59.8927Z" fill="white"/>
<path d="M275.859 310.337L199.254 310.006C198.458 310.006 197.817 309.138 197.828 308.084L197.91 288.044C197.91 287.01 198.562 286.122 199.357 286.122L275.962 286.473C276.403 286.549 276.798 286.793 277.064 287.153C277.329 287.513 277.446 287.962 277.389 288.406L277.316 308.425C277.316 309.49 276.655 310.347 275.859 310.337Z" fill="#4CAF4F"/>
<path d="M222.545 300.124C222.122 300.124 221.715 300.057 221.325 299.921C220.94 299.78 220.642 299.601 220.431 299.385L220.666 298.921C220.867 299.116 221.135 299.282 221.471 299.417C221.813 299.547 222.171 299.612 222.545 299.612C222.902 299.612 223.192 299.569 223.415 299.482C223.642 299.39 223.808 299.268 223.911 299.116C224.019 298.964 224.073 298.796 224.073 298.612C224.073 298.39 224.008 298.211 223.878 298.075C223.753 297.94 223.588 297.834 223.382 297.758C223.176 297.677 222.948 297.606 222.699 297.547C222.45 297.487 222.2 297.425 221.951 297.36C221.702 297.289 221.471 297.197 221.26 297.083C221.054 296.97 220.886 296.82 220.756 296.636C220.631 296.446 220.569 296.2 220.569 295.896C220.569 295.614 220.642 295.357 220.788 295.124C220.94 294.885 221.17 294.695 221.479 294.555C221.788 294.408 222.184 294.335 222.667 294.335C222.986 294.335 223.304 294.381 223.618 294.473C223.932 294.56 224.203 294.682 224.431 294.839L224.228 295.319C223.984 295.156 223.724 295.037 223.447 294.961C223.176 294.885 222.913 294.847 222.658 294.847C222.317 294.847 222.035 294.893 221.813 294.985C221.591 295.078 221.425 295.202 221.317 295.36C221.214 295.511 221.162 295.685 221.162 295.88C221.162 296.102 221.225 296.281 221.349 296.417C221.479 296.552 221.647 296.658 221.853 296.734C222.065 296.81 222.295 296.877 222.545 296.937C222.794 296.997 223.041 297.062 223.285 297.132C223.534 297.203 223.762 297.295 223.968 297.409C224.179 297.517 224.347 297.663 224.472 297.848C224.602 298.032 224.667 298.273 224.667 298.571C224.667 298.848 224.591 299.105 224.439 299.344C224.287 299.577 224.054 299.767 223.74 299.913C223.431 300.054 223.033 300.124 222.545 300.124ZM225.978 300.076V294.384H226.58V300.076H225.978ZM228.432 300.076V294.384H228.928L232.855 299.328H232.595V294.384H233.188V300.076H232.692L228.773 295.132H229.033V300.076H228.432ZM237.543 300.124C237.109 300.124 236.708 300.054 236.339 299.913C235.976 299.767 235.659 299.563 235.388 299.303C235.122 299.043 234.913 298.737 234.762 298.384C234.615 298.032 234.542 297.647 234.542 297.23C234.542 296.812 234.615 296.427 234.762 296.075C234.913 295.723 235.125 295.416 235.396 295.156C235.667 294.896 235.984 294.695 236.347 294.555C236.716 294.408 237.117 294.335 237.551 294.335C237.984 294.335 238.38 294.403 238.738 294.538C239.101 294.674 239.41 294.88 239.665 295.156L239.291 295.538C239.052 295.3 238.789 295.129 238.502 295.026C238.215 294.923 237.906 294.872 237.575 294.872C237.223 294.872 236.897 294.931 236.599 295.051C236.307 295.164 236.049 295.33 235.827 295.547C235.61 295.758 235.439 296.007 235.315 296.295C235.195 296.577 235.136 296.888 235.136 297.23C235.136 297.566 235.195 297.878 235.315 298.165C235.439 298.452 235.61 298.704 235.827 298.921C236.049 299.132 236.307 299.298 236.599 299.417C236.897 299.531 237.22 299.588 237.567 299.588C237.892 299.588 238.198 299.539 238.486 299.441C238.779 299.344 239.047 299.179 239.291 298.945L239.632 299.401C239.361 299.639 239.044 299.821 238.681 299.946C238.318 300.065 237.938 300.124 237.543 300.124ZM239.055 299.328V297.23H239.632V299.401L239.055 299.328ZM245.756 300.124C245.03 300.124 244.458 299.916 244.041 299.498C243.623 299.081 243.415 298.463 243.415 297.644V294.384H244.016V297.62C244.016 298.292 244.168 298.788 244.472 299.108C244.775 299.428 245.203 299.588 245.756 299.588C246.315 299.588 246.746 299.428 247.049 299.108C247.353 298.788 247.505 298.292 247.505 297.62V294.384H248.09V297.644C248.09 298.463 247.881 299.081 247.464 299.498C247.052 299.916 246.483 300.124 245.756 300.124ZM249.903 300.076V294.384H252.034C252.516 294.384 252.931 294.462 253.278 294.62C253.625 294.771 253.89 294.994 254.075 295.286C254.264 295.574 254.359 295.923 254.359 296.335C254.359 296.736 254.264 297.083 254.075 297.376C253.89 297.663 253.625 297.886 253.278 298.043C252.931 298.2 252.516 298.279 252.034 298.279H250.237L250.505 297.994V300.076H249.903ZM250.505 298.043L250.237 297.75H252.017C252.587 297.75 253.018 297.628 253.31 297.384C253.608 297.135 253.758 296.785 253.758 296.335C253.758 295.88 253.608 295.528 253.31 295.278C253.018 295.029 252.587 294.904 252.017 294.904H250.237L250.505 294.62V298.043Z" fill="#E8E8E3"/>
<path d="M214.533 134.152L187.951 134.031L187.929 138.909L214.511 139.03L214.533 134.152Z" fill="#4CAF4F"/>
<path opacity="0.1" d="M214.533 134.152L187.951 134.031L187.929 138.909L214.511 139.03L214.533 134.152Z" fill="black"/>
<path d="M292.457 164.103C292.666 164.082 292.871 164.033 293.067 163.959C293.353 163.847 293.602 163.656 293.785 163.41C293.968 163.163 294.077 162.869 294.101 162.563C294.101 160.92 294.101 158.522 294.101 155.442C294.101 153.902 294.101 152.176 294.101 150.275C294.101 149.81 294.101 149.324 294.101 148.838C294.168 148.367 294.065 147.887 293.811 147.484C293.669 147.291 293.484 147.134 293.27 147.024C293.057 146.915 292.821 146.856 292.581 146.854H290.969H276.035L189.59 146.533C189.369 146.53 189.15 146.579 188.952 146.678C188.754 146.777 188.583 146.922 188.454 147.102C188.204 147.506 188.109 147.987 188.185 148.456C188.185 149.489 188.185 150.523 188.185 151.556C188.185 153.623 188.185 155.69 188.185 157.757C188.185 158.791 188.185 159.824 188.185 160.858C188.142 161.339 188.142 161.824 188.185 162.305C188.239 162.511 188.34 162.702 188.48 162.864C188.62 163.025 188.794 163.152 188.991 163.235C189.195 163.316 189.413 163.355 189.632 163.349H194.892L217.847 163.473L256.708 163.71L282.908 163.917L290.029 164H291.879C292.302 164 292.509 164 292.509 164H291.879H290.029H282.908H256.708L217.847 163.876L194.892 163.783H189.632C189.342 163.795 189.054 163.745 188.784 163.638C188.512 163.522 188.27 163.345 188.077 163.121C187.883 162.897 187.744 162.632 187.668 162.346C187.608 162.075 187.587 161.797 187.606 161.519V160.755C187.606 159.721 187.606 158.688 187.606 157.654C187.606 155.587 187.606 153.52 187.606 151.453C187.606 150.419 187.606 149.386 187.606 148.352C187.586 148.077 187.586 147.801 187.606 147.525C187.645 147.221 187.762 146.933 187.947 146.688C188.125 146.439 188.361 146.236 188.635 146.098C188.909 145.959 189.212 145.889 189.518 145.892L275.962 146.368L290.897 146.471H292.509C292.793 146.471 293.073 146.54 293.325 146.671C293.577 146.803 293.793 146.993 293.956 147.226C294.247 147.675 294.365 148.215 294.287 148.745C294.287 149.231 294.287 149.717 294.287 150.182C294.287 152.063 294.287 153.789 294.287 155.349C294.287 158.45 294.214 160.827 294.194 162.481C294.168 162.799 294.053 163.103 293.861 163.357C293.668 163.612 293.407 163.806 293.108 163.917C292.913 164.038 292.687 164.103 292.457 164.103Z" fill="#E0E0E0"/>
<path d="M244.553 151.722H195.936V156.28H244.553V151.722Z" fill="#4CAF4F"/>
<path opacity="0.2" d="M244.553 151.722H195.936V156.28H244.553V151.722Z" fill="white"/>
<path d="M214.352 178.654L187.77 178.534L187.748 183.412L214.33 183.533L214.352 178.654Z" fill="#4CAF4F"/>
<path opacity="0.1" d="M214.352 178.654L187.77 178.534L187.748 183.412L214.33 183.533L214.352 178.654Z" fill="black"/>
<path d="M291.786 208.607C291.994 208.581 292.201 208.543 292.406 208.493C292.694 208.401 292.96 208.249 293.185 208.046C293.409 207.842 293.588 207.593 293.708 207.315C293.871 206.898 293.934 206.449 293.894 206.003C293.894 205.506 293.894 204.969 293.894 204.37C293.894 203.171 293.894 201.806 293.894 200.235V193.673C293.943 193.197 293.838 192.719 293.594 192.308C293.339 191.887 292.938 191.574 292.468 191.43C291.953 191.338 291.429 191.31 290.907 191.347H276.035L189.89 191.027C189.427 191.028 188.98 191.197 188.632 191.503C188.284 191.809 188.059 192.231 187.999 192.691C187.999 193.673 187.999 194.758 187.999 195.791C187.999 197.858 187.999 199.925 187.999 201.992C187.999 203.026 187.999 204.06 187.999 205.093C187.96 205.576 187.981 206.062 188.061 206.54C188.19 206.959 188.455 207.323 188.815 207.574C189.197 207.816 189.646 207.932 190.097 207.904H191.533H194.52L217.392 208.018L256.119 208.256L282.225 208.462L289.326 208.545H282.225H256.119L217.372 208.504L194.5 208.421H190.004C189.445 208.454 188.89 208.305 188.423 207.997C187.952 207.672 187.609 207.193 187.451 206.643C187.358 206.118 187.331 205.584 187.368 205.052C187.368 204.018 187.368 202.985 187.368 201.951C187.368 199.884 187.368 197.817 187.368 195.75C187.368 194.716 187.368 193.683 187.368 192.649C187.444 192.058 187.732 191.515 188.179 191.121C188.626 190.728 189.201 190.51 189.797 190.51L275.942 190.985L290.814 191.099C291.368 191.065 291.924 191.103 292.468 191.213C293.005 191.388 293.458 191.756 293.739 192.246C294.006 192.702 294.122 193.23 294.07 193.755C294.07 194.241 294.07 194.716 294.07 195.192C294.07 197.063 294.07 198.778 294.07 200.36C294.07 201.941 294.07 203.274 294.07 204.494C294.07 205.083 294.07 205.63 294.07 206.137C294.107 206.599 294.033 207.064 293.853 207.491C293.718 207.776 293.524 208.029 293.284 208.232C293.043 208.436 292.761 208.585 292.457 208.669C292.231 208.688 292.004 208.667 291.786 208.607Z" fill="#E0E0E0"/>
<path d="M214.152 225.089L187.57 224.969L187.548 229.847L214.13 229.967L214.152 225.089Z" fill="#4CAF4F"/>
<path opacity="0.1" d="M214.152 225.089L187.57 224.969L187.548 229.847L214.13 229.967L214.152 225.089Z" fill="black"/>
<path d="M291.579 255.022C291.788 254.998 291.995 254.96 292.199 254.909C292.486 254.817 292.751 254.666 292.975 254.465C293.2 254.263 293.379 254.017 293.501 253.741C293.663 253.323 293.727 252.874 293.687 252.428C293.687 251.922 293.687 251.395 293.687 250.785C293.687 249.596 293.687 248.222 293.687 246.651V240.088C293.736 239.613 293.631 239.134 293.387 238.724C293.126 238.31 292.727 238.003 292.261 237.856C291.747 237.76 291.222 237.729 290.7 237.763H275.828L189.683 237.442C189.22 237.443 188.773 237.613 188.425 237.919C188.077 238.225 187.852 238.647 187.792 239.106C187.792 240.14 187.792 241.173 187.792 242.207C187.792 244.274 187.792 246.341 187.792 248.408C187.792 249.441 187.792 250.475 187.792 251.508C187.754 251.988 187.774 252.471 187.854 252.945C187.978 253.367 188.245 253.732 188.609 253.979C188.988 254.226 189.438 254.342 189.89 254.309H194.386L217.258 254.433L255.984 254.671L282.091 254.878L289.191 254.96H282.091H255.984L217.258 254.847L194.386 254.754H189.89C189.331 254.791 188.774 254.642 188.309 254.33C187.839 254.004 187.495 253.526 187.337 252.976C187.245 252.451 187.217 251.916 187.255 251.384C187.255 250.351 187.255 249.317 187.255 248.284C187.255 246.217 187.255 244.15 187.255 242.083C187.255 241.049 187.255 240.016 187.255 238.93C187.328 238.34 187.614 237.797 188.059 237.403C188.504 237.009 189.078 236.792 189.673 236.791L275.817 237.266L290.69 237.38C291.244 237.346 291.8 237.384 292.344 237.494C292.881 237.669 293.333 238.037 293.615 238.527C293.882 238.983 293.998 239.511 293.946 240.036C293.946 240.522 293.946 241.008 293.946 241.473C293.946 243.344 293.946 245.059 293.946 246.641C293.946 248.222 293.946 249.555 293.946 250.775C293.946 251.364 293.946 251.912 293.946 252.418C293.985 252.88 293.911 253.345 293.728 253.772C293.594 254.057 293.4 254.31 293.159 254.513C292.919 254.717 292.637 254.866 292.333 254.95C292.091 255.033 291.832 255.058 291.579 255.022Z" fill="#E0E0E0"/>
<path d="M243.516 197.514L194.899 197.293L194.878 201.851L243.495 202.072L243.516 197.514Z" fill="#4CAF4F"/>
<path opacity="0.2" d="M243.516 197.514L194.899 197.293L194.878 201.851L243.495 202.072L243.516 197.514Z" fill="white"/>
<path d="M199.295 246.589C199.264 247.005 199.113 247.402 198.858 247.733C198.604 248.063 198.258 248.311 197.864 248.447C197.47 248.582 197.044 248.599 196.641 248.495C196.237 248.391 195.873 248.171 195.593 247.862C195.313 247.553 195.13 247.168 195.067 246.756C195.004 246.344 195.063 245.923 195.237 245.544C195.411 245.165 195.693 244.846 196.046 244.626C196.4 244.405 196.811 244.294 197.228 244.305C197.804 244.337 198.344 244.595 198.731 245.022C199.117 245.45 199.32 246.013 199.295 246.589Z" fill="#4CAF4F"/>
<path d="M205.879 246.62C205.899 246.912 205.859 247.204 205.762 247.479C205.664 247.755 205.511 248.007 205.312 248.221C205.113 248.434 204.872 248.605 204.604 248.721C204.336 248.838 204.047 248.898 203.755 248.898C203.463 248.898 203.174 248.838 202.906 248.721C202.638 248.605 202.397 248.434 202.198 248.221C201.999 248.007 201.846 247.755 201.748 247.479C201.651 247.204 201.611 246.912 201.631 246.62C201.611 246.329 201.651 246.037 201.748 245.761C201.846 245.486 201.999 245.234 202.198 245.02C202.397 244.806 202.638 244.636 202.906 244.52C203.174 244.403 203.463 244.343 203.755 244.343C204.047 244.343 204.336 244.403 204.604 244.52C204.872 244.636 205.113 244.806 205.312 245.02C205.511 245.234 205.664 245.486 205.762 245.761C205.859 246.037 205.899 246.329 205.879 246.62Z" fill="#4CAF4F"/>
<path d="M212.473 246.651C212.442 247.067 212.29 247.464 212.036 247.794C211.781 248.125 211.436 248.373 211.042 248.508C210.647 248.644 210.222 248.661 209.818 248.557C209.415 248.453 209.05 248.233 208.771 247.924C208.491 247.615 208.308 247.23 208.245 246.818C208.182 246.406 208.241 245.985 208.415 245.606C208.589 245.227 208.87 244.908 209.224 244.688C209.578 244.467 209.989 244.356 210.406 244.367C210.98 244.401 211.519 244.66 211.905 245.087C212.292 245.514 212.495 246.075 212.473 246.651Z" fill="#4CAF4F"/>
<path d="M219.056 246.682C219.026 247.098 218.874 247.496 218.619 247.826C218.365 248.156 218.019 248.404 217.625 248.54C217.231 248.675 216.806 248.692 216.402 248.588C215.998 248.484 215.634 248.264 215.354 247.955C215.074 247.646 214.892 247.262 214.828 246.85C214.765 246.438 214.824 246.016 214.998 245.637C215.172 245.259 215.454 244.939 215.808 244.719C216.162 244.499 216.572 244.387 216.989 244.398C217.564 244.433 218.102 244.691 218.489 245.118C218.875 245.545 219.079 246.107 219.056 246.682Z" fill="#4CAF4F"/>
<path d="M225.64 246.703C225.611 247.119 225.461 247.518 225.208 247.849C224.955 248.181 224.609 248.431 224.215 248.568C223.821 248.705 223.395 248.723 222.991 248.62C222.586 248.517 222.221 248.298 221.94 247.989C221.66 247.68 221.476 247.296 221.412 246.884C221.348 246.471 221.407 246.049 221.58 245.67C221.754 245.29 222.036 244.971 222.39 244.75C222.744 244.529 223.156 244.418 223.573 244.429C224.146 244.463 224.683 244.721 225.069 245.145C225.455 245.57 225.66 246.129 225.64 246.703Z" fill="#4CAF4F"/>
<path d="M232.233 246.734C232.205 247.148 232.056 247.545 231.805 247.876C231.555 248.206 231.212 248.457 230.821 248.595C230.43 248.734 230.007 248.756 229.603 248.657C229.2 248.559 228.834 248.344 228.551 248.04C228.268 247.737 228.08 247.357 228.01 246.948C227.94 246.538 227.992 246.118 228.158 245.737C228.324 245.357 228.598 245.033 228.945 244.806C229.293 244.579 229.699 244.459 230.114 244.46C230.697 244.482 231.246 244.733 231.644 245.159C232.041 245.585 232.253 246.152 232.233 246.734Z" fill="#4CAF4F"/>
<path d="M238.817 246.765C238.837 247.056 238.797 247.348 238.7 247.624C238.602 247.899 238.449 248.151 238.25 248.365C238.051 248.579 237.81 248.749 237.542 248.865C237.274 248.982 236.985 249.042 236.693 249.042C236.401 249.042 236.112 248.982 235.844 248.865C235.576 248.749 235.335 248.579 235.136 248.365C234.937 248.151 234.784 247.899 234.686 247.624C234.589 247.348 234.549 247.056 234.569 246.765C234.549 246.473 234.589 246.181 234.686 245.905C234.784 245.63 234.937 245.378 235.136 245.164C235.335 244.951 235.576 244.78 235.844 244.664C236.112 244.547 236.401 244.487 236.693 244.487C236.985 244.487 237.274 244.547 237.542 244.664C237.81 244.78 238.051 244.951 238.25 245.164C238.449 245.378 238.602 245.63 238.7 245.905C238.797 246.181 238.837 246.473 238.817 246.765Z" fill="#4CAF4F"/>
<path d="M245.401 246.796C245.372 247.21 245.224 247.607 244.973 247.938C244.722 248.269 244.38 248.519 243.989 248.658C243.597 248.797 243.174 248.818 242.771 248.719C242.368 248.621 242.002 248.406 241.719 248.103C241.436 247.799 241.248 247.419 241.178 247.01C241.108 246.601 241.159 246.18 241.325 245.799C241.491 245.419 241.765 245.095 242.113 244.868C242.46 244.641 242.867 244.521 243.282 244.522C243.864 244.544 244.414 244.795 244.811 245.221C245.208 245.648 245.42 246.214 245.401 246.796Z" fill="#4CAF4F"/>
<path d="M251.984 246.827C251.956 247.243 251.805 247.642 251.552 247.974C251.299 248.305 250.954 248.555 250.559 248.692C250.165 248.83 249.74 248.848 249.335 248.745C248.931 248.642 248.565 248.422 248.285 248.114C248.004 247.805 247.82 247.42 247.756 247.008C247.692 246.596 247.751 246.174 247.925 245.794C248.099 245.415 248.38 245.095 248.734 244.874C249.089 244.654 249.5 244.542 249.917 244.553C250.49 244.588 251.027 244.845 251.413 245.27C251.799 245.695 252.004 246.253 251.984 246.827Z" fill="#4CAF4F"/>
<g opacity="0.2">
<path d="M199.295 246.589C199.264 247.005 199.113 247.402 198.858 247.733C198.604 248.063 198.258 248.311 197.864 248.447C197.47 248.582 197.044 248.599 196.641 248.495C196.237 248.391 195.873 248.171 195.593 247.862C195.313 247.553 195.13 247.168 195.067 246.756C195.004 246.344 195.063 245.923 195.237 245.544C195.411 245.165 195.693 244.846 196.046 244.626C196.4 244.405 196.811 244.294 197.228 244.305C197.804 244.337 198.344 244.595 198.731 245.022C199.117 245.45 199.32 246.013 199.295 246.589Z" fill="white"/>
<path d="M205.879 246.62C205.899 246.911 205.859 247.204 205.762 247.479C205.664 247.755 205.511 248.007 205.312 248.22C205.113 248.434 204.872 248.604 204.604 248.721C204.336 248.837 204.047 248.897 203.755 248.897C203.463 248.897 203.174 248.837 202.906 248.721C202.638 248.604 202.397 248.434 202.198 248.22C201.999 248.007 201.846 247.755 201.748 247.479C201.651 247.204 201.611 246.911 201.631 246.62C201.611 246.329 201.651 246.036 201.748 245.761C201.846 245.486 201.999 245.233 202.198 245.02C202.397 244.806 202.638 244.636 202.906 244.519C203.174 244.403 203.463 244.343 203.755 244.343C204.047 244.343 204.336 244.403 204.604 244.519C204.872 244.636 205.113 244.806 205.312 245.02C205.511 245.233 205.664 245.486 205.762 245.761C205.859 246.036 205.899 246.329 205.879 246.62Z" fill="white"/>
<path d="M212.472 246.651C212.442 247.067 212.29 247.464 212.035 247.795C211.781 248.125 211.435 248.373 211.041 248.509C210.647 248.644 210.222 248.661 209.818 248.557C209.414 248.453 209.05 248.233 208.77 247.924C208.49 247.615 208.308 247.23 208.244 246.818C208.181 246.406 208.24 245.985 208.414 245.606C208.588 245.227 208.87 244.908 209.224 244.688C209.578 244.467 209.988 244.356 210.405 244.367C210.98 244.402 211.518 244.66 211.905 245.087C212.291 245.514 212.495 246.076 212.472 246.651Z" fill="white"/>
<path d="M219.056 246.682C219.026 247.098 218.874 247.495 218.619 247.826C218.365 248.156 218.019 248.404 217.625 248.54C217.231 248.675 216.806 248.692 216.402 248.588C215.998 248.484 215.634 248.264 215.354 247.955C215.074 247.646 214.892 247.261 214.828 246.849C214.765 246.437 214.824 246.016 214.998 245.637C215.172 245.258 215.454 244.939 215.808 244.719C216.162 244.498 216.572 244.387 216.989 244.398C217.564 244.433 218.102 244.691 218.489 245.118C218.875 245.545 219.079 246.107 219.056 246.682Z" fill="white"/>
<path d="M225.64 246.703C225.611 247.119 225.461 247.518 225.208 247.85C224.955 248.181 224.609 248.431 224.215 248.568C223.821 248.706 223.395 248.724 222.991 248.621C222.586 248.518 222.221 248.298 221.94 247.99C221.66 247.681 221.476 247.296 221.412 246.884C221.348 246.472 221.407 246.05 221.58 245.67C221.754 245.291 222.036 244.971 222.39 244.75C222.744 244.53 223.156 244.418 223.573 244.429C224.146 244.464 224.683 244.721 225.069 245.146C225.455 245.571 225.66 246.129 225.64 246.703Z" fill="white"/>
<path d="M232.233 246.734C232.205 247.148 232.056 247.545 231.805 247.876C231.555 248.206 231.212 248.457 230.821 248.595C230.43 248.734 230.007 248.756 229.603 248.657C229.2 248.559 228.834 248.344 228.551 248.04C228.268 247.737 228.08 247.357 228.01 246.948C227.94 246.538 227.992 246.118 228.158 245.737C228.324 245.357 228.598 245.033 228.945 244.806C229.293 244.579 229.699 244.459 230.114 244.46C230.697 244.482 231.246 244.733 231.644 245.159C232.041 245.585 232.253 246.152 232.233 246.734Z" fill="white"/>
<path d="M238.817 246.764C238.837 247.056 238.797 247.348 238.7 247.624C238.602 247.899 238.449 248.151 238.25 248.365C238.051 248.578 237.81 248.749 237.542 248.865C237.274 248.982 236.985 249.042 236.693 249.042C236.401 249.042 236.112 248.982 235.844 248.865C235.576 248.749 235.335 248.578 235.136 248.365C234.937 248.151 234.784 247.899 234.686 247.624C234.589 247.348 234.549 247.056 234.569 246.764C234.549 246.473 234.589 246.181 234.686 245.905C234.784 245.63 234.937 245.378 235.136 245.164C235.335 244.95 235.576 244.78 235.844 244.664C236.112 244.547 236.401 244.487 236.693 244.487C236.985 244.487 237.274 244.547 237.542 244.664C237.81 244.78 238.051 244.95 238.25 245.164C238.449 245.378 238.602 245.63 238.7 245.905C238.797 246.181 238.837 246.473 238.817 246.764Z" fill="white"/>
<path d="M245.401 246.796C245.372 247.21 245.224 247.607 244.973 247.938C244.722 248.269 244.38 248.519 243.989 248.658C243.597 248.797 243.174 248.818 242.771 248.719C242.368 248.621 242.002 248.406 241.719 248.103C241.436 247.799 241.248 247.419 241.178 247.01C241.108 246.601 241.159 246.18 241.325 245.799C241.491 245.419 241.765 245.095 242.113 244.868C242.46 244.641 242.867 244.521 243.282 244.522C243.864 244.544 244.414 244.795 244.811 245.221C245.208 245.648 245.42 246.214 245.401 246.796Z" fill="white"/>
<path d="M251.984 246.827C251.956 247.243 251.805 247.642 251.552 247.974C251.299 248.305 250.954 248.555 250.559 248.692C250.165 248.83 249.74 248.848 249.335 248.745C248.931 248.642 248.565 248.422 248.285 248.114C248.004 247.805 247.82 247.42 247.756 247.008C247.692 246.596 247.751 246.174 247.925 245.794C248.099 245.415 248.38 245.095 248.734 244.874C249.089 244.654 249.5 244.542 249.917 244.553C250.49 244.588 251.027 244.845 251.413 245.27C251.799 245.695 252.004 246.253 251.984 246.827Z" fill="white"/>
</g>
<path d="M242.631 97.6268C243.349 97.3106 243.958 96.7903 244.382 96.1306C244.807 95.4709 245.028 94.7009 245.018 93.9164C245.045 93.4065 244.968 92.8964 244.791 92.4174C244.614 91.9383 244.342 91.5002 243.99 91.1298C243.639 90.7594 243.216 90.4644 242.746 90.2628C242.277 90.0612 241.772 89.9573 241.261 89.9573C240.751 89.9573 240.245 90.0612 239.776 90.2628C239.307 90.4644 238.884 90.7594 238.532 91.1298C238.181 91.5002 237.908 91.9383 237.732 92.4174C237.555 92.8964 237.478 93.4065 237.504 93.9164C237.489 94.7087 237.708 95.4879 238.135 96.1556C238.562 96.8234 239.177 97.3497 239.902 97.6681C234.114 98.5363 234.373 104.82 234.373 104.82L248.057 104.882C248.057 104.882 248.377 98.4846 242.631 97.6268Z" fill="#4CAF4F"/>
<path opacity="0.1" d="M242.631 97.6268C243.349 97.3106 243.958 96.7903 244.382 96.1306C244.807 95.4709 245.028 94.7009 245.018 93.9164C245.045 93.4065 244.968 92.8964 244.791 92.4174C244.614 91.9383 244.342 91.5002 243.99 91.1298C243.639 90.7594 243.216 90.4644 242.746 90.2628C242.277 90.0612 241.772 89.9573 241.261 89.9573C240.751 89.9573 240.245 90.0612 239.776 90.2628C239.307 90.4644 238.884 90.7594 238.532 91.1298C238.181 91.5002 237.908 91.9383 237.732 92.4174C237.555 92.8964 237.478 93.4065 237.504 93.9164C237.489 94.7087 237.708 95.4879 238.135 96.1556C238.562 96.8234 239.177 97.3497 239.902 97.6681C234.114 98.5363 234.373 104.82 234.373 104.82L248.057 104.882C248.057 104.882 248.377 98.4846 242.631 97.6268Z" fill="black"/>
<path d="M264.867 108.935L216.095 108.714L216.069 114.543L264.84 114.764L264.867 108.935Z" fill="#4CAF4F"/>
<path opacity="0.2" d="M264.867 108.935L216.095 108.714L216.069 114.543L264.84 114.764L264.867 108.935Z" fill="white"/>
<path d="M85.5656 139.143H85.0799L83.6743 139.247C82.9136 139.292 82.1572 139.393 81.4108 139.546C80.9274 139.614 80.4479 139.707 79.9742 139.826L78.3723 140.27C75.6456 141.106 73.0731 142.381 70.7552 144.042C67.6927 146.265 65.1355 149.111 63.2518 152.393C62.1446 154.285 61.2635 156.3 60.6266 158.398C59.9574 160.678 59.5721 163.031 59.4794 165.405C59.4178 166.652 59.4385 167.902 59.5414 169.147C59.5414 169.777 59.7171 170.408 59.7998 171.048C59.8693 171.694 59.9903 172.334 60.1615 172.96C61.0909 177.108 62.9766 180.98 65.6683 184.27C68.3599 187.559 71.783 190.173 75.6644 191.905C78.4737 193.117 81.4847 193.794 84.5424 193.9C87.7006 194.073 90.8619 193.62 93.8442 192.566L94.7537 192.225H94.8777L94.981 192.287L108.014 198.902L107.631 199.233C106.236 194.912 104.893 190.727 103.59 186.706V186.551L103.704 186.438C106.866 183.253 109.213 179.353 110.546 175.069C111.754 171.152 112.106 167.021 111.579 162.956C111.111 159.343 109.949 155.855 108.158 152.683C106.615 149.958 104.623 147.512 102.267 145.448C100.324 143.814 98.1726 142.445 95.8699 141.376C94.1275 140.624 92.3128 140.053 90.4542 139.67L88.3871 139.329L86.8885 139.216L85.979 139.154H85.669C85.772 139.142 85.876 139.142 85.979 139.154H86.8989L88.3975 139.216L90.4645 139.515C92.3463 139.87 94.1857 140.421 95.9526 141.159C98.2949 142.215 100.485 143.581 102.464 145.221C104.863 147.275 106.897 149.721 108.479 152.455C110.321 155.662 111.518 159.197 112.003 162.863C112.574 166.991 112.246 171.193 111.042 175.182C109.7 179.556 107.317 183.539 104.097 186.789L104.159 186.52C105.461 190.541 106.815 194.726 108.221 199.036L108.417 199.667L107.828 199.367L94.795 192.763H95.0224L94.0922 193.104C91.0525 194.173 87.8327 194.637 84.6148 194.468C81.4911 194.349 78.4171 193.648 75.5507 192.401C70.0831 190.059 65.534 185.99 62.6007 180.815C61.2508 178.425 60.265 175.848 59.6758 173.167C59.5144 172.524 59.3936 171.872 59.314 171.214C59.2314 170.563 59.097 169.922 59.066 169.281C58.7863 165.604 59.175 161.906 60.2132 158.367C60.8659 156.241 61.7716 154.2 62.9107 152.29C64.8394 148.978 67.4499 146.114 70.5691 143.887C72.9252 142.221 75.541 140.957 78.3103 140.146L79.9329 139.732C80.4105 139.622 80.8934 139.535 81.3798 139.474C82.1339 139.334 82.8974 139.252 83.6639 139.226L85.0799 139.174C85.2408 139.153 85.4032 139.142 85.5656 139.143Z" fill="#4CAF4F"/>
<path d="M91.4564 163.245H89.5444L85.4103 157.437V153.623C85.4103 153.623 82.4544 153.437 82.8058 158.429C83.1572 163.421 82.8058 162.15 82.8058 162.15C82.8058 162.15 76.5323 162.15 76.0156 162.718C75.4988 163.286 75.4678 169.343 75.3954 172.723C75.3558 173.537 75.5896 174.342 76.0596 175.008C76.5296 175.675 77.2089 176.166 77.9896 176.402C78.2084 176.463 78.4343 176.494 78.6614 176.495C80.2323 176.495 88.2215 175.224 88.2215 175.224H91.5184L91.4564 163.245Z" fill="#4CAF4F"/>
<path d="M96.9237 162.222L95.7454 175.286H92.4795V162.491L96.9237 162.222Z" fill="#4CAF4F"/>
<path d="M135.878 428.179V419.343L120.034 419.229L119.899 432.592L120.881 432.665C125.253 432.944 143.123 433.357 146.058 432.448C149.324 431.435 135.878 428.179 135.878 428.179Z" fill="#4CAF4F"/>
<path d="M146.431 431.621C146.431 431.766 140.498 431.89 133.191 431.89C125.884 431.89 119.952 431.766 119.952 431.621C119.952 431.477 125.884 431.353 133.191 431.353C140.498 431.353 146.431 431.477 146.431 431.621Z" fill="#263238"/>
<path d="M136.157 429.988C136.022 429.916 136.157 429.451 136.477 428.954C136.798 428.458 137.232 428.252 137.335 428.355C137.438 428.458 137.221 428.851 136.911 429.275C136.601 429.699 136.291 430.06 136.157 429.988Z" fill="#263238"/>
<path d="M137.169 430.567C137.025 430.567 137.097 429.988 137.407 429.44C137.717 428.892 138.13 428.562 138.244 428.644C138.358 428.727 138.172 429.192 137.882 429.678C137.593 430.164 137.304 430.618 137.169 430.567Z" fill="#263238"/>
<path d="M124.726 431.58C124.664 431.58 124.426 431.394 124.085 431.001C123.669 430.496 123.205 430.032 122.7 429.616C122.204 429.22 121.613 428.959 120.985 428.862C120.499 428.8 120.189 428.862 120.158 428.8C120.127 428.738 120.427 428.521 120.995 428.479C121.745 428.463 122.477 428.712 123.062 429.182C123.61 429.629 124.073 430.172 124.426 430.784C124.664 431.239 124.788 431.538 124.726 431.58Z" fill="#263238"/>
<path d="M136.208 428.324C136.281 428.448 136.012 428.758 135.557 428.923C135.102 429.089 134.699 429.027 134.679 428.923C134.658 428.82 134.978 428.603 135.371 428.458C135.764 428.314 136.126 428.2 136.208 428.324Z" fill="#263238"/>
<path d="M135.96 427.467C135.96 427.622 135.547 427.746 135.01 427.756C134.472 427.766 134.048 427.642 134.059 427.498C134.069 427.353 134.493 427.218 135.01 427.208C135.526 427.198 135.94 427.322 135.96 427.467Z" fill="#263238"/>
<path d="M174.893 428.179V419.343L159.049 419.229L158.915 432.458L159.897 432.53C164.269 432.81 182.149 433.357 185.074 432.448C188.34 431.435 174.893 428.179 174.893 428.179Z" fill="#4CAF4F"/>
<path d="M185.446 431.642C185.446 431.786 179.524 431.911 172.206 431.911C164.889 431.911 158.977 431.786 158.977 431.642C158.977 431.497 164.899 431.373 172.206 431.373C179.513 431.373 185.446 431.497 185.446 431.642Z" fill="#263238"/>
<path d="M175.173 429.988C175.049 429.916 175.173 429.451 175.493 428.954C175.814 428.458 176.248 428.252 176.351 428.355C176.454 428.458 176.237 428.851 175.927 429.275C175.617 429.699 175.307 430.06 175.173 429.988Z" fill="#263238"/>
<path d="M176.185 430.567C176.051 430.567 176.113 429.988 176.433 429.44C176.754 428.892 177.157 428.562 177.271 428.644C177.384 428.727 177.188 429.192 176.898 429.678C176.609 430.164 176.33 430.618 176.185 430.567Z" fill="#263238"/>
<path d="M163.741 431.58C163.679 431.58 163.452 431.394 163.1 431.001C162.684 430.496 162.22 430.032 161.716 429.616C161.219 429.22 160.628 428.959 160 428.862C159.524 428.8 159.204 428.862 159.173 428.8C159.142 428.738 159.442 428.521 160.01 428.479C160.76 428.463 161.492 428.712 162.077 429.182C162.628 429.626 163.091 430.169 163.442 430.784C163.679 431.239 163.803 431.538 163.741 431.58Z" fill="#263238"/>
<path d="M175.224 428.324C175.296 428.448 175.028 428.758 174.573 428.923C174.118 429.089 173.715 429.027 173.694 428.923C173.674 428.82 173.994 428.603 174.387 428.458C174.78 428.314 175.141 428.2 175.224 428.324Z" fill="#263238"/>
<path d="M174.997 427.467C174.997 427.622 174.583 427.746 174.046 427.756C173.508 427.766 173.095 427.642 173.105 427.498C173.116 427.353 173.529 427.218 174.046 427.208C174.562 427.198 174.997 427.322 174.997 427.467Z" fill="#263238"/>
<path d="M233.267 165.767C232.854 165.343 231.831 165.55 231.831 165.55C231.933 164.955 231.933 164.347 231.831 163.752C231.645 163.173 230.342 163.286 230.342 163.286C230.282 162.799 230.282 162.306 230.342 161.819C230.353 161.711 230.33 161.602 230.276 161.508C230.222 161.414 230.141 161.338 230.043 161.292C229.427 161.04 228.765 160.921 228.1 160.94C227.304 160.372 230.528 155.855 231.727 154.408C232.926 152.961 232.709 151.835 231.645 151.835C230.911 151.835 227.149 156.176 225.991 157.633C224.834 159.09 221.764 163.142 221.661 159.907C221.557 156.672 220.255 154.233 219.439 153.819C218.622 153.406 217.754 154.377 218.198 155.277C218.589 156.298 218.832 157.37 218.922 158.46C219.034 159.328 218.996 160.209 218.808 161.064C218.466 162.656 217.999 164.217 217.413 165.736H217.33C217.33 165.736 194.779 187.368 193.146 188.908C191.688 190.292 162.378 187.264 156.497 186.644C154.499 186.352 152.481 186.213 150.461 186.231C147.908 186.344 147.454 186.706 144.911 186.737C138.49 186.808 132.084 187.372 125.75 188.422C122.881 188.909 120.202 190.176 118.004 192.082C115.806 193.988 114.173 196.462 113.285 199.232C107.363 217.733 93.9479 261.523 91.5811 286.121C89.7926 289.364 88.1781 292.7 86.7442 296.115C85.0802 300.642 85.4833 300.797 86.0414 300.9C87.5504 301.18 89.266 293.056 89.9068 295.02C90.5476 296.983 86.6512 304.704 88.2325 304.931C90.2995 305.221 91.9428 296.663 92.1392 295.981C92.3356 295.299 93.3588 295.516 93.1727 296.157C92.873 297.066 89.9688 306.709 91.9945 307.019C93.1107 307.184 93.2348 305.148 93.2348 305.148C93.2348 305.148 95.3018 295.919 96.2423 296.105C97.1828 296.291 96.1803 301.738 95.7049 303.557C95.2295 305.376 95.8909 306.295 96.8624 305.851C97.5239 305.541 99.1052 300.012 99.5393 298.213C99.9734 296.415 101.059 291.433 102.516 294.317C103.973 297.2 106.185 298.875 107.094 298.916C107.299 298.892 107.492 298.808 107.649 298.674C107.806 298.539 107.918 298.361 107.973 298.162C108.027 297.963 108.021 297.753 107.955 297.557C107.888 297.362 107.765 297.191 107.601 297.066C106.818 296.302 106.147 295.432 105.606 294.482C105.124 293.742 104.774 292.924 104.573 292.064C104.156 290.349 103.914 288.597 103.849 286.834L103.684 285.801C105.999 274.339 112.665 240.698 122.287 219.211L126.235 227.334L127.951 233.349L117.43 259.322L162.305 258.733L155.608 232.956L163.742 206.085C172.537 206.281 195.12 206.612 198.882 204.907C203.615 202.839 228.1 171.916 228.1 171.916C229.696 170.676 231.224 169.351 232.678 167.948C232.678 167.948 234.166 166.697 233.267 165.767Z" fill="#FFBE9D"/>
<path d="M115.455 240.129C116.757 235.685 123.444 213.712 123.444 213.712C123.444 213.712 126.731 231.623 125.863 233.783C125.064 235.633 124.121 237.416 123.041 239.116C115.455 250.661 116.447 256.438 116.447 256.438L162.284 255.043C162.388 248.635 158.595 233.732 157.809 231.355C157.024 228.978 159.638 221.195 159.638 221.195C159.638 221.195 164.806 215.934 164.62 213.227C164.522 210.794 164.221 208.374 163.721 205.992L191.626 207.025L190.748 188.112L150.667 184.102C149.272 188.04 136.653 186.107 136.653 186.107C123.031 186.562 122.183 189.063 116.52 193.466C110.856 197.868 101.482 235.654 101.482 235.654L115.455 240.129Z" fill="#4CAF4F"/>
<path d="M142.554 235.654C141.76 235.796 140.951 235.837 140.146 235.778C138.648 235.778 136.591 235.674 134.328 235.447C132.064 235.22 130.018 234.899 128.56 234.61C127.757 234.506 126.969 234.305 126.214 234.01C127.022 234.011 127.829 234.087 128.622 234.238C130.09 234.424 132.126 234.682 134.379 234.91C136.632 235.137 138.679 235.292 140.157 235.395C140.962 235.406 141.765 235.492 142.554 235.654Z" fill="#263238"/>
<path d="M145.696 231.758C144.901 232.147 144.061 232.435 143.195 232.615C139.071 233.699 134.817 234.203 130.555 234.114C129.673 234.143 128.791 234.059 127.93 233.866C128.8 233.756 129.678 233.711 130.555 233.732C132.177 233.68 134.41 233.566 136.87 233.277C139.329 232.987 141.521 232.574 143.071 232.243C143.932 232.013 144.81 231.851 145.696 231.758Z" fill="#263238"/>
<path d="M161.117 214.374C161.096 215.162 160.988 215.945 160.796 216.71C160.527 218.146 160.114 220.11 159.587 222.26C159.06 224.409 158.553 226.394 158.099 227.737C157.916 228.506 157.645 229.252 157.292 229.959C157.35 229.174 157.496 228.397 157.727 227.644C158.119 226.032 158.564 224.172 159.06 222.136C159.556 220.1 160.031 218.239 160.424 216.627C160.564 215.851 160.796 215.094 161.117 214.374Z" fill="#263238"/>
<path d="M115.941 237.494C113.55 237.124 111.19 236.575 108.882 235.85C106.524 235.299 104.209 234.573 101.958 233.68C104.347 234.055 106.707 234.604 109.017 235.323C111.376 235.873 113.69 236.598 115.941 237.494Z" fill="#263238"/>
<path d="M164.217 205.765C163.827 205.832 163.429 205.832 163.039 205.765C161.959 205.654 160.899 205.4 159.886 205.01C158.196 204.375 156.657 203.393 155.368 202.127C154.079 200.862 153.07 199.341 152.404 197.662C151.668 195.815 151.353 193.827 151.484 191.843C151.53 190.207 152.019 188.613 152.9 187.233C153.519 186.304 154.444 185.62 155.515 185.301C155.801 185.222 156.096 185.183 156.393 185.187C156.6 185.187 156.703 185.187 156.703 185.187C156.703 185.187 156.269 185.187 155.577 185.466C154.595 185.829 153.762 186.509 153.21 187.399C151.804 189.61 151.411 193.652 152.91 197.424C153.608 199.203 154.7 200.8 156.104 202.095C157.254 203.156 158.579 204.009 160.021 204.617C161.373 205.152 162.78 205.537 164.217 205.765Z" fill="#263238"/>
<path d="M188.309 206.654C188.05 203.484 187.967 200.303 188.061 197.124C187.98 193.949 188.076 190.771 188.35 187.606C188.609 190.772 188.691 193.949 188.598 197.124C188.685 200.304 188.588 203.485 188.309 206.654Z" fill="#263238"/>
<path d="M150.399 185.26C150.512 182.955 150.75 180.35 150.75 180.35C150.75 180.35 156.455 179.72 156.796 173.829C157.137 167.938 156.796 154.347 156.796 154.347L146.461 149.055L134.989 158.078L136.756 187.533L147.277 188.205C148.082 188.227 148.862 187.93 149.447 187.378C150.032 186.825 150.374 186.064 150.399 185.26Z" fill="#FFBE9D"/>
<path d="M151.422 169.167C151.422 169.167 151.422 169.281 151.329 169.415C151.252 169.513 151.153 169.59 151.039 169.641C150.926 169.691 150.802 169.713 150.678 169.705C150.017 169.705 149.376 168.94 149.148 168.051C149.04 167.62 149.04 167.169 149.148 166.739C149.17 166.55 149.237 166.371 149.346 166.215C149.454 166.06 149.599 165.935 149.769 165.85C149.908 165.792 150.064 165.792 150.203 165.85C150.306 165.901 150.389 165.984 150.44 166.087C150.513 166.263 150.44 166.377 150.44 166.366C150.44 166.356 150.44 166.263 150.337 166.16C150.283 166.086 150.204 166.034 150.114 166.015C150.024 165.996 149.931 166.011 149.851 166.056C149.724 166.133 149.619 166.241 149.545 166.369C149.471 166.497 149.431 166.642 149.427 166.79C149.34 167.175 149.34 167.574 149.427 167.958C149.634 168.764 150.192 169.415 150.688 169.477C150.785 169.491 150.884 169.484 150.978 169.457C151.073 169.43 151.16 169.384 151.236 169.322C151.36 169.24 151.402 169.157 151.422 169.167Z" fill="#EB996E"/>
<path d="M160.342 151.163C159.546 148.456 156.663 147.112 154.037 146.368C150.038 145.231 145.718 144.735 141.811 146.172C137.904 147.608 133.212 150.13 133.212 154.44C130.907 154.254 129.584 156.269 128.675 158.77C128.093 160.294 127.745 161.897 127.641 163.524C127.352 169.168 125.77 176.96 122.112 181.094C120.045 183.399 117.182 184.991 116.004 187.864C114.97 190.355 115.508 193.311 114.546 195.833C113.689 198.055 111.797 199.636 110.412 201.569C109.001 203.761 108.171 206.276 107.999 208.878C107.827 211.48 108.32 214.082 109.43 216.441C110.549 218.74 112.124 220.786 114.059 222.456C115.994 224.127 118.248 225.385 120.686 226.156C125.513 227.625 130.661 227.675 135.517 226.301C139.161 225.43 142.56 223.744 145.459 221.371C148.426 218.948 150.463 215.574 151.226 211.821C151.96 207.604 150.782 203.315 149.903 199.119C147.154 185.859 147.94 185.167 151.412 172.857C151.495 172.64 151.536 172.413 151.598 172.196C151.66 171.979 151.691 171.875 151.733 171.71C151.831 171.223 151.883 170.729 151.888 170.232C151.38 170.421 150.83 170.461 150.301 170.347C149.772 170.234 149.286 169.971 148.901 169.591C148.515 169.186 148.246 168.684 148.122 168.138C147.998 167.592 148.024 167.023 148.198 166.491C148.442 165.909 148.805 165.384 149.265 164.952C149.724 164.519 150.269 164.188 150.865 163.979C152.012 163.504 153.242 163.256 154.368 162.729C156.756 161.592 158.409 159.235 159.536 156.765C160.462 155.053 160.748 153.067 160.342 151.163Z" fill="#263238"/>
<path d="M151.836 169.447C152.054 169.769 152.234 170.116 152.373 170.48C152.683 171.131 153.096 172.051 153.551 173.116L153.634 173.312H153.417L152.383 173.405C151.67 173.405 151.071 173.539 150.368 173.529C150.307 173.515 150.25 173.486 150.203 173.445C150.156 173.403 150.12 173.35 150.099 173.291C150.068 173.197 150.068 173.096 150.099 173.002C150.123 172.863 150.154 172.725 150.192 172.588L150.378 171.855C150.472 171.365 150.617 170.887 150.812 170.428C150.793 170.927 150.72 171.423 150.595 171.906L150.451 172.64C150.399 172.888 150.306 173.271 150.451 173.24C150.967 173.24 151.701 173.126 152.383 173.085L153.417 172.992L153.283 173.219C152.838 172.185 152.466 171.214 152.249 170.542C152.059 170.199 151.919 169.83 151.836 169.447Z" fill="#4CAF4F"/>
<path d="M116.448 256.438L162.285 255.043L182.232 332.909L178.563 422.226H154.326L157.293 334.811L139.568 280.602L142.296 425.689L117.802 426.05L115.228 289.676C115.114 285.883 113.874 277.336 114.339 273.574L116.448 256.438Z" fill="#263238"/>
<path d="M145.665 281.708C144.915 281.756 144.162 281.71 143.423 281.574C142.038 281.409 140.146 281.119 138.069 280.706C135.992 280.292 134.131 279.817 132.788 279.435C132.07 279.277 131.375 279.027 130.721 278.69C130.721 278.535 134.09 279.342 138.224 280.179C142.358 281.016 145.686 281.553 145.665 281.708Z" fill="#455A64"/>
<path d="M178.314 417.327C178.314 417.472 172.826 417.596 166.057 417.596C159.287 417.596 153.789 417.472 153.789 417.327C153.789 417.183 159.277 417.059 166.057 417.059C172.836 417.059 178.314 417.172 178.314 417.327Z" fill="#455A64"/>
<path d="M142.079 421.916C142.079 422.071 136.746 422.185 130.173 422.185C123.6 422.185 118.277 422.071 118.277 421.916C118.277 421.761 123.61 421.647 130.173 421.647C136.736 421.647 142.079 421.771 142.079 421.916Z" fill="#455A64"/>
<path d="M138.916 421.544C138.772 421.544 138.131 389.846 137.48 350.748C136.829 311.649 136.446 279.93 136.58 279.93C136.715 279.93 137.376 311.618 138.017 350.737C138.658 389.856 139.071 421.544 138.916 421.544Z" fill="#455A64"/>
<path d="M175.059 417.327C175.047 417.186 175.047 417.045 175.059 416.904V415.663C175.059 414.547 175.141 412.945 175.203 410.909C175.348 406.775 175.555 400.77 175.813 393.412C176.371 378.611 177.157 358.21 178.015 335.689C178.015 335.472 178.015 335.265 178.015 335.079V335.152C172.589 313.448 167.679 293.749 164.114 279.496L159.98 262.639C159.504 260.665 159.142 259.125 158.884 258.051C158.76 257.544 158.677 257.151 158.605 256.852C158.565 256.717 158.541 256.578 158.533 256.438C158.586 256.568 158.628 256.703 158.657 256.841C158.739 257.131 158.843 257.523 158.987 258.02C159.267 259.053 159.67 260.624 160.186 262.588C161.22 266.577 162.677 272.324 164.496 279.403C168.093 293.645 173.054 313.293 178.552 335.028V335.1C178.552 335.286 178.552 335.503 178.552 335.71C177.632 358.23 176.795 378.622 176.185 393.422C175.865 400.791 175.596 406.754 175.41 410.909C175.307 412.976 175.224 414.547 175.172 415.663C175.172 416.19 175.11 416.604 175.1 416.904C175.102 417.046 175.088 417.188 175.059 417.327Z" fill="#455A64"/>
<path d="M167.153 333.26C165.412 333.833 163.618 334.231 161.799 334.449C159.566 334.831 157.665 335.1 156.807 335.142V334.935C157.086 335.017 157.231 335.069 157.231 335.111C157.231 335.152 157.055 335.111 156.766 335.111H156.146L156.766 334.924C157.572 334.687 159.473 334.294 161.706 333.891C163.496 333.502 165.321 333.291 167.153 333.26Z" fill="#455A64"/>
<path d="M166.729 336.227C165.117 336.3 163.501 336.228 161.902 336.01C160.288 335.977 158.679 335.8 157.096 335.482C160.326 335.219 163.577 335.47 166.729 336.227Z" fill="#455A64"/>
<path opacity="0.2" d="M116.251 258.082C116.794 258.779 117.478 259.353 118.258 259.768C119.038 260.183 119.897 260.429 120.778 260.49C122.624 260.708 124.492 260.674 126.328 260.386C138.162 259.074 150.699 257.864 162.285 255.043C147.288 255.88 131.444 255.601 116.448 256.438L116.293 257.72" fill="black"/>
<g opacity="0.2">
<path d="M131.703 279.217L140.157 312.021L139.568 280.602L131.703 279.217Z" fill="black"/>
</g>
</svg>
